<svg id="Capa_1" enable-background="new 0 0 490.085 490.085" height="512" viewBox="0 0 490.085 490.085" width="512" xmlns="http://www.w3.org/2000/svg"><g><path d="m426.445 266.675-28.001 28.001-21.213-21.213 28.002-28.001-193.012-193.011-13.964 13.964c-9.019-8.164-23.554-20.023-42.806-31.477-44.339-26.379-93.09-38.197-140.99-34.167l-12.629 1.062-1.061 12.629c-4.026 47.897 7.788 96.65 34.167 140.989 11.454 19.252 23.313 33.787 31.477 42.806l-13.965 13.965 193.011 193.012 28.001-28.002 21.213 21.212-28.001 28.001 63.64 63.64 159.771-159.771zm-366.234-127.422c-20.725-35.164-30.86-71.856-30.208-109.249 37.393-.666 74.085 9.483 109.249 30.208 16.823 9.915 29.698 20.279 37.751 27.457l-89.336 89.336c-7.177-8.054-17.541-20.929-27.456-37.752zm213.251 195.552-28.001 28.001-150.585-150.584 117.345-117.345 150.584 150.585-28.001 28.001 42.426 42.426-61.342 61.342zm35.638 91.64 117.345-117.345 21.214 21.214-117.345 117.345z"/><path d="m214.562 183.063h30v93h-30z" transform="matrix(.707 -.707 .707 .707 -95.088 229.562)"/></g></svg>