<?xml version="1.0"?>
<svg xmlns="http://www.w3.org/2000/svg" xmlns:xlink="http://www.w3.org/1999/xlink" version="1.1" id="Capa_1" x="0px" y="0px" viewBox="0 0 511.992 511.992" style="enable-background:new 0 0 511.992 511.992;" xml:space="preserve" width="512" height="512" class=""><g><g>
	<path d="M487.208,236.131c-25.42-15.238-41.212-47.476-41.212-84.134c0-33.024,14.863-57.274,27.333-71.804   c6.858-7.994,9.006-18.348,5.891-28.406c-3.113-10.061-10.735-17.392-20.911-20.111L341.698,0.51   c-6.766-1.808-13.88,1.305-17.145,7.5C311,33.739,284.539,49.722,255.496,49.722c-28.903,0-55.305-15.87-68.902-41.417   c-3.279-6.161-10.374-9.247-17.114-7.443L54.184,31.675C44.01,34.394,36.386,41.723,33.271,51.784s-0.968,20.416,5.893,28.41   c12.469,14.528,27.332,38.779,27.332,71.803c0,36.235-16.373,69.462-41.712,84.651c-4.521,2.71-7.288,7.595-7.288,12.866v67.434   c0,0.013,0,0.064,0,0.077v179.966c0,8.284,6.716,15,15,15h382.979c0.006,0,0.032,0,0.039,0h63.983c8.284,0,15-6.716,15-15V248.997   C494.496,243.726,491.729,238.841,487.208,236.131z M96.496,151.997c0-42.205-18.798-72.967-34.566-91.339l104.445-27.914   c20.011,29.246,53.167,46.978,89.121,46.978c36.131,0,69.372-17.859,89.354-47.316l105.713,28.25   c-15.769,18.374-34.566,49.136-34.566,91.341c0,43.716,18.385,83.097,48.5,105.038v44.952h-34.002c-16.542,0-30,13.458-30,30   v150.005H111.496V331.987c0-16.542-13.458-30-30-30h-34v-44.428C77.92,235.454,96.496,195.869,96.496,151.997z M47.496,331.987h34   v150.005h-34V331.987z M430.494,481.992V331.987h34.002v150.005H430.494z" data-original="#000000" class="active-path" data-old_color="#000000" style="fill:#FFFFFF"/>
	<path d="M156.531,331.99h198.965c8.284,0,15-6.716,15-15s-6.716-15-15-15H156.531c-8.284,0-15,6.716-15,15   S148.247,331.99,156.531,331.99z" data-original="#000000" class="active-path" data-old_color="#000000" style="fill:#FFFFFF"/>
	<path d="M156.531,391.991h198.965c8.284,0,15-6.716,15-15s-6.716-15-15-15H156.531c-8.284,0-15,6.716-15,15   S148.247,391.991,156.531,391.991z" data-original="#000000" class="active-path" data-old_color="#000000" style="fill:#FFFFFF"/>
	<path d="M156.531,451.99h198.965c8.284,0,15-6.716,15-15s-6.716-15-15-15H156.531c-8.284,0-15,6.716-15,15   S148.247,451.99,156.531,451.99z" data-original="#000000" class="active-path" data-old_color="#000000" style="fill:#FFFFFF"/>
</g></g> </svg>
