<svg id="flat" height="512" viewBox="0 0 512 512" width="512" xmlns="http://www.w3.org/2000/svg"><path d="m32 384h80v72h-80z" fill="#d3aa4f"/><path d="m24 456h96v32h-96z" fill="#e6c06c"/><path d="m32 136h80v248h-80z" fill="#bc674a"/><path d="m152 336h80v96h-80z" fill="#e6c06c"/><path d="m152 336 8-40h64l8 40z" fill="#f5d389"/><path d="m160 296v-27.15562a95.26659 95.26659 0 0 1 16-52.84438h32a95.26659 95.26659 0 0 1 16 52.84436v27.15564z" fill="#e6c06c"/><path d="m160 432h64v24h-64z" fill="#d3aa4f"/><path d="m152 456h80v32h-80z" fill="#e6c06c"/><path d="m272 264h80v168h-80z" fill="#e6c06c"/><path d="m280 432h64v24h-64z" fill="#d3aa4f"/><path d="m264 456h96v32h-96z" fill="#e6c06c"/><path d="m408 432h64v24h-64z" fill="#d3aa4f"/><path d="m392 456h96v32h-96z" fill="#e6c06c"/><path d="m288 208v-20.22295a151.554 151.554 0 0 1 16-67.77705h16a151.554 151.554 0 0 1 16 67.777v20.223z" fill="#e6c06c"/><path d="m272 264h80l-16-56h-48z" fill="#f5d389"/><path d="m392 168h96v264h-96z" fill="#e6c06c"/><path d="m408 112v-10.74521a109.25471 109.25471 0 0 1 32-77.25479 109.25471 109.25471 0 0 1 32 77.25476v10.74524z" fill="#e6c06c"/><path d="m488 168-16-56h-64l-16 56z" fill="#f5d389"/></svg>