<svg height="480pt" viewBox="0 0 480 480" width="480pt" xmlns="http://www.w3.org/2000/svg"><path d="m448 144v288c0 26.511719-21.488281 48-48 48h-320c-26.511719 0-48-21.488281-48-48v-288c26.511719 0 48-21.488281 48-48v-96h64v32c0 53.015625 42.984375 96 96 96s96-42.984375 96-96v-32h64v96c0 26.511719 21.488281 48 48 48zm0 0" fill="#695b52"/><path d="m336 32c0 53.015625-42.984375 96-96 96s-96-42.984375-96-96v-32h-64v96c0 26.511719-21.488281 48-48 48v245.503906c11.808594 1.585938 23.808594 2.496094 36 2.496094 165.6875 0 300-150.433594 300-336 0-19.089844-1.496094-37.777344-4.222656-56h-27.777344zm0 0" fill="#857970"/><path d="m262.128906 305.246094-22.128906 14.753906-22.128906-14.753906c-31.160156-20.765625-49.871094-55.742188-49.871094-93.191406v-52.054688h144v52.054688c0 37.449218-18.710938 72.425781-49.871094 93.191406zm0 0" fill="#d1a339"/><path d="m168 212.054688c0 27.609374 10.230469 53.832031 28.070312 74.050781 52.265626-9.472657 91.929688-55.113281 91.929688-110.105469 0-5.449219-.519531-10.761719-1.273438-16h-118.726562zm0 0" fill="#f0d365"/><path d="m176 352h96v96h-176v-96h32" fill="#f0d365"/><path d="m176 304h-48v56c0 13.257812 10.742188 24 24 24s24-10.742188 24-24zm0 0" fill="#d1a339"/><path d="m240 352h32v96h-32zm0 0" fill="#d1a339"/><path d="m0 304h64v64h-64zm0 0" fill="#695b52"/><path d="m0 192h64v64h-64zm0 0" fill="#695b52"/><path d="m416 304h64v64h-64zm0 0" fill="#857970"/><path d="m416 192h64v64h-64zm0 0" fill="#857970"/><path d="m288 224h-28.6875l18.34375-18.34375-11.3125-11.3125-18.34375 18.34375v-28.6875h-16v28.6875l-18.34375-18.34375-11.3125 11.3125 18.34375 18.34375h-28.6875v16h28.6875l-18.34375 18.34375 11.3125 11.3125 18.34375-18.34375v28.6875h16v-28.6875l18.34375 18.34375 11.3125-11.3125-18.34375-18.34375h28.6875zm0 0" fill="#695b52"/></svg>