<?xml version="1.0" encoding="iso-8859-1"?>
<!-- Generator: Adobe Illustrator 19.0.0, SVG Export Plug-In . SVG Version: 6.00 Build 0)  -->
<svg version="1.1" id="Capa_1" xmlns="http://www.w3.org/2000/svg" xmlns:xlink="http://www.w3.org/1999/xlink" x="0px" y="0px"
	 viewBox="0 0 511.574 511.574" style="enable-background:new 0 0 511.574 511.574;" xml:space="preserve">
<g>
	<path style="fill:#5E5F62;" d="M414.471,390.371l-0.088,0.088H34.885c-9.739-0.029-17.627-7.916-17.655-17.655v-17.655
		c0.028-9.739,7.916-17.627,17.655-17.655h35.31l-8.828-8.828h291.31l2.207,8.828l0.265-0.265
		C377.572,357.356,399.464,377.042,414.471,390.371z"/>
	<path style="fill:#4C8056;" d="M511.574,341.29c0.021,29.473-16.185,56.565-42.163,70.487
		c-25.978,13.922-57.511,12.412-82.041-3.927c0,0-7.503-6.709-19.421-17.479c-15.007-13.33-36.899-33.015-59.321-53.142
		l-0.265,0.265H67.9c-52.571-29.17-78.756-90.206-63.667-148.403s67.633-98.82,127.755-98.77H239.95
		c91.146-0.004,174.89,50.181,217.865,130.56l44.314,82.714C508.324,315.195,511.568,328.141,511.574,341.29z"/>
	<path style="fill:#E4C05C;" d="M123.161,302.184c66.844-38.963,61.702-121.76,61.702-121.76
		c-46.276,9.741-61.702-19.482-61.702-19.482s-15.425,29.222-61.702,19.482C61.459,180.424,56.317,263.221,123.161,302.184z"/>
</g>
<g>
</g>
<g>
</g>
<g>
</g>
<g>
</g>
<g>
</g>
<g>
</g>
<g>
</g>
<g>
</g>
<g>
</g>
<g>
</g>
<g>
</g>
<g>
</g>
<g>
</g>
<g>
</g>
<g>
</g>
</svg>
