<?xml version="1.0"?>
<svg xmlns="http://www.w3.org/2000/svg" id="Layer_2" enable-background="new 0 0 512 512" height="512px" viewBox="0 0 512 512" width="512px" class=""><g><g><g><path d="m328 70h-144l-48-60v140h240v-140z" fill="#466089" data-original="#466089" style="fill:#595959" class="active-path" data-old_color="#466089"/></g><g><path d="m256 502h216v-239l-32-49v-180l-64-24-40 136h-160l-40-136-64 24v180l-32 49v239z" fill="#6e83b7" data-original="#6E83B7" style="fill:#000000" class="" data-old_color="#6e83b7"/></g><g><path d="m106 306h300v60h-300z" fill="#466089" transform="matrix(-1 0 0 -1 512 672)" data-original="#466089" style="fill:#595959" class="active-path" data-old_color="#466089"/></g><g><path d="m106 400h300v60h-300z" fill="#466089" transform="matrix(-1 0 0 -1 512 860)" data-original="#466089" style="fill:#595959" class="active-path" data-old_color="#466089"/></g><g><path d="m106 212h300v60h-300z" fill="#466089" transform="matrix(-1 0 0 -1 512 484)" data-original="#466089" style="fill:#595959" class="active-path" data-old_color="#466089"/></g><g><path d="m30 306h40v60h-40z" fill="#d3d3d3" data-original="#D3D3D3" class="" style="fill:#373535" data-old_color="#d3d3d3"/></g><g><path d="m30 400h40v60h-40z" fill="#d3d3d3" data-original="#D3D3D3" class="" style="fill:#373535" data-old_color="#d3d3d3"/></g><g><path d="m442 306h40v60h-40z" fill="#d3d3d3" transform="matrix(-1 0 0 -1 924 672)" data-original="#D3D3D3" class="" style="fill:#373535" data-old_color="#d3d3d3"/></g><g><path d="m442 400h40v60h-40z" fill="#d3d3d3" transform="matrix(-1 0 0 -1 924 860)" data-original="#D3D3D3" class="" style="fill:#373535" data-old_color="#d3d3d3"/></g></g></g> </svg>
