<?xml version="1.0" encoding="iso-8859-1"?>
<!-- Generator: Adobe Illustrator 21.0.0, SVG Export Plug-In . SVG Version: 6.00 Build 0)  -->
<svg xmlns="http://www.w3.org/2000/svg" xmlns:xlink="http://www.w3.org/1999/xlink" version="1.1" id="Capa_1" x="0px" y="0px" viewBox="0 0 511.992 511.992" style="enable-background:new 0 0 511.992 511.992;" xml:space="preserve" width="512" height="512">
<g>
	<g>
		<path style="fill:#00347B;" d="M479.496,511.992h-447c-8.284,0-15-6.716-15-15V249.514c0-5.271,2.767-10.156,7.288-12.866    c25.339-15.189,41.712-48.417,41.712-84.651c0-33.024-14.863-57.274-27.332-71.803c-6.86-7.995-9.008-18.35-5.893-28.41    s10.738-17.39,20.913-20.109L169.479,0.861c6.74-1.803,13.835,1.283,17.114,7.443c13.598,25.547,39.999,41.417,68.902,41.417    c29.043,0,55.504-15.983,69.058-41.711c3.265-6.195,10.379-9.308,17.145-7.5l116.61,31.165    c10.176,2.72,17.798,10.05,20.911,20.111c3.115,10.058,0.968,20.413-5.891,28.406c-12.47,14.53-27.333,38.78-27.333,71.804    c0,36.658,15.792,68.896,41.212,84.134c4.521,2.71,7.288,7.595,7.288,12.866v247.995    C494.496,505.276,487.78,511.992,479.496,511.992z M450.6,60.822L450.6,60.822L450.6,60.822z"/>
	</g>
	<path style="fill:#001035;" d="M487.208,236.131c-25.42-15.238-41.212-47.476-41.212-84.134c0-33.024,14.863-57.274,27.333-71.804   c6.858-7.994,9.006-18.348,5.891-28.406c-3.113-10.061-10.735-17.392-20.911-20.111L341.698,0.51   c-6.766-1.808-13.88,1.305-17.145,7.5C311,33.739,284.539,49.722,255.496,49.722v462.27h224c8.284,0,15-6.716,15-15V248.997   C494.496,243.726,491.729,238.841,487.208,236.131z"/>
	<path style="fill:#046EFF;" d="M111.496,331.987c0-16.542-13.458-30-30-30h-64v195.005c0,8.284,6.716,15,15,15h79V331.987z"/>
	<path style="fill:#0051BD;" d="M400.496,331.987c0-16.542,13.458-30,30-30h64v195.005c0,8.284-6.716,15-15,15h-79V331.987z"/>
	<g>
		<path style="fill:#FFCB00;" d="M355.496,331.99H156.531c-8.284,0-15-6.716-15-15s6.716-15,15-15h198.965c8.284,0,15,6.716,15,15    S363.78,331.99,355.496,331.99z"/>
	</g>
	<g>
		<path style="fill:#FFCB00;" d="M355.496,391.991H156.531c-8.284,0-15-6.716-15-15s6.716-15,15-15h198.965c8.284,0,15,6.716,15,15    S363.78,391.991,355.496,391.991z"/>
	</g>
	<g>
		<path style="fill:#FFCB00;" d="M355.496,451.99H156.531c-8.284,0-15-6.716-15-15s6.716-15,15-15h198.965c8.284,0,15,6.716,15,15    S363.78,451.99,355.496,451.99z"/>
	</g>
	<path style="fill:#ECBD00;" d="M355.496,301.99h-99.168v30h99.168c8.284,0,15-6.716,15-15S363.78,301.99,355.496,301.99z"/>
	<path style="fill:#ECBD00;" d="M355.496,361.991h-99.168v30h99.168c8.284,0,15-6.716,15-15S363.78,361.991,355.496,361.991z"/>
	<path style="fill:#ECBD00;" d="M355.496,421.99h-99.168v30h99.168c8.284,0,15-6.716,15-15S363.78,421.99,355.496,421.99z"/>
</g>















</svg>
