<svg height="512pt" viewBox="0 0 512 512" width="512pt" xmlns="http://www.w3.org/2000/svg"><path d="m317.792969 494.332031v-176.550781h167.722656v176.550781zm0 0" fill="#e4c05c"/><path d="m167.722656 317.78125h167.726563v176.550781h-167.726563zm0 0" fill="#c03a2b"/><path d="m17.65625 317.78125h176.550781v185.378906h-176.550781zm0 0" fill="#e4c05c"/><path d="m476.691406 503.160156v-194.207031c0-4.875 3.949219-8.828125 8.824219-8.828125h17.65625c4.875 0 8.828125 3.953125 8.828125 8.828125v194.207031c0 4.875-3.953125 8.828125-8.828125 8.828125h-17.65625c-4.875 0-8.824219-3.953125-8.824219-8.828125zm0 0" fill="#b19046"/><path d="m335.449219 494.332031v-176.550781h35.308593v176.550781zm0 0" fill="#b19046"/><path d="m194.207031 423.710938v-35.308594h61.792969c4.875 0 8.828125 3.949218 8.828125 8.828125v17.652343c0 4.875-3.953125 8.828126-8.828125 8.828126zm0 0" fill="#f3d55b"/><path d="m8.828125 476.675781h194.207031c4.875 0 8.828125 3.953125 8.828125 8.828125v17.65625c0 4.875-3.953125 8.828125-8.828125 8.828125h-194.207031c-4.875 0-8.828125-3.953125-8.828125-8.828125v-17.65625c0-4.875 3.953125-8.828125 8.828125-8.828125zm0 0" fill="#b19046"/><path d="m17.65625 335.433594h176.550781v35.3125h-176.550781zm0 0" fill="#b19046"/><path d="m17.65625 79.433594h176.550781v256h-176.550781zm0 0" fill="#e64c3c"/><path d="m156.328125 15.160156 11.539063-12.523437c2.003906-2.023438 4.867187-2.953125 7.679687-2.496094s5.230469 2.246094 6.496094 4.800781l11.226562 28.511719c.613281 1.222656.933594 2.570313.9375 3.9375v50.871094h-176.550781v-50.871094c-.003906-1.378906.316406-2.734375.933594-3.964844l11.230468-28.511719c1.269532-2.550781 3.691407-4.332031 6.503907-4.785156 2.8125-.449218 5.667969.480469 7.671875 2.507813l11.539062 12.523437c1.65625 1.667969 3.910156 2.605469 6.257813 2.605469 2.347656 0 4.601562-.9375 6.257812-2.605469l11.539063-12.523437c2.007812-2.023438 4.867187-2.953125 7.679687-2.496094s5.234375 2.246094 6.496094 4.800781l4.21875 16.699219c1.488281 3.015625 4.558594 4.925781 7.921875 4.925781 3.359375 0 6.429688-1.910156 7.917969-4.925781l4.246093-16.726563c1.265626-2.5625 3.691407-4.351562 6.511719-4.800781 2.820313-.453125 5.6875.488281 7.691407 2.523438l11.535156 12.550781c1.660156 1.664062 3.917968 2.59375 6.265625 2.589844 2.351562-.003906 4.601562-.945313 6.253906-2.617188zm0 0" fill="#fb7b76"/><path d="m97.101562 176.539062h17.65625c4.875 0 8.828126 3.953126 8.828126 8.828126v70.621093c0 4.875-3.953126 8.828125-8.828126 8.828125h-17.65625c-4.875 0-8.824218-3.953125-8.824218-8.828125v-70.621093c0-4.875 3.949218-8.828126 8.824218-8.828126zm0 0" fill="#f3d55b"/></svg>