<?xml version="1.0" encoding="iso-8859-1"?>
<!-- Generator: Adobe Illustrator 19.0.0, SVG Export Plug-In . SVG Version: 6.00 Build 0)  -->
<svg version="1.1" id="Capa_1" xmlns="http://www.w3.org/2000/svg" xmlns:xlink="http://www.w3.org/1999/xlink" x="0px" y="0px"
	 viewBox="0 0 511.944 511.944" style="enable-background:new 0 0 511.944 511.944;" xml:space="preserve">
<g>
	<g>
		<path style="fill:#7F8C8D;" d="M17.3,25.977c-2.302,0.003-4.51-0.912-6.135-2.543l-8.678-8.678
			C-0.85,11.36-0.825,5.908,2.542,2.541S11.36-0.85,14.757,2.486l8.678,8.678c2.481,2.482,3.223,6.214,1.88,9.456
			S20.809,25.977,17.3,25.977z"/>
		<path style="fill:#7F8C8D;" d="M52.011,60.689c-2.302,0.003-4.51-0.912-6.135-2.543l-8.678-8.678
			c-3.336-3.397-3.312-8.848,0.055-12.215s8.818-3.392,12.215-0.055l8.678,8.678c2.481,2.482,3.223,6.214,1.88,9.456
			C58.684,58.574,55.521,60.688,52.011,60.689z"/>
		<path style="fill:#7F8C8D;" d="M86.723,95.401c-2.302,0.003-4.51-0.912-6.135-2.543L71.91,84.18
			c-3.336-3.397-3.312-8.848,0.055-12.215c3.367-3.367,8.818-3.392,12.215-0.055l8.678,8.678c2.481,2.482,3.223,6.214,1.88,9.456
			C93.396,93.286,90.233,95.4,86.723,95.401z"/>
	</g>
	<path style="fill:#547580;" d="M481.484,260.543L272.779,51.924C253.258,32.381,226.769,21.4,199.146,21.4
		s-54.112,10.981-73.633,30.525l-73.589,73.589C32.381,145.034,21.4,171.524,21.4,199.146s10.981,54.112,30.525,73.633
		l208.618,208.705c40.688,40.613,106.577,40.613,147.265,0l73.676-73.676C522.097,367.12,522.097,301.231,481.484,260.543z
		 M150.072,150.072c-10.161,10.161-26.634,10.161-36.795,0s-10.161-26.634,0-36.795s26.634-10.161,36.795,0
		C160.225,123.441,160.225,139.909,150.072,150.072z"/>
	<path style="fill:#BDC3C7;" d="M444.603,371.013l-73.589,73.589c-20.361,20.306-53.315,20.306-73.676,0L88.719,235.984
		c-9.231-9.146-14.631-21.465-15.1-34.452c36.059,9.779,74.593-0.483,101.012-26.902s36.681-64.953,26.902-101.012
		c12.986,0.469,25.306,5.868,34.452,15.1l208.618,208.618C464.909,317.698,464.909,350.652,444.603,371.013z"/>
	<g>
		<path style="fill:#ECF0F1;" d="M248.266,183.308c2.302,0.003,4.51-0.912,6.135-2.543l6.135-6.135
			c2.192-2.192,3.048-5.387,2.246-8.381c-0.802-2.994-3.141-5.333-6.136-6.136c-2.994-0.802-6.189,0.054-8.381,2.246l-6.135,6.135
			c-2.481,2.482-3.223,6.214-1.88,9.456C241.592,181.192,244.756,183.307,248.266,183.308L248.266,183.308z"/>
		<path style="fill:#ECF0F1;" d="M223.723,207.855c2.302,0.003,4.51-0.912,6.135-2.543l6.135-6.135
			c2.192-2.192,3.048-5.387,2.246-8.381c-0.802-2.994-3.141-5.333-6.136-6.136c-2.994-0.802-6.189,0.054-8.381,2.246l-6.135,6.135
			c-2.481,2.482-3.223,6.214-1.88,9.456C217.05,205.739,220.213,207.853,223.723,207.855L223.723,207.855z"/>
		<path style="fill:#ECF0F1;" d="M257.935,193.028c0.027,2.317,0.964,4.53,2.61,6.161c1.654,1.599,3.861,2.5,6.161,2.517
			c2.273-0.019,4.449-0.921,6.068-2.517c0.403-0.409,0.78-0.843,1.127-1.301l0.788-1.564c0.21-0.508,0.383-1.03,0.517-1.563
			c0.101-0.573,0.161-1.152,0.178-1.733c-0.026-2.317-0.964-4.531-2.61-6.161c-3.444-3.212-8.785-3.212-12.229,0
			C258.899,188.498,257.961,190.711,257.935,193.028z"/>
		<path style="fill:#ECF0F1;" d="M235.986,211.422c-3.356,3.423-3.356,8.903,0,12.326c1.664,1.584,3.864,2.482,6.161,2.513
			c2.272-0.017,4.448-0.919,6.068-2.513c0.426-0.422,0.807-0.888,1.136-1.39c0.307-0.465,0.568-0.959,0.78-1.475
			c0.248-0.493,0.422-1.02,0.517-1.564c0.101-0.574,0.161-1.155,0.178-1.737c-0.028-2.317-0.965-4.53-2.61-6.161
			C244.77,208.214,239.431,208.214,235.986,211.422z"/>
		<path style="fill:#ECF0F1;" d="M285.079,220.126c2.301,0.002,4.508-0.911,6.135-2.538l6.144-6.135
			c2.214-2.188,3.088-5.394,2.289-8.402c-0.799-3.009-3.148-5.359-6.156-6.16c-3.008-0.801-6.215,0.07-8.404,2.283l-6.144,6.135
			c-2.484,2.481-3.228,6.215-1.885,9.46C278.401,218.012,281.567,220.127,285.079,220.126L285.079,220.126z"/>
		<path style="fill:#ECF0F1;" d="M260.537,223.723l-6.135,6.135c-3.389,3.389-3.389,8.883,0,12.271
			c3.389,3.389,8.883,3.389,12.271,0l6.135-6.135c2.192-2.192,3.048-5.387,2.246-8.381c-0.802-2.994-3.141-5.333-6.136-6.136
			C265.924,220.675,262.729,221.531,260.537,223.723z"/>
		<path style="fill:#ECF0F1;" d="M294.816,229.821c-0.022,2.308,0.885,4.529,2.517,6.161c1.632,1.632,3.853,2.539,6.161,2.517
			c3.825,0.007,7.201-2.498,8.303-6.161c1.102-3.663-0.33-7.615-3.524-9.72c-0.441-0.258-0.958-0.521-1.483-0.78
			c-0.517-0.174-1.034-0.347-1.644-0.521c-2.844-0.494-5.753,0.411-7.814,2.432C295.738,225.369,294.835,227.547,294.816,229.821z"
			/>
		<path style="fill:#ECF0F1;" d="M270.257,254.38c0.018,2.3,0.919,4.506,2.517,6.161c3.422,3.356,8.9,3.356,12.322,0
			c1.601-1.653,2.503-3.86,2.517-6.161c0-4.793-3.885-8.678-8.678-8.678C274.142,245.702,270.257,249.587,270.257,254.38
			L270.257,254.38z"/>
		<path style="fill:#ECF0F1;" d="M328.037,263.079c2.302,0.003,4.51-0.912,6.135-2.543l6.135-6.135
			c2.192-2.192,3.048-5.387,2.246-8.381c-0.802-2.994-3.141-5.333-6.136-6.136s-6.189,0.054-8.381,2.246l-6.135,6.135
			c-2.481,2.482-3.223,6.214-1.88,9.456C321.364,260.963,324.527,263.078,328.037,263.079L328.037,263.079z"/>
		<path style="fill:#ECF0F1;" d="M303.494,266.677l-6.135,6.135c-2.192,2.192-3.048,5.387-2.246,8.381
			c0.802,2.994,3.141,5.333,6.136,6.136c2.994,0.802,6.189-0.054,8.381-2.246l6.135-6.135c2.192-2.192,3.048-5.387,2.246-8.381
			c-0.802-2.994-3.141-5.333-6.136-6.136C308.881,263.628,305.686,264.485,303.494,266.677z"/>
		<path style="fill:#ECF0F1;" d="M337.774,272.778c-0.015,1.156,0.192,2.304,0.61,3.381c0.481,1.024,1.125,1.963,1.907,2.78
			c1.633,1.631,3.853,2.538,6.161,2.517c2.305,0.007,4.52-0.897,6.161-2.517c0.783-0.798,1.402-1.743,1.822-2.78
			c0.437-1.075,0.673-2.221,0.695-3.381c-0.019-2.275-0.921-4.454-2.517-6.076c-3.463-3.254-8.859-3.254-12.322,0
			C338.663,268.302,337.754,270.495,337.774,272.778z"/>
		<path style="fill:#ECF0F1;" d="M329.096,292.562c-0.298-0.497-0.647-0.961-1.042-1.386c-2.483-2.503-6.233-3.256-9.489-1.904
			c-3.256,1.352-5.371,4.539-5.35,8.065c0.014,1.134,0.25,2.254,0.695,3.297c0.399,1.072,1.02,2.048,1.822,2.864
			c0.834,0.8,1.804,1.446,2.864,1.907c1.048,0.42,2.168,0.627,3.297,0.61c2.297-0.034,4.497-0.933,6.161-2.517
			c0.784-0.83,1.403-1.802,1.822-2.864c0.489-1.029,0.727-2.158,0.695-3.297c0.028-0.556-0.029-1.113-0.169-1.653
			c-0.085-0.574-0.262-1.131-0.525-1.648C329.706,293.503,329.441,293.004,329.096,292.562z"/>
		<path style="fill:#ECF0F1;" d="M377.139,278.952c-3.389-3.392-8.886-3.396-12.279-0.009l-6.144,6.135
			c-3.362,3.394-3.35,8.866,0.027,12.245c3.377,3.379,8.849,3.394,12.244,0.035l6.144-6.135
			C380.518,287.835,380.522,282.344,377.139,278.952z"/>
		<path style="fill:#ECF0F1;" d="M352.579,303.494c-1.627-1.628-3.834-2.542-6.136-2.542c-2.301,0-4.509,0.915-6.136,2.542
			l-6.135,6.135c-2.192,2.192-3.048,5.387-2.246,8.381c0.802,2.994,3.141,5.333,6.136,6.136c2.994,0.802,6.189-0.054,8.381-2.246
			l6.135-6.135c1.628-1.627,2.542-3.834,2.542-6.136C355.122,307.328,354.207,305.121,352.579,303.494z"/>
		<path style="fill:#ECF0F1;" d="M389.41,303.499c-0.81-0.831-1.786-1.482-2.864-1.911c-2.684-1.105-5.743-0.794-8.149,0.829
			c-2.407,1.622-3.842,4.341-3.825,7.243c0.014,1.134,0.25,2.254,0.695,3.297c0.42,1.036,1.039,1.979,1.822,2.775
			c1.617,1.666,3.84,2.606,6.161,2.606s4.544-0.94,6.161-2.606c0.782-0.816,1.426-1.753,1.907-2.775
			c0.418-1.048,0.625-2.168,0.61-3.297C391.909,307.359,391.008,305.154,389.41,303.499z"/>
		<path style="fill:#ECF0F1;" d="M366.757,330.833c-0.233-0.522-0.523-1.016-0.864-1.475c-0.248-0.505-0.604-0.949-1.042-1.301
			c-2.502-2.441-6.203-3.189-9.457-1.911c-1.059,0.419-2.009,1.073-2.78,1.911c-0.442,0.372-0.822,0.811-1.127,1.301
			c-0.314,0.461-0.575,0.956-0.78,1.475c-0.251,0.522-0.428,1.077-0.525,1.648c-0.098,0.544-0.155,1.096-0.17,1.649
			c0.013,1.163,0.249,2.312,0.695,3.386c0.419,1.056,1.071,2.005,1.907,2.776c0.795,0.81,1.738,1.459,2.78,1.911
			c1.043,0.445,2.163,0.681,3.297,0.695c3.508-0.069,6.657-2.169,8.068-5.381c0.419-1.079,0.626-2.228,0.61-3.386
			c0.029-0.556-0.031-1.112-0.178-1.649C367.089,331.922,366.945,331.37,366.757,330.833z"/>
		<path style="fill:#ECF0F1;" d="M193.037,238.537c2.302,0.003,4.51-0.912,6.135-2.543l6.135-6.14
			c2.221-2.186,3.098-5.395,2.3-8.407c-0.799-3.012-3.151-5.365-6.163-6.163c-3.012-0.799-6.221,0.079-8.407,2.3l-6.135,6.14
			c-2.483,2.481-3.227,6.214-1.883,9.457C186.362,236.424,189.527,238.538,193.037,238.537L193.037,238.537z"/>
		<path style="fill:#ECF0F1;" d="M205.35,242.143c-2.549,2.446-3.309,6.219-1.907,9.462c0.417,1.057,1.069,2.006,1.907,2.775
			c0.372,0.44,0.809,0.82,1.297,1.127c0.441,0.263,0.958,0.521,1.483,0.784c0.517,0.174,1.034,0.343,1.644,0.517
			c0.548,0.074,1.1,0.104,1.653,0.089c1.155,0.009,2.302-0.196,3.381-0.606c1.058-0.421,2.008-1.074,2.78-1.911
			c0.808-0.794,1.455-1.736,1.907-2.775c0.411-1.052,0.618-2.172,0.61-3.301c0.037-2.311-0.872-4.537-2.517-6.161
			c-0.795-0.809-1.739-1.457-2.78-1.907c-1.604-0.607-3.339-0.787-5.034-0.521c-0.61,0.174-1.127,0.347-1.644,0.521
			c-0.525,0.259-1.042,0.521-1.483,0.78C206.16,241.323,205.723,241.703,205.35,242.143z"/>
		<path style="fill:#ECF0F1;" d="M242.13,254.401c-1.627-1.628-3.834-2.542-6.136-2.542s-4.509,0.915-6.136,2.542l-6.135,6.135
			c-3.389,3.389-3.389,8.883,0,12.271c3.389,3.389,8.883,3.389,12.271,0l6.135-6.135c1.628-1.627,2.542-3.834,2.542-6.136
			C244.672,258.235,243.758,256.028,242.13,254.401z"/>
		<path style="fill:#ECF0F1;" d="M248.308,293.778c2.288-0.026,4.472-0.962,6.068-2.602c0.446-0.372,0.829-0.812,1.136-1.305
			c0.254-0.432,0.517-0.953,0.78-1.475c0.169-0.521,0.347-1.042,0.517-1.649c0.101-0.544,0.161-1.095,0.178-1.648
			c-0.026-2.317-0.964-4.531-2.61-6.161c-3.444-3.212-8.785-3.212-12.229,0c-0.86,0.787-1.517,1.769-1.915,2.864
			c-0.445,1.043-0.681,2.163-0.695,3.297c0.011,2.295,0.953,4.488,2.61,6.076C243.769,292.834,245.989,293.771,248.308,293.778z"/>
		<path style="fill:#ECF0F1;" d="M272.808,318.308c2.302,0.003,4.51-0.912,6.135-2.543l6.135-6.14
			c2.228-2.185,3.111-5.397,2.313-8.414c-0.798-3.017-3.154-5.372-6.17-6.17c-3.016-0.798-6.229,0.085-8.414,2.313l-6.135,6.14
			c-2.483,2.481-3.227,6.214-1.883,9.457C266.133,316.195,269.298,318.309,272.808,318.308z"/>
		<path style="fill:#ECF0F1;" d="M285.096,334.219c3.389,3.356,8.848,3.356,12.237,0c0.791-0.843,1.438-1.811,1.915-2.864
			c0.915-2.104,0.915-4.494,0-6.597c-0.435-1.076-1.087-2.051-1.915-2.864c-0.394-0.392-0.828-0.74-1.297-1.038
			c-0.461-0.339-0.955-0.63-1.475-0.869c-0.54-0.184-1.092-0.33-1.653-0.436c-2.833-0.581-5.768,0.299-7.814,2.343
			c-0.828,0.811-1.478,1.787-1.907,2.864c-0.814,2.124-0.814,4.474,0,6.597C283.66,332.409,284.305,333.377,285.096,334.219z"/>
		<path style="fill:#ECF0F1;" d="M321.901,334.172c-1.627-1.628-3.834-2.542-6.136-2.542c-2.301,0-4.509,0.915-6.136,2.542
			l-6.135,6.135c-2.192,2.192-3.048,5.387-2.246,8.381c0.802,2.994,3.141,5.333,6.136,6.136c2.994,0.802,6.189-0.054,8.381-2.246
			l6.135-6.135c1.628-1.627,2.542-3.834,2.542-6.136C324.444,338.006,323.529,335.799,321.901,334.172z"/>
		<path style="fill:#ECF0F1;" d="M332.825,357.647c-0.442-0.345-0.941-0.609-1.475-0.78c-0.515-0.266-1.07-0.442-1.644-0.521
			c-1.115-0.258-2.275-0.258-3.39,0c-0.543,0.094-1.069,0.27-1.559,0.521c-0.56,0.17-1.087,0.434-1.559,0.78
			c-0.455,0.321-0.891,0.669-1.305,1.042c-3.356,3.422-3.356,8.9,0,12.322c0.414,0.373,0.85,0.721,1.305,1.042
			c0.472,0.346,0.999,0.61,1.559,0.78c0.49,0.252,1.016,0.427,1.559,0.521c0.574,0.101,1.155,0.159,1.737,0.174
			c0.555-0.014,1.107-0.072,1.653-0.174c0.574-0.079,1.129-0.256,1.644-0.521c0.534-0.171,1.033-0.435,1.475-0.78
			c0.488-0.276,0.928-0.628,1.305-1.042c1.663-1.618,2.602-3.84,2.602-6.161s-0.938-4.543-2.602-6.161
			C333.753,358.275,333.313,357.923,332.825,357.647z"/>
		<path style="fill:#ECF0F1;" d="M180.766,242.13c-1.627-1.628-3.834-2.542-6.136-2.542s-4.509,0.915-6.136,2.542l-6.135,6.135
			c-3.389,3.389-3.389,8.883,0,12.271c3.389,3.389,8.883,3.389,12.271,0l6.135-6.135c1.628-1.627,2.542-3.834,2.542-6.136
			C183.308,245.964,182.393,243.757,180.766,242.13z"/>
		<path style="fill:#ECF0F1;" d="M180.791,266.702c-1.655,1.589-2.594,3.782-2.602,6.076c0.006,2.319,0.944,4.539,2.602,6.161
			c1.599,1.63,3.793,2.539,6.076,2.517c2.308,0.022,4.529-0.885,6.161-2.517c1.632-1.632,2.539-3.853,2.517-6.161
			c0.02-2.283-0.888-4.476-2.517-6.076C189.616,263.405,184.204,263.405,180.791,266.702z"/>
		<path style="fill:#ECF0F1;" d="M217.596,278.952c-3.389-3.392-8.886-3.396-12.279-0.009l-6.144,6.135
			c-3.358,3.394-3.344,8.863,0.031,12.24c3.375,3.377,8.844,3.395,12.24,0.039l6.144-6.135
			C220.975,287.835,220.979,282.344,217.596,278.952z"/>
		<path style="fill:#ECF0F1;" d="M227.045,301.588c-2.144-0.869-4.542-0.869-6.686,0c-0.517,0.263-1.034,0.521-1.475,0.78
			c-0.454,0.352-0.887,0.729-1.297,1.131c-1.692,1.592-2.61,3.84-2.517,6.161c-0.024,2.283,0.885,4.476,2.517,6.072
			c0.41,0.402,0.843,0.78,1.297,1.131c0.464,0.308,0.958,0.569,1.475,0.78c1.075,0.445,2.226,0.681,3.39,0.695
			c1.134-0.014,2.254-0.25,3.297-0.695c1.058-0.421,2.007-1.074,2.78-1.911c1.652-1.589,2.59-3.78,2.602-6.072
			c-0.01-2.319-0.947-4.537-2.602-6.161C229.029,302.69,228.085,302.041,227.045,301.588z"/>
		<path style="fill:#ECF0F1;" d="M260.537,321.901c-1.627-1.628-3.834-2.542-6.136-2.542c-2.301,0-4.509,0.915-6.136,2.542
			l-6.135,6.135c-2.192,2.192-3.048,5.387-2.246,8.381c0.802,2.994,3.141,5.333,6.136,6.136s6.189-0.054,8.381-2.246l6.135-6.135
			c1.628-1.627,2.542-3.834,2.542-6.136C263.079,325.735,262.165,323.528,260.537,321.901z"/>
		<path style="fill:#ECF0F1;" d="M274.689,349.232c-0.263-0.521-0.525-0.958-0.788-1.479c-0.347-0.457-0.724-0.892-1.127-1.301
			c-3.445-3.208-8.784-3.208-12.229,0c-1.66,1.621-2.601,3.841-2.61,6.161c0.011,2.295,0.952,4.488,2.61,6.076
			c1.622,1.658,3.842,2.595,6.161,2.602c4.742-0.12,8.557-3.936,8.678-8.678c-0.017-0.581-0.077-1.16-0.178-1.733
			C275.073,350.319,274.9,349.768,274.689,349.232z"/>
		<path style="fill:#ECF0F1;" d="M297.367,358.723c-3.389-3.392-8.886-3.396-12.279-0.009l-6.144,6.135
			c-3.358,3.394-3.344,8.863,0.031,12.24c3.375,3.377,8.844,3.395,12.24,0.039l6.144-6.135
			C300.747,367.606,300.75,362.115,297.367,358.723z"/>
		<path style="fill:#ECF0F1;" d="M297.333,383.249c-1.598,1.655-2.499,3.861-2.517,6.161c0.024,4.139,2.967,7.684,7.03,8.47
			c4.063,0.786,8.116-1.407,9.681-5.239c1.565-3.831,0.206-8.235-3.245-10.518C304.832,379.839,300.248,380.31,297.333,383.249z"/>
	</g>
</g>
<g>
</g>
<g>
</g>
<g>
</g>
<g>
</g>
<g>
</g>
<g>
</g>
<g>
</g>
<g>
</g>
<g>
</g>
<g>
</g>
<g>
</g>
<g>
</g>
<g>
</g>
<g>
</g>
<g>
</g>
</svg>
