<svg height="512" viewBox="0 0 512 512" width="512" xmlns="http://www.w3.org/2000/svg"><g id="flat"><path d="m394.799 64-32 16h-10.799v-56h42.799z" fill="#878787"/><path d="m429.24 295.53v2.03c0 1.22-.02 2.45-.05 3.67a195.482 195.482 0 0 1 -3.9 34.9q-1.725 8.415-4.16 16.64a198.019 198.019 0 0 1 -40.77 73.99l-25.56 29.24h-112l-25.56-29.24a197.543 197.543 0 0 1 -40.77-73.99q-2.445-8.22-4.16-16.64a195.482 195.482 0 0 1 -3.9-34.9c-.03-1.22-.05-2.45-.05-3.67v-2.03q.015-5.2.25-10.39a242.849 242.849 0 0 1 6.11-44.27q1.815-7.815 4.14-15.5a247.378 247.378 0 0 1 12.13-31.92q3.42-7.425 7.32-14.61a251.275 251.275 0 0 1 36.49-50.84h128a251.18 251.18 0 0 1 36.48 50.85q3.915 7.185 7.32 14.61 2.76 5.985 5.2 12.1 3.885 9.765 6.93 19.82 2.34 7.665 4.15 15.49a243.724 243.724 0 0 1 6.11 44.27q.24 5.19.25 10.39z" fill="#6b9777"/><path d="m234.8 56h96v72h-96z" fill="#ebebeb"/><path d="m243.304 456h111.495v32h-111.495z" fill="#5e8569"/><path d="m428.99 285.14-34.12 4.02a266.787 266.787 0 0 0 -4-42.99q15.09-2.13 30.15-4.95l1.86-.35q-1.815-7.815-4.15-15.49l-.66.12q-15.21 2.85-30.46 4.97a271.163 271.163 0 0 0 -9.19-30.48q14.16-2.775 28.18-6.53-3.405-7.425-7.32-14.61a399.276 399.276 0 0 1 -200.97-.01q-3.9 7.185-7.32 14.61 14.01 3.78 28.19 6.54a271.63 271.63 0 0 0 -9.19 30.47q-15.255-2.115-30.46-4.96l-.67-.13q-2.325 7.68-4.14 15.5l1.86.35q15.06 2.835 30.15 4.95a265.656 265.656 0 0 0 -4 42.99l-34.12-4.02q-.24 5.19-.25 10.39v2.03c0 1.22.02 2.45.05 3.67l34.64 4.08a267.4 267.4 0 0 0 4.1 35.17l-34.84-4.35q1.725 8.415 4.16 16.64l34.3 4.29a271 271 0 0 0 8.12 26.49q-16.38-2.025-32.72-4.87a197.785 197.785 0 0 0 9.23 17.75 670.289 670.289 0 0 0 103.4 8.04 670.289 670.289 0 0 0 103.4-8.04 197.785 197.785 0 0 0 9.23-17.75q-16.335 2.85-32.73 4.87a268.351 268.351 0 0 0 8.13-26.49l34.3-4.29q2.445-8.22 4.16-16.64l-34.84 4.35a265.7 265.7 0 0 0 4.09-35.17l34.65-4.08c.03-1.22.05-2.45.05-3.67v-2.03q-.015-5.205-.25-10.39zm-66.6-82.35a255.1 255.1 0 0 1 9.25 29.69q-17.07 1.95-34.17 2.98-2.025-8.6-4.61-17.05l-3.64-11.84q16.635-1.215 33.17-3.78zm-82.36 20.32 4.82-15.65q6.975.24 13.95.24t13.95-.24l4.82 15.65q1.995 6.51 3.63 13.13-22.4.78-44.8 0c1.09-4.41 2.29-8.79 3.63-13.13zm-44.82-20.32q16.515 2.565 33.17 3.78l-3.64 11.84q-2.61 8.445-4.62 17.05-17.085-1.035-34.16-2.98a255.1 255.1 0 0 1 9.25-29.69zm-16.48 88.25a250.8 250.8 0 0 1 3.88-42.83q17.13 1.98 34.29 3.07a269.647 269.647 0 0 0 -3.89 43.09q-14.94-1.065-29.83-2.8zm.44 16.17 2.14.25q15.975 1.875 32.02 2.96a269.287 269.287 0 0 0 4.05 35.14q-16.8-1.065-33.53-3.03a251.608 251.608 0 0 1 -4.68-35.32zm17.61 78.3a257.3 257.3 0 0 1 -8.93-26.42q16.485 1.77 33.02 2.71a263.973 263.973 0 0 0 7.86 25.98q-15.975-.735-31.95-2.27zm76.77-2.4-1.9 5.23q-12.855.255-25.7 0l-1.9-5.23q-3.69-10.14-6.46-20.56 10.605.345 21.21.35t21.21-.35q-2.79 10.41-6.46 20.56zm10.22-36.71q-24.96.96-49.94 0a253.793 253.793 0 0 1 -4.43-35.06q14.685.66 29.4.65t29.4-.65a253.793 253.793 0 0 1 -4.43 35.06zm-54.77-51.1a253.445 253.445 0 0 1 3.99-43.19q12.9.51 25.81.52t25.8-.52a253.456 253.456 0 0 1 4 43.19q-29.775 1.365-59.6 0zm91.82 90.21q-15.96 1.515-31.95 2.27a263.973 263.973 0 0 0 7.86-25.98q16.53-.945 33.01-2.71a254.842 254.842 0 0 1 -8.92 26.42zm12.93-42.98q-16.725 1.95-33.54 3.03a269.3 269.3 0 0 0 4.06-35.14q16.035-1.1 32.02-2.96l2.14-.25a251.608 251.608 0 0 1 -4.68 35.32zm.67-50.96q-14.88 1.74-29.83 2.8a269.647 269.647 0 0 0 -3.89-43.09q17.16-1.095 34.28-3.07a249.808 249.808 0 0 1 3.89 42.83z" fill="#5e8569"/><path d="m330.8 56v8h-74.8v40l-21.2 21.2v-69.2z" fill="#dbdbdb"/><g fill="#55785f"><path d="m242.799 152h16v16h-16z"/><path d="m338.799 152h16v16h-16z"/><path d="m242.799 416h16v16h-16z"/><path d="m338.799 416h16v16h-16z"/></g><path d="m330.799 56h32v72h-32z" fill="#cbcbcb"/><path d="m330.799 56h32v8h-32z" fill="#c3c3c3"/><path d="m210.8 24-46.035 71.608a533.72 533.72 0 0 0 -82.921 332.931 12.5 12.5 0 0 0 12.456 11.461 12.5 12.5 0 0 0 12.5-12.5v-5.889a533.713 533.713 0 0 1 85.623-289.939l2.377-3.672h24l32-32v-40h112v-32z" fill="#5e8569"/><path d="m202.799 80h16v16h-16z" fill="#55785f"/></g></svg>