<?xml version="1.0"?>
<svg xmlns="http://www.w3.org/2000/svg" id="Flat" height="512" viewBox="0 0 512 512" width="512"><g transform="matrix(-1 0 0 1 512 0)"><path d="m408 104h16v56h-16z" fill="#58646f" data-original="#58646F"/><path d="m40 104h16v48h-16z" fill="#58646f" data-original="#58646F"/><path d="m233.57 263.845-3.14-15.69c15.833-3.169 26.345-14.162 31.247-32.673l15.467 4.1c-6.409 24.2-21.883 39.918-43.574 44.263z" fill="#35505d" data-original="#35505D"/><path d="m336 288h-121.868a34.6 34.6 0 0 1 -34.332-38.892l5.714-45.709 15.877 1.985-5.714 45.709a18.6 18.6 0 0 0 18.455 20.907h121.868z" fill="#35505d" data-original="#35505D"/><path d="m368 416-68.791-171.977a44.579 44.579 0 0 0 -41.391-28.023h-209.818a24 24 0 0 1 -24-24v-64h432v56l-18.672 9.336a44.71 44.71 0 0 0 -19.992 19.992 44.7 44.7 0 0 0 -1.012 37.817l62.554 143.874a15 15 0 0 1 -13.756 20.981z" fill="#58646f" data-original="#58646F"/><path d="m24 128h432v56h-432z" fill="#35505d" data-original="#35505D"/><g fill="#7a8a9a"><path d="m344 128h16v32h-16z" data-original="#7A8A9A" class="active-path" style="fill:#7A8A9A"/><path d="m376 128h16v32h-16z" data-original="#7A8A9A" class="active-path" style="fill:#7A8A9A"/><path d="m408 128h16v32h-16z" data-original="#7A8A9A" class="active-path" style="fill:#7A8A9A"/><path d="m424 376h16v16h-16z" data-original="#7A8A9A" class="active-path" style="fill:#7A8A9A"/><path d="m312 184h16v24h-16z" data-original="#7A8A9A" class="active-path" style="fill:#7A8A9A"/><path d="m128 184h16v32h-16z" data-original="#7A8A9A" class="active-path" style="fill:#7A8A9A"/></g></g> </svg>
