<svg height="512" viewBox="0 0 64 64" width="512" xmlns="http://www.w3.org/2000/svg"><path d="m53 56h8v4h-8z" fill="#cc7400"/><path d="m61 52v4h-8-17-8-17-8v-4h5 24 24z" fill="#ee8700"/><path d="m32 38h24v14h-24z" fill="#ffb655"/><path d="m47 34h9v4h-9z" fill="#ffa733"/><path d="m32 20h24v14h-24z" fill="#ff9811"/><path d="m47 16h9v4h-9z" fill="#ee8700"/><path d="m47 38v4l-3-2-3 2v-4-4h6z" fill="#e6e7e8"/><path d="m47 20v4l-3-2-3 2v-4-4h6z" fill="#e6e7e8"/><path d="m32 34h9v4h-9z" fill="#ffa733"/><path d="m32 16h9v4h-9z" fill="#ee8700"/><path d="m28 56h8v4h-8z" fill="#cc7400"/><path d="m8 38h24v14h-24z" fill="#ff9811"/><path d="m23 34h9v4h-9z" fill="#ee8700"/><path d="m32 20v14h-9-6-9v-14h9 6z" fill="#ffb655"/><path d="m23 16h9v4h-9z" fill="#ffa733"/><path d="m23 20v4l-3-2-3 2v-4-4h6z" fill="#e6e7e8"/><path d="m8 34h9v4h-9z" fill="#ee8700"/><path d="m8 16h9v4h-9z" fill="#ffa733"/><path d="m3 56h8v4h-8z" fill="#cc7400"/><path d="m23 38v4l-3-2-3 2v-4-4h6z" fill="#e6e7e8"/><g fill="#aa6100"><path d="m3 56h8v2h-8z"/><path d="m28 56h8v2h-8z"/><path d="m53 56h8v2h-8z"/></g></svg>