<?xml version="1.0" encoding="iso-8859-1"?>
<!-- Generator: Adobe Illustrator 19.0.0, SVG Export Plug-In . SVG Version: 6.00 Build 0)  -->
<svg version="1.1" id="Capa_1" xmlns="http://www.w3.org/2000/svg" xmlns:xlink="http://www.w3.org/1999/xlink" x="0px" y="0px"
	 viewBox="0 0 512 512" style="enable-background:new 0 0 512 512;" xml:space="preserve">
<g>
	<path style="fill:#A5A5A4;" d="M512,256c0.035,26.985-4.226,53.803-12.623,79.448c-21.615,0.439-41.428,12.145-52.242,30.866
		c-10.814,18.721-11.055,41.733-0.635,60.676c-36.247,40.475-84.456,68.337-137.622,79.537
		C297.692,488.008,277.635,476.69,256,476.69s-41.693,11.318-52.877,29.837c-53.166-11.2-101.375-39.062-137.622-79.537
		c10.419-18.943,10.178-41.955-0.635-60.676c-10.814-18.721-30.627-30.427-52.242-30.866c-16.831-51.628-16.831-107.268,0-158.897
		c21.615-0.439,41.428-12.145,52.242-30.866s11.055-41.732,0.635-60.676c36.247-40.475,84.456-68.337,137.622-79.537
		C214.296,24.004,234.361,35.326,256,35.31c21.639,0.015,41.703-11.307,52.877-29.837c53.166,11.2,101.375,39.062,137.622,79.537
		c-10.419,18.943-10.178,41.955,0.635,60.676s30.627,30.427,52.242,30.866C507.774,202.197,512.035,229.015,512,256z"/>
	<circle style="fill:#E4C05C;" cx="414.896" cy="256" r="52.966"/>
	<circle style="fill:#F9EAB0;" cx="414.896" cy="256" r="17.655"/>
	<circle style="fill:#E4C05C;" cx="335.448" cy="118.396" r="52.966"/>
	<circle style="fill:#F9EAB0;" cx="335.448" cy="118.396" r="17.655"/>
	<circle style="fill:#E4C05C;" cx="176.552" cy="118.396" r="52.966"/>
	<circle style="fill:#F9EAB0;" cx="176.552" cy="118.396" r="17.655"/>
	<circle style="fill:#E4C05C;" cx="97.103" cy="256" r="52.966"/>
	<circle style="fill:#F9EAB0;" cx="97.103" cy="256" r="17.655"/>
	<circle style="fill:#E4C05C;" cx="176.552" cy="393.604" r="52.966"/>
	<circle style="fill:#F9EAB0;" cx="176.552" cy="393.604" r="17.655"/>
	<circle style="fill:#E4C05C;" cx="335.448" cy="393.604" r="52.966"/>
	<circle style="fill:#F9EAB0;" cx="335.448" cy="393.604" r="17.655"/>
	<circle style="fill:#5E5F62;" cx="256" cy="256" r="35.31"/>
</g>
<g>
</g>
<g>
</g>
<g>
</g>
<g>
</g>
<g>
</g>
<g>
</g>
<g>
</g>
<g>
</g>
<g>
</g>
<g>
</g>
<g>
</g>
<g>
</g>
<g>
</g>
<g>
</g>
<g>
</g>
</svg>
