<?xml version="1.0" encoding="iso-8859-1"?>
<!-- Generator: Adobe Illustrator 19.0.0, SVG Export Plug-In . SVG Version: 6.00 Build 0)  -->
<svg version="1.1" id="Layer_1" xmlns="http://www.w3.org/2000/svg" xmlns:xlink="http://www.w3.org/1999/xlink" x="0px" y="0px"
	 viewBox="0 0 512 512" style="enable-background:new 0 0 512 512;" xml:space="preserve">
<path style="fill:#333333;" d="M471.284,17.718L456.511,2.945c-3.927-3.927-10.295-3.927-14.222,0
	c-3.927,3.927-3.927,10.295,0,14.222l14.773,14.773c1.964,1.964,4.537,2.945,7.111,2.945s5.148-0.982,7.111-2.946
	C475.212,28.013,475.212,21.646,471.284,17.718z"/>
<path style="fill:#B6C7BF;" d="M493.91,9.315c-5.891-5.892-15.442-5.892-21.333,0l-47.86,47.86c-5.891,5.891-5.891,15.442,0,21.333
	c2.945,2.946,6.806,4.418,10.666,4.418s7.721-1.473,10.666-4.418l47.86-47.86C499.801,24.757,499.801,15.206,493.91,9.315z"/>
<g>
	
		<rect x="290.242" y="161.25" transform="matrix(-0.7071 0.7071 -0.7071 -0.7071 658.1987 100.2244)" style="fill:#D8E6E0;" width="36.2" height="50.36"/>
	
		<rect x="134.009" y="332.266" transform="matrix(0.7071 0.7071 -0.7071 0.7071 291.4063 -12.1678)" style="fill:#D8E6E0;" width="52.763" height="26.817"/>
</g>
<path style="fill:#B6C7BF;" d="M253.845,197.458l-18.173-18.173c-8.719-8.72-22.502-9.421-32.061-1.632l-61.547,50.143
	c-5.243,4.272-8.447,10.595-8.791,17.349c-0.344,6.754,2.201,13.37,6.984,18.152l24.478,24.478
	c2.945,2.946,6.806,4.418,10.666,4.418c3.861,0,7.721-1.473,10.666-4.418c5.891-5.891,5.891-15.442,0-21.333l-19.607-19.607
	l51.851-42.244l14.2,14.2c5.891,5.892,15.442,5.892,21.333,0C259.736,212.899,259.736,203.349,253.845,197.458z"/>
<g>
	<path style="fill:#707070;" d="M429.811,277.084c-3.199-4.183-8.346-6.397-13.585-5.836
		c-41.311,4.411-82.354-11.574-109.795-42.768c-3.478-3.954-8.767-5.806-13.952-4.891c-5.186,0.917-9.518,4.472-11.43,9.379
		l-17.188,44.126c-2.046,5.252-0.993,11.207,2.73,15.438c30.184,34.313,73.689,53.733,118.889,53.733
		c5.568,0,11.164-0.295,16.762-0.893c5.605-0.599,10.408-4.272,12.454-9.524l17.188-44.126
		C433.796,286.816,433.01,281.267,429.811,277.084z"/>
	<path style="fill:#707070;" d="M328.925,217.433l-39.122-39.123c-2.829-2.829-6.665-4.418-10.666-4.418s-7.838,1.59-10.666,4.418
		L144.985,301.795c-2.829,2.829-4.418,6.666-4.418,10.666c0,4.001,1.589,7.838,4.418,10.667l44.396,44.395l25.241,75.197
		c2.106,6.275,7.963,10.287,14.294,10.287c1.312,0,2.644-0.172,3.967-0.532l65.114-17.718c5.807-1.58,10.119-6.461,10.972-12.418
		c0.853-5.957-1.917-11.852-7.048-14.997l-6.252-3.834l-19.464-71.532l49.767-42.236c10.45-8.869,16.765-21.811,17.324-35.506
		C343.855,240.538,338.617,227.125,328.925,217.433z"/>
	<path style="fill:#707070;" d="M175.956,370.872l-39.296-39.296c-5.891-5.891-15.442-5.891-21.333,0L18.09,428.813
		c-2.829,2.829-4.418,6.665-4.418,10.666s1.59,7.838,4.418,10.666l57.436,57.436C78.367,510.424,82.21,512,86.191,512
		c0.462,0,0.926-0.021,1.39-0.064c4.466-0.413,8.517-2.792,11.053-6.491l79.097-115.377
		C181.838,384.077,181.092,376.008,175.956,370.872z"/>
	<path style="fill:#707070;" d="M460.034,73.227l-15.798-15.798l-16.715-16.715c-5.891-5.892-15.442-5.892-21.333,0L298.57,148.333
		c-5.891,5.891-5.891,15.442,0,21.333l17.494,17.495l28.517,28.517c2.837,2.838,6.678,4.418,10.665,4.418
		c0.313,0,0.627-0.01,0.941-0.029c4.32-0.27,8.315-2.382,10.971-5.799l94.12-121.118C465.945,87.144,465.412,78.604,460.034,73.227z
		"/>
</g>
<g>
	<path style="fill:#333333;" d="M308.969,422.339c0.853-5.957-1.917-11.852-7.048-14.997l-6.252-3.833l-19.464-71.532l49.766-42.237
		c10.451-8.869,16.765-21.811,17.324-35.506c0.56-13.695-4.678-27.108-14.37-36.8l-21.898-21.898L162.21,340.353l27.171,27.171
		l25.241,75.197c2.106,6.275,7.963,10.287,14.294,10.287c1.312,0,2.644-0.172,3.967-0.532l65.114-17.718
		C303.804,433.177,308.117,428.296,308.969,422.339z"/>
	<path style="fill:#333333;" d="M98.634,505.444l79.097-115.377c4.107-5.991,3.361-14.059-1.776-19.196l-22.132-22.132
		L35.254,467.31l40.272,40.272C78.368,510.424,82.21,512,86.191,512c0.462,0,0.926-0.021,1.39-0.064
		C92.047,511.523,96.098,509.144,98.634,505.444z"/>
	<path style="fill:#333333;" d="M367.16,214.268L461.28,93.15c4.666-6.005,4.133-14.545-1.245-19.923l-15.349-15.349L315.734,186.83
		l0.331,0.331l28.517,28.518c2.837,2.838,6.678,4.418,10.665,4.419c0.313,0,0.627-0.01,0.941-0.03
		C360.508,219.798,364.504,217.685,367.16,214.268z"/>
</g>
<path style="fill:#FFFFFF;" d="M232.51,301.378c-3.926-3.927-10.294-3.927-14.222,0l-7.727,7.726
	c-3.927,3.927-3.928,10.295,0,14.222c1.964,1.964,4.537,2.946,7.111,2.946s5.147-0.982,7.111-2.945l7.727-7.726
	C236.437,311.672,236.437,305.305,232.51,301.378z"/>
<g>
</g>
<g>
</g>
<g>
</g>
<g>
</g>
<g>
</g>
<g>
</g>
<g>
</g>
<g>
</g>
<g>
</g>
<g>
</g>
<g>
</g>
<g>
</g>
<g>
</g>
<g>
</g>
<g>
</g>
</svg>
