<svg height="464pt" viewBox="0 -148 464 464" width="464pt" xmlns="http://www.w3.org/2000/svg"><path d="m224.238281 41.945312-6.484375-25.945312h-59.507812l-6.484375 25.945312-15.523438-3.890624 8-32c.894531-3.558594 4.09375-6.054688 7.761719-6.054688h72c3.667969 0 6.867188 2.496094 7.761719 6.054688l8 32zm0 0" fill="#787d82"/><path d="m200 128c-3.136719 0-5.980469-1.832031-7.28125-4.6875-2.105469-4.589844-3.195312-9.578125-3.199219-14.625v-12.6875c0-4.417969 3.582031-8 8-8s8 3.582031 8 8v12.6875c-.003906 2.761719.589844 5.488281 1.738281 8 1.121094 2.472656.914063 5.347656-.550781 7.632812-1.464843 2.285157-3.992187 3.671876-6.707031 3.679688zm0 0" fill="#6f7478"/><path d="m120 88-48 8-32 24h-40v-80h136l-8 48zm0 0" fill="#6f7478"/><path d="m72 88 48-8h8l6.664062-40h-134.664062v72h40zm0 0" fill="#62666a"/><path d="m256 96h-120l-16-8v-48l16-8h104l16 8zm0 0" fill="#62666a"/><path d="m320 40h144v32h-144zm0 0" fill="#787d82"/><path d="m248 40h80v48h-80zm0 0" fill="#62666a"/><path d="m120 64v24l16 8-20.488281 61.472656c-.8125 2.4375-.402344 5.117188 1.097656 7.203125 1.503906 2.085938 3.917969 3.324219 6.488281 3.324219h28.902344l24-72h80v-32zm0 0" fill="#787d82"/><path d="m272 160h-32l-1.6875-3.375c-9.414062-18.824219-14.316406-39.578125-14.3125-60.625h32c-.003906 21.046875 4.898438 41.800781 14.3125 60.625zm0 0" fill="#b9b9b9"/><path d="m256 96h-24c0 21.046875 4.898438 41.800781 14.3125 60.625l1.6875 3.375h24l-1.6875-3.375c-9.414062-18.824219-14.3125-39.578125-14.3125-60.625zm0 0" fill="#8e9499"/><path d="m376 40v-32h-24l-16 32zm0 0" fill="#62666a"/><path d="m272 40h8v48h-8zm0 0" fill="#6f7478"/><path d="m304 40h8v48h-8zm0 0" fill="#6f7478"/><path d="m432 40h32v32h-32zm0 0" fill="#62666a"/><path d="m208 64h48v32h-48zm0 0" fill="#969ca2"/><path d="m392 40h16v32h-16zm0 0" fill="#62666a"/><path d="m137.753906 32h16.492188l2-8h-16.492188zm0 0" fill="#565a5d"/><path d="m236.246094 24h-16.492188l2 8h16.492188zm0 0" fill="#565a5d"/><path d="m130.664062 112h40l5.335938-16h-40zm0 0" fill="#6f7478"/><path d="m256.960938 112c-.636719-5.308594-.957032-10.652344-.960938-16h-24c.003906 5.347656.324219 10.691406.960938 16zm0 0" fill="#898e93"/><path d="m232.960938 112c-.636719-5.308594-.957032-10.652344-.960938-16h-8c.003906 5.347656.324219 10.691406.960938 16zm0 0" fill="#aeaeae"/><path d="m340 32-4 8h40v-8zm0 0" fill="#565a5d"/><path d="m328 40h8v32h-8zm0 0" fill="#6d7276"/></svg>