<svg height="464pt" viewBox="-104 0 464 464" width="464pt" xmlns="http://www.w3.org/2000/svg"><path d="m16 0h224c8.835938 0 16 7.164062 16 16v432c0 8.835938-7.164062 16-16 16h-224c-8.835938 0-16-7.164062-16-16v-432c0-8.835938 7.164062-16 16-16zm0 0" fill="#b9b9b9"/><path d="m64 48h128c8.835938 0 16 7.164062 16 16v64c0 8.835938-7.164062 16-16 16h-128c-8.835938 0-16-7.164062-16-16v-64c0-8.835938 7.164062-16 16-16zm0 0" fill="#9c9c9c"/><path d="m0 192h256v80h-256zm0 0" fill="#ebebeb"/><path d="m80 312h16v16h-16zm0 0" fill="#787d82"/><path d="m160 312h16v16h-16zm0 0" fill="#787d82"/><path d="m80 360h16v16h-16zm0 0" fill="#787d82"/><path d="m160 360h16v16h-16zm0 0" fill="#787d82"/><g fill="#5d9aa4"><path d="m40 248h-16v-24c0-4.417969 3.582031-8 8-8h16v16h-8zm0 0"/><path d="m64 216h16v32h-16zm0 0"/><path d="m128 248h-24c-4.417969 0-8-3.582031-8-8v-24h16v16h16zm0 0"/><path d="m144 224h16v24h-16zm0 0"/><path d="m200 248h-16c-4.417969 0-8-3.582031-8-8v-24h16v16h8zm0 0"/><path d="m216 216h16v32h-16zm0 0"/></g><path d="m56 440h-24c-4.417969 0-8-3.582031-8-8v-24h16v16h16zm0 0" fill="#d9d9d9"/><path d="m72 424h16v16h-16zm0 0" fill="#d9d9d9"/><path d="m80 80h96v32h-96zm0 0" fill="#8aced8"/><path d="m131.3125 80h-22.625l-28.6875 28.6875v3.3125h19.3125zm0 0" fill="#b3e4e8"/><path d="m124.6875 112h22.625l28.6875-28.6875v-3.3125h-19.3125zm0 0" fill="#b3e4e8"/></svg>