<?xml version="1.0"?>
<svg xmlns="http://www.w3.org/2000/svg" id="Layer_3" enable-background="new 0 0 64 64" height="512px" viewBox="0 0 64 64" width="512px"><g transform="matrix(-1 0 0 1 64 0)"><path d="m34 37h9v2h-9z" fill="#8892a0" data-original="#8892A0"/><path d="m7 28h-5v4h5" fill="#8892a0" data-original="#8892A0"/><path d="m43 27v-6l-2-2h-4v2h-23l-2 3v3" fill="#4d5d7a" data-original="#4D5D7A"/><path d="m50 26h-2c-1.105 0-2-.895-2-2h-15v2h-18v-2h-5l-2 5v5h9l2-2h8l3 3h2v.122c0 2.537-.69 5.027-1.995 7.203l-1.005 1.675 5 2 1.101-1.927c1.9-3.325 2.899-7.087 2.899-10.915v-.158l4 1 3 6-1 4 5-4-3-6v-3h6" fill="#4472b2" data-original="#4472B2" class="active-path" style="fill:#4472B2"/><g fill="#8892a0"><path d="m50 31 7.215 2.886c1.682.673 2.785 2.302 2.785 4.114v-6l2-3v-3h-12" data-original="#8892A0"/><path d="m35 24h9v4h-9z" data-original="#8892A0"/><path d="m14 18h2v3h-2z" data-original="#8892A0"/></g><path d="m44 24h2v7h-2z" fill="#4d5d7a" data-original="#4D5D7A"/><path d="m10.414 34 8-8h-2.828l-8 8z" fill="#8892a0" data-original="#8892A0"/><path d="m21.586 26-8 8h1.414l2-2h1.414l6-6z" fill="#8892a0" data-original="#8892A0"/><path d="m27.586 26-6 6h2.828l6-6z" fill="#8892a0" data-original="#8892A0"/></g> </svg>
