<?xml version="1.0" encoding="iso-8859-1"?>
<!-- Generator: Adobe Illustrator 19.0.0, SVG Export Plug-In . SVG Version: 6.00 Build 0)  -->
<svg version="1.1" id="Capa_1" xmlns="http://www.w3.org/2000/svg" xmlns:xlink="http://www.w3.org/1999/xlink" x="0px" y="0px"
	 viewBox="0 0 512 512" style="enable-background:new 0 0 512 512;" xml:space="preserve">
<path style="fill:#404A54;" d="M481.498,241c-3.562-54.72-26.562-105.676-65.692-144.806S325.72,34.064,271,30.502V0h-15
	l-10.008,256L256,512h15v-30.502c54.72-3.562,105.676-26.562,144.806-65.692c39.131-39.13,62.13-90.086,65.692-144.806H512v-30
	L481.498,241L481.498,241z M394.593,394.593c-33.461,33.461-76.891,53.33-123.593,56.841v-35.318h30.036v-30H271v-30.048h30.036v-30
	H271V271h55.068v30.036h30V271h30.048v30.036h30V271h35.318C447.923,317.701,428.054,361.131,394.593,394.593z M416.116,241v-30.036
	h-30V241h-30.048v-30.036h-30V241H271v-55.068h30.036v-30H271v-30.048h30.036v-30H271V60.566
	c46.701,3.511,90.131,23.38,123.593,56.841s53.33,76.891,56.841,123.593H416.116z"/>
<path style="fill:#788B9E;" d="M241,0v30.502c-54.72,3.562-105.676,26.562-144.806,65.692S34.064,186.28,30.502,241H0v30h30.502
	c3.562,54.72,26.562,105.676,65.692,144.806c39.13,39.131,90.086,62.13,144.806,65.692V512h15V0H241z M241,326.068h-30.036v30H241
	v30.048h-30.036v30H241v35.318c-46.701-3.511-90.131-23.38-123.593-56.841S64.077,317.701,60.566,271h35.318v30.036h30V271h30.048
	v30.036h30V271H241V326.068z M241,95.884h-30.036v30H241v30.048h-30.036v30H241V241h-55.068v-30.036h-30V241h-30.048v-30.036h-30
	V241H60.566c3.511-46.701,23.38-90.131,56.841-123.593S194.299,64.077,241,60.566V95.884z"/>
<g>
</g>
<g>
</g>
<g>
</g>
<g>
</g>
<g>
</g>
<g>
</g>
<g>
</g>
<g>
</g>
<g>
</g>
<g>
</g>
<g>
</g>
<g>
</g>
<g>
</g>
<g>
</g>
<g>
</g>
</svg>
