<?xml version="1.0"?>
<svg xmlns="http://www.w3.org/2000/svg" height="512px" viewBox="0 0 512 512" width="512px" class=""><g transform="matrix(-1 0 0 1 512 0)"><g id="flat"><path d="m312 152 16-24h88v24l-48 8z" fill="#878787" data-original="#878787" class=""/><path d="m24 152h40v41.969h-40z" fill="#878787" data-original="#878787" class=""/><path d="m24 176h40v17.969h-40z" fill="#787d82" data-original="#787D82"/><path d="m352 304h-48a66.6 66.6 0 0 0 -12.6-57.757l-16.864-21.121h64.616l18.97 78.878z" fill="#747474" data-original="#747474" class=""/><path d="m361.878 304h-48a66.6 66.6 0 0 0 -12.606-57.757l-16.864-21.121h64.617l18.975 78.878z" fill="#878787" data-original="#878787" class=""/><path d="m357 312h-72.2a40.035 40.035 0 0 1 -36.553-23.755l-23.554-53-3.915-8.963 14.663-6.4 3.894 8.916 23.533 52.949a24.023 24.023 0 0 0 21.932 14.253h72.2z" fill="#b9b9b9" data-original="#B9B9B9"/><path d="m440 200 2.951 1.967a51.724 51.724 0 0 0 45.049 6.033v24l-40 32-16-32z" fill="#878787" data-original="#878787" class=""/><path d="m104 152-24 8-16-8v-32h32z" fill="#b9b9b9" data-original="#B9B9B9"/><path d="m440 200v32h-372a12 12 0 0 1 -12-12v-68h368l13.33 40z" fill="#cbcbcb" data-original="#CBCBCB" class=""/><path d="m160 232v-32l-40-16h-64v36a12 12 0 0 0 12 12z" fill="#b2b2b2" data-original="#B2B2B2" class=""/><path d="m351.59 197.47-15.18 5.06-16.85-50.53h16.87z" fill="#a8a8a8" data-original="#A8A8A8"/><path d="m481.135 396.542-41.135-164.542v-24h-288v24h176l56.45 183.462a29.346 29.346 0 0 0 32.874 20.317l42.758-7.126a26.128 26.128 0 0 0 21.053-32.111z" fill="#b9b9b9" data-original="#B9B9B9"/><path d="m480 392-32-128-56-32h-32l45.491 166.8a10 10 0 0 0 11.817 7.131z" fill="#d1763e" data-original="#D1763E" class="" data-old_color="#d1763e" style="fill:#1F1007"/><path d="m408 280h16v16h-16z" fill="#b46636" data-original="#B46636" class="active-path" style="fill:#A4A2A0" data-old_color="#b46636"/><path d="m424 328h16v16h-16z" fill="#b46636" data-original="#B46636" class="active-path" style="fill:#A4A2A0" data-old_color="#b46636"/><g fill="#a8a8a8"><path d="m383.59 197.47-15.18 5.06-16.85-50.53h16.87z" data-original="#A8A8A8"/><path d="m415.59 197.47-15.18 5.06-16.85-50.53h16.87z" data-original="#A8A8A8"/><path d="m440 200v8h-288a8.081 8.081 0 0 1 -3.58-.84l-30.31-15.16h-62.11v-16h64a8.081 8.081 0 0 1 3.58.84l30.31 15.16h283.44z" data-original="#A8A8A8"/></g></g></g> </svg>
