<?xml version="1.0" encoding="iso-8859-1"?>
<!-- Generator: Adobe Illustrator 19.0.0, SVG Export Plug-In . SVG Version: 6.00 Build 0)  -->
<svg version="1.1" id="Capa_1" xmlns="http://www.w3.org/2000/svg" xmlns:xlink="http://www.w3.org/1999/xlink" x="0px" y="0px"
	 viewBox="0 0 512.061 512.061" style="enable-background:new 0 0 512.061 512.061;" xml:space="preserve">
<g transform="translate(-1)">
	<g>
		<g>
			<path d="M28.489,349.902c-5.047,0.007-9.136,4.096-9.143,9.143v18.286c0.007,5.047,4.096,9.136,9.143,9.143h321.087
				l-40.795-36.571H28.489z"/>
			<path d="M119.918,172.393C105.18,185.953,85.035,192,65.266,188.799c1.174,22.111,8.906,74.96,54.652,104.656
				c45.746-29.696,53.478-82.545,54.652-104.656C154.8,192.002,134.655,185.955,119.918,172.393z"/>
			<path d="M504.355,309.955L504.355,309.955l-45.888-85.656c-42.852-80.344-126.533-130.492-217.59-130.397H129.061
				c-57.879-0.404-108.729,38.33-123.713,94.237c-14.985,55.907,9.676,114.88,59.999,143.477h223.038l-23.002-20.621
				c-2.432-2.18-3.517-5.493-2.845-8.689c0.672-3.197,2.999-5.792,6.103-6.808s6.515-0.299,8.947,1.881l121.571,108.987
				c21.754,13.897,49.126,15.631,72.46,4.589c18.01-8.765,31.676-24.483,37.852-43.537
				C515.647,348.365,513.8,327.618,504.355,309.955z M124.521,312.085c-2.844,1.661-6.362,1.661-9.205,0
				c-73.263-42.701-68.661-130.839-68.429-134.572c0.165-2.652,1.475-5.101,3.589-6.71c2.108-1.619,4.821-2.229,7.42-1.67
				c40.022,8.411,53.433-14.612,53.987-15.589c1.621-2.908,4.684-4.718,8.013-4.737h0.103c3.351,0.019,6.423,1.871,8.005,4.826
				c0.504,0.893,13.884,23.924,53.937,15.5c2.599-0.548,5.308,0.062,7.422,1.671c2.114,1.609,3.423,4.057,3.587,6.708
				C193.181,181.245,197.784,269.384,124.521,312.085z"/>
		</g>
	</g>
</g>
<g>
</g>
<g>
</g>
<g>
</g>
<g>
</g>
<g>
</g>
<g>
</g>
<g>
</g>
<g>
</g>
<g>
</g>
<g>
</g>
<g>
</g>
<g>
</g>
<g>
</g>
<g>
</g>
<g>
</g>
</svg>
