<svg xmlns="http://www.w3.org/2000/svg" height="512pt" version="1.1" viewBox="0 0 512.00268 512" width="512pt">
<g id="surface1">
<path d="M 509.75 14.753906 L 508.054688 3.949219 L 497.25 2.253906 C 475.832031 -1.105469 453.296875 -0.707031 430.273438 3.441406 C 384.144531 11.75 341.765625 34.136719 307.722656 68.179688 L 302.3125 73.589844 L 438.417969 209.691406 L 443.828125 204.285156 C 477.871094 170.242188 500.253906 127.863281 508.5625 81.734375 C 512.710938 58.707031 513.109375 36.171875 509.75 14.753906 Z M 509.75 14.753906 " style=" stroke:none;fill-rule:nonzero;fill:rgb(0%,0%,0%);fill-opacity:1;" />
<path d="M 0 375.894531 L 47.664062 328.230469 L 183.765625 464.335938 L 136.105469 512 Z M 0 375.894531 " style=" stroke:none;fill-rule:nonzero;fill:rgb(0%,0%,0%);fill-opacity:1;" />
<path d="M 281.085938 94.8125 L 98.921875 276.976562 L 110.089844 288.148438 L 80.058594 318.179688 L 193.824219 431.945312 L 223.855469 401.914062 L 235.027344 413.082031 L 417.191406 230.917969 Z M 281.085938 94.8125 " style=" stroke:none;fill-rule:nonzero;fill:rgb(0%,0%,0%);fill-opacity:1;" />
</g>
</svg>