<?xml version="1.0" encoding="iso-8859-1"?>
<!-- Generator: Adobe Illustrator 19.0.0, SVG Export Plug-In . SVG Version: 6.00 Build 0)  -->
<svg version="1.1" id="Capa_1" xmlns="http://www.w3.org/2000/svg" xmlns:xlink="http://www.w3.org/1999/xlink" x="0px" y="0px"
	 viewBox="0 0 511.9 511.9" style="enable-background:new 0 0 511.9 511.9;" xml:space="preserve">
<g>
	<g>
		<g>
			<path d="M146.434,146.436c6.895-6.896,6.894-18.076-0.001-24.971c-6.896-6.895-18.076-6.895-24.971,0s-6.896,18.075-0.001,24.971
				C128.362,153.318,139.532,153.318,146.434,146.436z"/>
			<path d="M446.046,308.724L233.822,96.496c-4.937-4.874-10.966-8.498-17.586-10.571c5.355,35.939-6.641,72.288-32.335,97.981
				c-25.694,25.692-62.044,37.686-97.983,32.329c2.07,6.623,5.697,12.654,10.575,17.589l212.233,212.228
				c17.248,17.213,45.175,17.213,62.422,0l74.897-74.905C463.264,353.901,463.264,325.97,446.046,308.724z M358.693,271.302
				c1.623,1.65,2.541,3.867,2.56,6.181c-0.023,1.18-0.262,2.346-0.707,3.44c-0.427,1.055-1.057,2.015-1.854,2.828
				c-1.669,1.647-3.922,2.567-6.268,2.56c-2.348,0.022-4.606-0.9-6.268-2.56c-0.795-0.831-1.45-1.786-1.938-2.828
				c-0.425-1.096-0.636-2.264-0.621-3.44c-0.021-2.322,0.903-4.553,2.56-6.181C349.68,267.991,355.17,267.991,358.693,271.302z
				 M327.451,252.548l6.241-6.241c2.23-2.23,5.48-3.101,8.526-2.284c3.046,0.816,5.425,3.195,6.241,6.241
				c0.816,3.046-0.055,6.296-2.285,8.526l-6.241,6.241c-3.447,3.447-9.036,3.447-12.483,0S324.004,255.995,327.451,252.548z
				 M333.709,296.198c0.402,0.432,0.757,0.904,1.06,1.41c0.351,0.449,0.619,0.957,0.793,1.5c0.268,0.526,0.448,1.093,0.535,1.677
				c0.143,0.549,0.201,1.116,0.173,1.682l0,0c0.032,1.158-0.21,2.307-0.707,3.353c-0.427,1.08-1.056,2.069-1.854,2.914
				c-1.693,1.611-3.931,2.525-6.268,2.56c-1.148,0.017-2.288-0.193-3.353-0.621c-1.079-0.469-2.065-1.125-2.914-1.94
				c-0.816-0.83-1.448-1.823-1.854-2.914c-0.453-1.061-0.693-2.2-0.707-3.353c-0.021-3.586,2.13-6.829,5.442-8.204
				C327.368,292.886,331.183,293.651,333.709,296.198z M323.494,275.233c0.816,3.046-0.055,6.296-2.284,8.526L314.968,290
				c-2.23,2.23-5.48,3.101-8.526,2.284s-5.425-3.195-6.241-6.241c-0.816-3.046,0.055-6.296,2.284-8.526l6.241-6.241
				c2.23-2.23,5.48-3.101,8.526-2.284C320.299,269.808,322.678,272.187,323.494,275.233z M271.27,308.729l6.241-6.246
				c2.23-2.23,5.48-3.101,8.526-2.285c3.046,0.816,5.425,3.195,6.242,6.241s-0.054,6.296-2.284,8.526l-6.241,6.246
				c-2.23,2.23-5.48,3.101-8.526,2.284s-5.425-3.195-6.241-6.241C268.17,314.208,269.041,310.958,271.27,308.729L271.27,308.729z
				 M258.787,246.306c-3.447-3.447-3.447-9.036,0-12.483l6.241-6.241c3.447-3.447,9.036-3.447,12.483,0s3.447,9.036,0,12.483
				l-6.241,6.241C267.823,249.753,262.234,249.753,258.787,246.306z M288.071,330.358L288.071,330.358
				c0.436-1.096,1.097-2.089,1.94-2.914c2.081-2.079,5.067-2.974,7.948-2.383c0.57,0.109,1.132,0.257,1.681,0.444
				c0.528,0.243,1.031,0.539,1.5,0.884c0.476,0.304,0.918,0.658,1.319,1.056c0.842,0.827,1.506,1.819,1.948,2.914
				c0.931,2.14,0.931,4.571,0,6.711c-0.485,1.072-1.143,2.056-1.948,2.914c-3.447,3.414-9.001,3.414-12.448,0
				c-0.805-0.856-1.461-1.841-1.94-2.914C287.244,334.909,287.244,332.519,288.071,330.358z M310.408,225.134L310.408,225.134
				c0.62,0.177,1.146,0.353,1.672,0.53c0.534,0.263,1.06,0.53,1.509,0.793c2.787,1.867,4.274,5.154,3.837,8.48
				c-0.437,3.326-2.721,6.117-5.896,7.202c-3.174,1.085-6.69,0.276-9.071-2.087c-3.414-3.446-3.414-8.998,0-12.444
				C304.556,225.551,307.515,224.631,310.408,225.134z M283.753,208.849l6.25-6.241c2.227-2.251,5.489-3.137,8.549-2.322
				c3.06,0.815,5.449,3.206,6.262,6.266c0.813,3.06-0.076,6.322-2.328,8.547l-6.25,6.241c-2.227,2.251-5.489,3.137-8.549,2.322
				c-3.06-0.815-5.449-3.206-6.262-6.266S281.5,211.075,283.753,208.849z M290.012,252.5L290.012,252.5
				c1.613,1.691,2.528,3.93,2.559,6.268c-0.014,2.341-0.931,4.586-2.56,6.268c-3.481,3.414-9.054,3.414-12.535,0
				c-1.625-1.684-2.542-3.927-2.56-6.268c-0.021-3.586,2.13-6.829,5.442-8.204C283.671,249.188,287.486,249.954,290.012,252.5z
				 M277.477,190.09c1.675,1.659,2.629,3.91,2.655,6.268c-0.018,0.591-0.078,1.18-0.181,1.763c-0.136,0.542-0.312,1.074-0.526,1.59
				l-0.802,1.591c-0.353,0.465-0.736,0.907-1.147,1.323c-1.647,1.623-3.86,2.541-6.172,2.56c-2.341-0.017-4.585-0.933-6.268-2.56
				c-1.697-1.643-2.655-3.905-2.655-6.267c0-2.362,0.958-4.624,2.655-6.267C268.54,186.823,273.974,186.823,277.477,190.09z
				 M246.305,171.401l6.241-6.241c2.23-2.23,5.48-3.101,8.526-2.285c3.046,0.816,5.425,3.195,6.241,6.241
				c0.816,3.046-0.055,6.296-2.284,8.526l-6.241,6.241c-3.447,3.447-9.036,3.447-12.483,0
				C242.858,180.437,242.858,174.848,246.305,171.401z M255.15,221.336c-0.017,0.593-0.078,1.183-0.181,1.767
				c-0.097,0.553-0.274,1.089-0.526,1.59c-0.216,0.524-0.481,1.027-0.793,1.5c-0.334,0.51-0.722,0.984-1.155,1.414
				c-1.647,1.622-3.861,2.538-6.172,2.556c-2.337-0.031-4.575-0.944-6.268-2.556c-3.414-3.483-3.414-9.056,0-12.539
				c3.505-3.263,8.935-3.263,12.44,0C254.168,216.729,255.121,218.98,255.15,221.336L255.15,221.336z M221.339,196.371l6.241-6.241
				c2.23-2.23,5.48-3.101,8.526-2.284c3.046,0.816,5.425,3.195,6.241,6.241c0.816,3.046-0.055,6.296-2.285,8.526l-6.241,6.241
				c-3.447,3.447-9.036,3.447-12.483,0C217.892,205.407,217.892,199.818,221.339,196.371z M213.391,243.849L213.391,243.849
				c1.724-0.27,3.489-0.087,5.121,0.53c1.059,0.458,2.019,1.117,2.828,1.94c1.673,1.652,2.598,3.917,2.56,6.268
				c0.008,1.148-0.203,2.288-0.621,3.357c-0.459,1.057-1.118,2.016-1.94,2.823c-0.785,0.852-1.751,1.516-2.828,1.944
				c-1.098,0.417-2.265,0.626-3.44,0.616c-0.562,0.015-1.124-0.015-1.681-0.091c-0.621-0.177-1.147-0.349-1.672-0.526
				c-0.534-0.267-1.06-0.53-1.509-0.797c-0.496-0.313-0.94-0.699-1.319-1.147c-0.852-0.782-1.515-1.747-1.94-2.823
				c-1.427-3.299-0.653-7.136,1.94-9.625c0.379-0.447,0.823-0.834,1.319-1.146c0.448-0.263,0.974-0.53,1.509-0.793
				C212.244,244.203,212.77,244.026,213.391,243.849z M190.124,227.582l6.241-6.246c2.225-2.253,5.487-3.142,8.547-2.328
				c3.06,0.813,5.451,3.204,6.264,6.264c0.813,3.061-0.076,6.322-2.329,8.547l-6.241,6.246c-2.225,2.253-5.487,3.142-8.547,2.328
				c-3.06-0.813-5.451-3.204-6.264-6.264S187.871,229.807,190.124,227.582z M171.4,267.617c-3.57-0.001-6.788-2.152-8.154-5.45
				c-1.366-3.298-0.611-7.094,1.913-9.619l6.241-6.241c3.447-3.447,9.036-3.447,12.483,0c3.447,3.447,3.447,9.036,0,12.483
				l-6.241,6.241C175.988,266.689,173.741,267.62,171.4,267.617z M196.356,283.75c-1.661,1.66-3.92,2.582-6.268,2.56
				c-2.323,0.023-4.555-0.902-6.181-2.56c-1.687-1.65-2.64-3.908-2.647-6.268c0.008-2.334,0.963-4.565,2.647-6.181
				c3.472-3.354,8.976-3.354,12.448,0c1.657,1.628,2.581,3.859,2.56,6.181C198.938,279.831,198.015,282.089,196.356,283.75z
				 M208.847,305.069L208.847,305.069c-3.572,0.001-6.792-2.151-8.159-5.451c-1.366-3.3-0.609-7.099,1.918-9.623l6.25-6.241
				c3.455-3.414,9.018-3.396,12.451,0.04s3.447,8.999,0.031,12.451l-6.25,6.241C213.434,304.142,211.188,305.072,208.847,305.069z
				 M233.787,321.177L233.787,321.177c-0.786,0.851-1.752,1.515-2.828,1.944c-1.061,0.453-2.2,0.693-3.353,0.707
				c-1.184-0.014-2.354-0.254-3.448-0.707c-0.525-0.214-1.028-0.48-1.5-0.793c-0.462-0.358-0.902-0.742-1.319-1.151
				c-1.66-1.624-2.585-3.855-2.56-6.177c-0.095-2.362,0.839-4.648,2.56-6.268c0.417-0.409,0.857-0.793,1.319-1.151
				c0.448-0.263,0.974-0.526,1.5-0.793c3.303-1.408,7.132-0.635,9.629,1.944c1.683,1.652,2.636,3.909,2.647,6.268
				C236.422,317.332,235.468,319.56,233.787,321.177z M233.822,280.099L233.822,280.099c-3.57-0.001-6.788-2.152-8.154-5.45
				c-1.366-3.298-0.611-7.094,1.913-9.619l6.241-6.241c3.447-3.447,9.036-3.447,12.483,0c3.447,3.447,3.447,9.036,0,12.483
				l-6.241,6.241C238.41,279.171,236.164,280.102,233.822,280.099z M244.373,286.664c0.405-1.114,1.074-2.114,1.948-2.914
				c3.503-3.267,8.937-3.267,12.44,0c1.675,1.659,2.629,3.91,2.655,6.268c-0.018,0.563-0.078,1.123-0.181,1.677
				c-0.172,0.616-0.353,1.147-0.526,1.677c-0.267,0.53-0.535,1.06-0.793,1.5c-0.312,0.501-0.702,0.95-1.155,1.328
				c-1.627,1.691-3.873,2.647-6.22,2.647s-4.593-0.956-6.22-2.647c-1.685-1.616-2.644-3.846-2.655-6.181
				C243.68,288.864,243.92,287.725,244.373,286.664L244.373,286.664z M252.546,348.763L252.546,348.763
				c-3.57-0.001-6.788-2.152-8.154-5.45s-0.611-7.094,1.913-9.619l6.241-6.241c2.23-2.23,5.48-3.101,8.526-2.285
				c3.046,0.816,5.425,3.195,6.241,6.241c0.816,3.046-0.055,6.296-2.284,8.526l-6.241,6.241
				C257.134,347.835,254.888,348.766,252.546,348.763z M277.477,364.875L277.477,364.875c-1.614,1.682-3.842,2.637-6.173,2.646
				c-2.359-0.007-4.617-0.96-6.268-2.647c-1.686-1.615-2.644-3.846-2.655-6.181c0.01-2.361,0.966-4.618,2.655-6.268
				c3.505-3.263,8.935-3.263,12.44,0c0.41,0.416,0.793,0.858,1.147,1.323c0.267,0.53,0.534,0.974,0.802,1.504
				c0.214,0.546,0.39,1.106,0.526,1.677c0.103,0.582,0.163,1.172,0.181,1.763C280.121,361.029,279.163,363.26,277.477,364.875z
				 M289.994,386.216L289.994,386.216c-3.572,0.001-6.792-2.151-8.159-5.451c-1.366-3.3-0.609-7.099,1.918-9.623l6.25-6.241
				c2.227-2.251,5.489-3.137,8.549-2.322c3.06,0.815,5.449,3.206,6.262,6.266c0.813,3.06-0.076,6.322-2.328,8.547l-6.25,6.241
				C294.581,385.289,292.335,386.218,289.994,386.216z M314.994,402.392c-2.525,2.546-6.341,3.312-9.653,1.937
				c-3.312-1.375-5.463-4.618-5.442-8.204c0.018-2.34,0.935-4.584,2.56-6.268c3.467-3.429,9.052-3.414,12.5,0.034
				S318.422,398.925,314.994,402.392L314.994,402.392z M314.968,361.246L314.968,361.246c-3.57-0.001-6.788-2.152-8.154-5.45
				c-1.366-3.298-0.611-7.094,1.913-9.619l6.241-6.241c3.447-3.447,9.036-3.447,12.483,0s3.447,9.036,0,12.483l-6.241,6.241
				C319.556,360.318,317.31,361.249,314.968,361.246z M339.891,377.41L339.891,377.41c-0.384,0.421-0.832,0.779-1.328,1.06
				c-0.449,0.351-0.957,0.619-1.5,0.793c-0.523,0.27-1.089,0.45-1.672,0.531c-0.555,0.104-1.117,0.163-1.681,0.177
				c-0.593-0.014-1.183-0.073-1.767-0.177c-0.553-0.096-1.087-0.274-1.586-0.53c-0.57-0.173-1.106-0.441-1.586-0.793
				c-0.463-0.327-0.906-0.681-1.328-1.06c-3.414-3.481-3.414-9.054,0-12.535c0.421-0.379,0.864-0.733,1.328-1.06
				c0.48-0.352,1.016-0.62,1.586-0.793c0.499-0.256,1.034-0.435,1.586-0.53c1.134-0.263,2.314-0.263,3.448,0
				c0.583,0.081,1.149,0.26,1.672,0.53c0.543,0.174,1.051,0.442,1.5,0.793c0.496,0.281,0.944,0.639,1.328,1.06
				c1.692,1.646,2.647,3.907,2.647,6.267C342.537,373.503,341.583,375.764,339.891,377.41z M346.175,330.039L346.175,330.039
				c-3.57-0.001-6.788-2.152-8.154-5.45s-0.611-7.094,1.913-9.619l6.241-6.241c2.23-2.23,5.48-3.101,8.526-2.285
				c3.046,0.816,5.425,3.195,6.241,6.241s-0.055,6.296-2.284,8.526l-6.241,6.241C350.763,329.111,348.517,330.042,346.175,330.039z
				 M373.08,343.336L373.08,343.336c-1.436,3.268-4.639,5.404-8.207,5.474c-1.153-0.014-2.293-0.254-3.353-0.707
				c-1.059-0.459-2.019-1.12-2.828-1.944c-0.85-0.784-1.513-1.749-1.94-2.823c-0.453-1.092-0.693-2.261-0.707-3.444
				c0.015-0.563,0.072-1.123,0.172-1.677c0.099-0.581,0.279-1.145,0.534-1.677c0.208-0.528,0.474-1.031,0.793-1.5
				c0.31-0.499,0.697-0.945,1.146-1.323c0.784-0.853,1.751-1.517,2.828-1.944c3.31-1.3,7.075-0.54,9.621,1.944
				c0.446,0.358,0.808,0.81,1.06,1.323c0.347,0.466,0.642,0.969,0.879,1.5c0.191,0.546,0.338,1.107,0.44,1.677
				c0.149,0.546,0.211,1.112,0.181,1.677C373.717,341.069,373.506,342.239,373.08,343.336z M371.141,305.069L371.141,305.069
				c-3.572,0-6.793-2.151-8.159-5.451c-1.366-3.3-0.609-7.099,1.918-9.623l6.25-6.241c2.227-2.251,5.489-3.137,8.549-2.322
				s5.449,3.206,6.262,6.266c0.813,3.06-0.076,6.322-2.328,8.547l-6.25,6.241C375.727,304.142,373.482,305.071,371.141,305.069z
				 M398.063,318.354L398.063,318.354c-0.489,1.039-1.145,1.993-1.94,2.823c-1.645,1.695-3.906,2.651-6.267,2.651
				c-2.362,0-4.622-0.956-6.267-2.651c-0.797-0.811-1.427-1.77-1.854-2.823c-0.453-1.061-0.693-2.2-0.707-3.353
				c-0.018-2.952,1.443-5.718,3.891-7.368c2.448-1.65,5.56-1.967,8.29-0.843c1.097,0.437,2.089,1.099,2.914,1.944
				c1.625,1.684,2.542,3.927,2.56,6.268C398.699,316.148,398.488,317.287,398.063,318.354z"/>
			<path d="M483.503,271.272L271.27,59.043c-37.923-37.92-99.405-37.92-137.328,0l-74.897,74.905
				c-37.92,37.923-37.92,99.405,0,137.328L271.27,483.505c37.949,37.858,99.379,37.858,137.328,0l74.905-74.905
				C521.365,370.653,521.365,309.219,483.503,271.272z M108.977,108.983c13.786-13.771,36.124-13.763,49.9,0.018
				c13.776,13.781,13.776,36.119,0,49.9c-13.776,13.781-36.114,13.789-49.9,0.018C95.212,145.119,95.212,122.782,108.977,108.983z
				 M458.529,383.63l-74.897,74.905c-24.141,24.109-63.247,24.109-87.388,0L84.011,246.306
				c-10.75-10.682-17.119-24.996-17.858-40.132l0-0.008c-0.015-0.297-0.062-0.588-0.072-0.886c0.038-0.434,0.11-0.865,0.215-1.288
				c-0.006-0.441,0.023-0.883,0.087-1.32c0.04-0.151,0.152-0.255,0.2-0.402c0.211-0.568,0.482-1.112,0.809-1.622
				c0.963-2.012,2.797-3.471,4.974-3.958c0.584-0.207,1.188-0.35,1.803-0.427c0.154-0.013,0.281-0.099,0.438-0.104l0.302-0.004
				c0.399,0.049,0.793,0.127,1.18,0.233c0.375-0.001,0.75,0.023,1.121,0.073c33.62,9.133,69.557-0.429,94.192-25.063
				c24.635-24.634,34.199-60.571,25.066-94.191c-0.063-0.435-0.092-0.874-0.086-1.314c-0.106-0.426-0.178-0.861-0.215-1.299
				c0.005-0.155,0.088-0.281,0.101-0.433c0.074-0.592,0.211-1.174,0.407-1.738c0.128-0.544,0.309-1.075,0.539-1.584
				c0.256-0.43,0.548-0.836,0.874-1.216c0.352-0.511,0.759-0.982,1.214-1.405c0.392-0.294,0.809-0.555,1.245-0.78
				c0.539-0.352,1.117-0.641,1.721-0.861c0.149-0.048,0.254-0.162,0.407-0.204c0.427-0.06,0.858-0.087,1.29-0.08
				c0.434-0.109,0.876-0.183,1.322-0.221c15.455,0.551,30.121,6.966,41.018,17.94l212.224,212.228
				C482.643,320.38,482.643,359.491,458.529,383.63L458.529,383.63z"/>
			<path d="M15.011,2.531C11.555-0.863,6.01-0.838,2.585,2.587c-3.425,3.425-3.45,8.97-0.056,12.426l8.828,8.828
				c3.456,3.394,9.001,3.369,12.426-0.056c3.425-3.425,3.45-8.97,0.056-12.426L15.011,2.531z"/>
			<path d="M46.667,59.151c3.456,3.394,9.001,3.369,12.426-0.056c3.425-3.425,3.45-8.97,0.056-12.426l-8.828-8.828
				c-3.456-3.394-9.001-3.369-12.426,0.056c-3.425,3.425-3.45,8.97-0.056,12.426L46.667,59.151z"/>
			<path d="M81.977,94.461c3.456,3.394,9.001,3.369,12.426-0.056s3.45-8.97,0.056-12.426l-8.828-8.828
				c-3.456-3.394-9.001-3.369-12.426,0.056c-3.425,3.425-3.45,8.97-0.056,12.426L81.977,94.461z"/>
		</g>
	</g>
</g>
<g>
</g>
<g>
</g>
<g>
</g>
<g>
</g>
<g>
</g>
<g>
</g>
<g>
</g>
<g>
</g>
<g>
</g>
<g>
</g>
<g>
</g>
<g>
</g>
<g>
</g>
<g>
</g>
<g>
</g>
</svg>
