<svg id="Capa_1" enable-background="new 0 0 512 512" height="512" viewBox="0 0 512 512" width="512" xmlns="http://www.w3.org/2000/svg"><g id="Electroshock"><path d="m256.003 97c-.416 0-.835-.017-1.254-.052-5.442-.456-10.207-3.833-12.439-8.818l-22.412-50.054-15.027 11.02c-2.573 1.887-5.68 2.904-8.871 2.904h-15c-8.284 0-15-6.716-15-15s6.716-15 15-15h10.09l26.04-19.096c3.654-2.68 8.323-3.564 12.705-2.405 4.381 1.159 8.003 4.235 9.855 8.372l18.898 42.206 14.932-22.397c2.781-4.173 7.465-6.68 12.48-6.68h45c8.284 0 15 6.716 15 15s-6.716 15-15 15h-36.973l-25.547 38.32c-2.795 4.195-7.492 6.68-12.477 6.68z"/><path d="m301 467c-8.284 0-15-6.716-15-15s6.716-15 15-15h60v-70h-60c-8.284 0-15-6.716-15-15s6.716-15 15-15h60v-45h-210v45h60c8.284 0 15 6.716 15 15s-6.716 15-15 15h-60v70h60c8.284 0 15 6.716 15 15s-6.716 15-15 15h-60v30c0 8.284 6.716 15 15 15h180c8.284 0 15-6.716 15-15v-30z"/><path d="m376 52c-8.284 0-15 6.716-15 15v45h-45c-8.284 0-15 6.716-15 15v45h-90v-45c0-8.284-6.716-15-15-15h-45v-45c0-8.284-6.716-15-15-15s-15 6.716-15 15v159c0 3.978 1.58 7.793 4.394 10.606l25.393 25.394h210.427l25.393-25.394c2.813-2.812 4.393-6.628 4.393-10.606v-159c0-8.284-6.716-15-15-15z"/></g></svg>