<svg id="Solid" height="512" viewBox="0 0 512 512" width="512" xmlns="http://www.w3.org/2000/svg"><path d="m100.156 437.338 8.523-1.55c5.081-.924 9.86-8.934 12.473-20.9 3.246-14.867 3.046-33.989-.564-53.845s-10.153-37.823-18.424-50.6c-6.664-10.287-13.964-16.106-19.034-15.176l-8.538 1.552c13.782 14.645 24.4 40.967 29.182 67.278 3.979 21.884 4.141 43.235.455 60.118a74.2 74.2 0 0 1 -4.073 13.123z"/><path d="m138.942 403.434 8.415-1.543c3.985-.745 11-18.069 5.81-46.789-5.275-28.7-17.9-42.431-21.91-41.708l-8.409 1.513a176.1 176.1 0 0 1 13.482 43.271 176.091 176.091 0 0 1 2.612 45.256z"/><path d="m60.273 340.341c4.977 7.686 8.865 18.224 10.947 29.675s2.152 22.682.2 31.628c-3.328 15.244-11.338 18.885-15.816 19.7a15.283 15.283 0 0 1 -1.52.185q1.461 2.616 3 5c6.66 10.285 13.952 16.1 19.034 15.176s9.861-8.934 12.475-20.9c3.245-14.867 3.045-33.99-.566-53.845-7.527-41.4-26.05-65.867-36.379-65.867a5.985 5.985 0 0 0 -1.08.095c-5.081.923-9.86 8.933-12.473 20.905q-.6 2.766-1.049 5.724c.484-.137.979-.254 1.486-.346 4.485-.821 13.262-.228 21.741 12.87z"/><path d="m207.925 148.485-50.268-5.585a48.323 48.323 0 0 0 -53.657 48.026v31.805a33.269 33.269 0 0 0 54.336 25.749l63.737-52.15a27.064 27.064 0 0 0 -14.148-47.845z"/><path d="m450.3 232h5.7a8.009 8.009 0 0 0 8-8v-48a8.009 8.009 0 0 0 -8-8h-8.007a167.433 167.433 0 0 1 3.2 39.087z"/><path d="m224 384a32.057 32.057 0 0 1 24-30.987v-24.432a55.956 55.956 0 0 0 -43.987 76.2l21.159-12.217a31.9 31.9 0 0 1 -1.172-8.564z"/><path d="m224 32a8.009 8.009 0 0 0 -8 8v8h80v-8a8.009 8.009 0 0 0 -8-8z"/><path d="m52.729 405.523c2.267-1.891 6.178-13.783 2.749-32.646s-11.278-28.615-14.064-29.589c-2.2 1.833-5.932 13.041-3.053 30.875.1.59.2 1.179.3 1.772 3.439 18.865 11.279 28.616 14.068 29.588z"/><path d="m56 232h5.7l-.9-24.913a167.433 167.433 0 0 1 3.207-39.087h-8.007a8.009 8.009 0 0 0 -8 8v48a8.009 8.009 0 0 0 8 8z"/><path d="m374.731 256a33.306 33.306 0 0 0 33.269-33.269v-31.805a48.325 48.325 0 0 0 -53.657-48.026l-50.268 5.585a27.064 27.064 0 0 0 -14.149 47.845l63.739 52.15a33.357 33.357 0 0 0 21.066 7.52z"/><path d="m375.67 358.178a176.1 176.1 0 0 1 13.482-43.271l-8.409-1.513c-3.969-.727-16.634 13.008-21.915 41.732-5.182 28.7 1.83 46.02 5.84 46.77l8.39 1.538a176.091 176.091 0 0 1 2.612-45.256z"/><path d="m256 280a56.063 56.063 0 0 0 -56 56v2.815a71.882 71.882 0 0 1 112 0v-2.815a56.063 56.063 0 0 0 -56-56z"/><path d="m437.4 296.818-8.53-1.551c-5.075-.927-12.375 4.89-19.035 15.175-8.271 12.774-14.815 30.743-18.424 50.6s-3.81 38.978-.564 53.845c2.613 11.97 7.392 19.98 12.473 20.9l8.523 1.55a74.2 74.2 0 0 1 -4.073-13.123c-3.686-16.883-3.524-38.234.455-60.118 4.784-26.309 15.396-52.633 29.175-67.278z"/><path d="m383.577 297.646 13.891 2.5c10.465-15.432 22.583-22.746 34.265-20.621l.844.154 2.628-73.165a152 152 0 0 0 -120.919-154.2l-2.286-.478v4.164a8 8 0 0 1 -8 8h-96a8 8 0 0 1 -8-8v-4.164l-2.29.476a152 152 0 0 0 -120.91 154.201l2.628 73.165.845-.154c11.676-2.123 23.8 5.189 34.264 20.621l13.891-2.5c19.354-3.477 35.014 24.826 40.485 54.587 4.376 24.236 2.088 49.946-9.342 60.622l30.47 45.751a47.9 47.9 0 0 0 39.946 21.395h52.026a47.9 47.9 0 0 0 39.951-21.394l30.474-45.757c-11.436-10.683-13.722-36.382-9.351-60.591 5.477-29.786 21.148-58.08 40.49-54.612zm-135.577-217.646h16v56h-16zm16 136v32h-16v-32zm-95.532 44.863a49.269 49.269 0 0 1 -80.468-38.132v-31.805a64.321 64.321 0 0 1 71.425-63.926l50.267 5.585a43.063 43.063 0 0 1 22.513 76.13zm159.532 123.137a72 72 0 0 1 -144 0v-48a72 72 0 0 1 144 0zm-48.206-175.287a43.064 43.064 0 0 1 22.515-76.13l50.266-5.583a64.321 64.321 0 0 1 71.425 63.926v31.805a49.268 49.268 0 0 1 -80.467 38.132z"/><circle cx="256" cy="384" r="16"/><path d="m461.427 301.186a5.985 5.985 0 0 0 -1.08-.095c-10.328 0-28.851 24.462-36.379 65.867-3.611 19.855-3.811 38.978-.566 53.845 2.614 11.97 7.393 19.98 12.474 20.9s12.375-4.891 19.035-15.176q1.543-2.383 3-5a15.3 15.3 0 0 1 -1.521-.185c-4.477-.814-12.487-4.455-15.815-19.7-1.952-8.946-1.882-20.178.2-31.628s5.97-21.989 10.947-29.675c8.48-13.1 17.257-13.686 21.736-12.872.507.092 1 .209 1.486.346q-.446-2.954-1.049-5.724c-2.608-11.97-7.387-19.98-12.468-20.903z"/><path d="m456.522 372.877c-3.429 18.863.482 30.755 2.749 32.646 2.789-.972 10.634-10.727 14.064-29.588.108-.593.2-1.182.3-1.772 2.879-17.834-.856-29.042-3.053-30.875-2.782.974-10.631 10.729-14.06 29.589z"/><path d="m264 328.581v24.432a31.98 31.98 0 0 1 22.828 39.547l21.159 12.217a55.956 55.956 0 0 0 -43.987-76.196z"/><path d="m256 416a31.9 31.9 0 0 1 -22.814-9.59l-21.152 12.212a55.9 55.9 0 0 0 87.932 0l-21.152-12.212a31.9 31.9 0 0 1 -22.814 9.59z"/></svg>