<?xml version="1.0" encoding="UTF-8" standalone="no"?>
<svg
   xmlns:dc="http://purl.org/dc/elements/1.1/"
   xmlns:cc="http://creativecommons.org/ns#"
   xmlns:rdf="http://www.w3.org/1999/02/22-rdf-syntax-ns#"
   xmlns:svg="http://www.w3.org/2000/svg"
   xmlns="http://www.w3.org/2000/svg"
   xmlns:sodipodi="http://sodipodi.sourceforge.net/DTD/sodipodi-0.dtd"
   xmlns:inkscape="http://www.inkscape.org/namespaces/inkscape"
   width="30mm"
   height="30mm"
   version="1.1"
   viewBox="0 0 30 30"
   id="svg10"
   sodipodi:docname="layer-plus.svg"
   inkscape:version="1.0.1 (3bc2e813f5, 2020-09-07)">
  <defs
     id="defs14" />
  <sodipodi:namedview
     pagecolor="#ffffff"
     bordercolor="#666666"
     borderopacity="1"
     objecttolerance="10"
     gridtolerance="10"
     guidetolerance="10"
     inkscape:pageopacity="0"
     inkscape:pageshadow="2"
     inkscape:window-width="1920"
     inkscape:window-height="1017"
     id="namedview12"
     showgrid="false"
     inkscape:zoom="5.157411"
     inkscape:cx="31.468549"
     inkscape:cy="56.025032"
     inkscape:window-x="-8"
     inkscape:window-y="-8"
     inkscape:window-maximized="1"
     inkscape:current-layer="svg10" />
  <metadata
     id="metadata2">
    <rdf:RDF>
      <cc:Work
         rdf:about="">
        <dc:format>image/svg+xml</dc:format>
        <dc:type
           rdf:resource="http://purl.org/dc/dcmitype/StillImage" />
        <dc:title />
      </cc:Work>
    </rdf:RDF>
  </metadata>
  <g
     transform="matrix(.2595 0 0 .2595 -10.76 -20.454)"
     id="g8">
    <path
       transform="scale(0.26458)"
       d="m 369.39,733.7 c -4.6059,-0.89438 -13.299,-4.0677 -18.823,-6.8709 -1.1933,-0.60557 -7.6068,-3.3488 -14.252,-6.0962 -6.6453,-2.7473 -15.442,-6.5245 -19.548,-8.3938 -13.257,-6.0354 -16.003,-7.2051 -16.917,-7.2051 -0.79289,0 -4.148,-1.4406 -20.41,-8.7637 -6.5756,-2.9611 -17.402,-7.6705 -20.699,-9.004 -9.4648,-3.8277 -14.807,-6.1357 -27.829,-12.022 -5.0411,-2.2789 -9.9581,-4.1434 -10.927,-4.1434 -0.96851,0 -2.3412,-0.56712 -3.0504,-1.2603 -0.70921,-0.69315 -4.42,-2.4866 -8.2462,-3.9855 -3.8262,-1.4988 -9.9342,-4.0653 -13.573,-5.7032 -3.6392,-1.6379 -9.3653,-4.187 -12.725,-5.6647 -16.534,-7.2725 -20.049,-9.511 -22.9,-14.584 -3.5966,-6.3992 -3.6982,-14.002 -0.26159,-19.562 2.7185,-4.3986 9.7567,-10.32 12.266,-10.32 0.78689,0 2.4913,-0.52093 3.7876,-1.1576 1.2963,-0.6367 4.4947,-2.1108 7.1076,-3.2757 2.6129,-1.165 8.7209,-3.8996 13.573,-6.0771 4.8525,-2.1774 13.098,-5.6726 18.324,-7.7671 5.2258,-2.0945 13.166,-5.4836 17.645,-7.5313 12.206,-5.58 17.612,-7.9487 21.014,-9.2074 2.7812,-1.0288 2.4463,-1.3714 -3.542,-3.6234 -3.6375,-1.3679 -10.584,-4.2772 -15.436,-6.4652 -4.8525,-2.1879 -10.044,-4.5073 -11.537,-5.1543 -1.4931,-0.64693 -6.8121,-3.041 -11.82,-5.3201 -5.0079,-2.2791 -9.4967,-4.1438 -9.9749,-4.1438 -0.87289,0 -2.5233,-0.70182 -17.568,-7.4705 -16.257,-7.314 -19.975,-9.4894 -22.656,-13.255 -4.0778,-5.7268 -4.7566,-13.936 -1.6412,-19.849 3.4246,-6.5 6.3196,-8.7681 16.832,-13.187 4.8525,-2.0398 12.488,-5.362 16.967,-7.3828 4.479,-2.0208 13.03,-5.6499 19.003,-8.0646 5.9723,-2.4148 14.218,-5.8987 18.324,-7.742 4.106,-1.8433 8.687,-3.8581 10.18,-4.4772 1.4931,-0.61908 5.7687,-2.4572 9.5014,-4.0848 3.7327,-1.6275 8.3137,-3.5793 10.18,-4.3372 3.6076,-1.465 7.4185,-3.1019 18.324,-7.8705 3.7327,-1.6322 8.3137,-3.5946 10.18,-4.361 1.8663,-0.7664 4.3697,-1.8804 5.563,-2.4755 1.1933,-0.59512 7.6067,-3.3298 14.252,-6.0771 6.6453,-2.7473 15.136,-6.3769 18.869,-8.0658 27.99,-12.664 34.356,-13.272 39.702,-3.7917 0.93317,1.6547 1.6967,4.6388 1.6967,6.6315 0.87856,6.16212 -6.448,11.64635 -13.2525,13.9621 -61.72214,24.63903 -104.45424,46.53605 -158.3541,68.5866 -2.6598,0.84899 -1.7588,1.3949 13.476,8.1652 2.2396,0.99525 6.8608,3.09 10.269,4.6549 3.4082,1.5649 6.6218,2.8454 7.1408,2.8454 0.88309,0 3.1445,0.97418 20.595,8.8721 3.7327,1.6893 14.314,6.2099 23.514,10.046 9.2003,3.8357 17.752,7.4906 19.003,8.1219 1.2512,0.63128 3.802,1.7748 5.6683,2.5412 1.8663,0.7664 6.4474,2.7251 10.18,4.3526 3.7327,1.6275 8.3137,3.5793 10.18,4.3372 3.6076,1.465 7.4185,3.1019 18.324,7.8705 3.7327,1.6322 8.0083,3.4684 9.5014,4.0804 1.4931,0.61208 5.4633,2.3311 8.8227,3.82 14.958,6.6298 19.491,8.3963 21.551,8.3999 2.3455,0.004 14.604,-4.7613 27.992,-10.882 10.421,-4.7639 20.432,-9.1211 31.897,-13.883 5.1592,-2.1426 10.628,-4.5468 20.703,-9.1013 5.0411,-2.2789 9.9581,-4.1434 10.927,-4.1434 0.9689,0 2.3412,-0.55063 3.0504,-1.2236 0.70921,-0.673 6.7867,-3.479 13.506,-6.2355 6.7188,-2.7565 15.27,-6.4063 19.003,-8.1106 3.7327,-1.7043 11.673,-5.0744 17.645,-7.4892 5.972,-2.4148 14.218,-5.9091 18.324,-7.7653 14.192,-6.4159 16.255,-7.2899 21.911,-9.2856 3.124,-1.1022 6.3436,-2.5207 7.1546,-3.1522 0.81098,-0.6315 3.4296,-1.5182 5.819,-1.9705 11.618,-2.1991 19.963,8.0687 15.148,18.637 -1.4286,3.1355 -7.2497,6.4881 -24.243,13.963 -2.6129,1.1493 -6.2777,2.8561 -8.144,3.7929 -1.8663,0.93685 -5.7818,2.4726 -8.701,3.4128 -2.9192,0.94022 -8.8403,3.4622 -13.158,5.6044 -4.3177,2.1422 -8.6786,3.8949 -9.6909,3.8949 -1.0123,0 -2.4209,0.55415 -3.1302,1.2314 -1.1382,1.087 -12.663,6.1925 -22.328,9.8912 -3.673,1.4056 -4.4485,0.92275 16.288,10.141 2.6129,1.1615 5.727,2.6024 6.9204,3.2018 1.1933,0.59946 7.6067,3.3377 14.252,6.085 6.6453,2.7473 15.442,6.497 19.548,8.3326 4.106,1.8356 9.6032,4.2892 12.216,5.4524 2.6129,1.1632 5.8113,2.6579 7.1076,3.3217 1.2963,0.66377 3.0008,1.2068 3.7876,1.2068 2.5095,0 9.5477,5.9217 12.266,10.32 3.485,5.6389 3.3233,13.181 -0.42599,19.865 -3.1625,5.6378 -8.1417,8.5372 -30.879,17.981 -4.8525,2.0153 -9.403,4.2184 -10.112,4.8957 -0.709,0.6773 -2.1213,1.2314 -3.1381,1.2314 -1.0167,0 -5.3229,1.5763 -9.5692,3.5028 -4.2464,1.9266 -8.9422,4.0094 -10.435,4.6285 -1.4931,0.61907 -5.7687,2.461 -9.5014,4.0932 -10.906,4.7686 -14.716,6.4054 -18.324,7.8705 -1.8663,0.75789 -6.4474,2.7096 -10.18,4.3372 -3.7327,1.6275 -8.3137,3.5862 -10.18,4.3526 -1.8663,0.7664 -4.4171,1.91 -5.6683,2.5412 -1.2512,0.63128 -9.8025,4.279 -19.003,8.1059 -9.2005,3.8269 -17.308,7.5148 -18.017,8.1952 -0.70921,0.68039 -2.0819,1.2371 -3.0504,1.2371 -0.9685,0 -5.6392,1.8324 -10.379,4.072 -4.7402,2.2396 -9.0552,4.072 -9.5891,4.072 -0.53383,0 -4.4449,1.5868 -8.6913,3.5262 -14.41,6.5812 -15.974,7.191 -22.03,8.5865 -3.328,0.76694 -6.3564,1.3391 -6.7296,1.2715 -0.37327,-0.0676 -2.9574,-0.56539 -5.7426,-1.1062 z m 9.4114,-27.378 c 11.5,-4.6234 14.07,-5.7268 27.893,-11.976 5.0411,-2.2789 10.005,-4.1434 11.032,-4.1434 1.0264,0 2.6266,-0.91621 3.5559,-2.036 0.92936,-1.1198 2.477,-2.036 3.4393,-2.036 1.5978,0 16.342,-5.9862 29.816,-12.105 12.177,-5.5302 15.379,-6.8976 16.15,-6.8976 0.44508,0 4.9338,-1.8816 9.9749,-4.1813 5.0411,-2.2997 10.387,-4.6879 11.88,-5.3071 1.493,-0.6192 5.4633,-2.3705 8.8227,-3.8916 12.689,-5.746 29.159,-12.409 30.672,-12.409 0.86442,0 2.3321,-0.91621 3.2614,-2.036 0.92936,-1.1198 2.4552,-2.036 3.3906,-2.036 0.93551,0 5.289,-1.6002 9.6745,-3.556 l 7.9736,-3.556 -4.072,-1.7868 c -2.2396,-0.98273 -8.1966,-3.6581 -13.238,-5.9454 -5.0411,-2.2872 -9.4678,-4.1586 -9.8371,-4.1586 -0.36928,0 -4.796,-1.8816 -9.8371,-4.1813 -5.0411,-2.2997 -10.693,-4.8072 -12.559,-5.5723 -3.667,-1.5032 -7.7475,-3.2587 -18.324,-7.8835 -3.7327,-1.6322 -8.0083,-3.4741 -9.5014,-4.0932 -1.4931,-0.61909 -6.2152,-2.7143 -10.494,-4.656 -5.3898,-2.4461 -8.5164,-3.1664 -10.18,-2.3452 -3.3198,1.6387 -21.878,9.8386 -28.191,12.456 -1.4931,0.61908 -6.189,2.7019 -10.435,4.6285 -4.2464,1.9266 -8.1574,3.5028 -8.6913,3.5028 -0.53384,0 -4.8489,1.8324 -9.5891,4.072 -4.7401,2.2396 -9.3803,4.0914 -10.311,4.1152 -0.93118,0.0238 -2.8787,0.93996 -4.3278,2.036 -3.4015,2.5728 -18.751,2.6522 -23.624,0.12216 -1.9815,-1.0289 -5.1298,-2.5009 -6.9961,-3.2711 -1.8663,-0.7702 -6.4474,-2.7321 -10.18,-4.3596 -3.7327,-1.6275 -8.3137,-3.5793 -10.18,-4.3372 -3.6076,-1.465 -7.4185,-3.1019 -18.324,-7.8705 -3.7327,-1.6322 -8.0083,-3.4741 -9.5014,-4.0932 -1.4931,-0.61908 -6.2152,-2.7143 -10.494,-4.656 -5.3898,-2.4461 -8.5164,-3.1664 -10.18,-2.3452 -3.3198,1.6387 -21.878,9.8386 -28.191,12.456 -1.4931,0.61908 -6.189,2.7019 -10.435,4.6285 -4.2464,1.9266 -8.5525,3.5028 -9.5692,3.5028 -1.0167,0 -2.4288,0.55027 -3.1381,1.2228 -0.70921,0.67256 -7.3375,3.7793 -14.729,6.9038 -7.392,3.1245 -14.416,6.1838 -15.609,6.7983 -1.1932,0.61453 -4.3055,2.0569 -6.9163,3.2053 l -4.7469,2.088 5.4255,2.1678 c 6.4227,2.5662 8.8402,3.604 16.963,7.2821 12.689,5.746 29.159,12.409 30.672,12.409 0.86442,0 2.3321,0.91621 3.2614,2.036 0.92935,1.1198 2.5178,2.036 3.5298,2.036 1.012,0 6.4062,2.1378 11.987,4.7507 5.5808,2.6129 10.593,4.7507 11.139,4.7507 0.54536,0 3.7803,1.2804 7.1888,2.8454 3.4085,1.5649 8.0296,3.6706 10.269,4.6793 2.2396,1.0086 8.1966,3.6985 13.238,5.9774 5.0414,2.2789 9.7831,4.1434 10.538,4.1434 0.75467,0 2.4328,0.57305 3.7291,1.2734 3.6761,1.9862 20.61,9.5853 21.36,9.5853 0.36928,0 4.796,1.8816 9.8371,4.1813 5.0411,2.2997 10.387,4.6697 11.88,5.2667 1.4931,0.59698 4.2417,1.7281 6.108,2.5136 1.8663,0.78548 3.5173,1.4695 3.6688,1.52 0.1515,0.0505 1.9839,-0.59499 4.072,-1.4345 z"
       id="path4"
       sodipodi:nodetypes="cscsssccsscccccsscccccsccssccccscsccssssscccccssscccsssscccccsssccscsscsssssscsscssssssscsssccscssscscssssccccssscssscsssscsssscsscsscsssscssssscsscsccsscscsssssccsscssssscc" />
    <path
       transform="scale(.26458)"
       d="m490.53 488.32c-5.3243-2.0899-5.4536-3.1095-5.4536-43.013v-38.781h-36.478c-20.063 0-38.387-0.38175-40.72-0.84834l-4.2417-0.84833v-11.32c0-9.8025 0.35194-11.508 2.6254-12.725 1.6309-0.87283 17.056-1.4051 40.72-1.4051h38.095v-38.587c0-44.599-0.48486-42.865 11.974-42.835 4.2393 0.0102 9.082 0.38684 10.762 0.83698l3.054 0.81844v79.766h39.152c45.816 0 43.659-0.67661 43.624 13.68-0.0109 4.7937-0.59931 9.632-1.3064 10.752-1.0854 1.719-7.529 2.1006-41.378 2.4507l-40.092 0.41473v79.496l-3.4572 1.5752c-3.5733 1.6281-13.344 1.9588-16.879 0.57125z"
       id="path6" />
  </g>
</svg>
