<svg id="_x33_0" enable-background="new 0 0 64 64" height="512" viewBox="0 0 64 64" width="512" xmlns="http://www.w3.org/2000/svg"><g><path d="m20.275 20.129h4.243v2.535h-4.243z" transform="matrix(.707 -.707 .707 .707 -8.57 22.104)"/><path d="m36.732 17.964h1.536v5.071h-1.536z" transform="matrix(.707 -.707 .707 .707 -3.512 32.521)"/><path d="m23 26.586.586-.586h2l3-3-1.586-1.586-4.586 4.586z"/><path d="m39.232 15.464h1.536v5.071h-1.536z" transform="matrix(.707 -.707 .707 .707 -1.012 33.556)"/><path d="m28.413 24.339h5.425v5.071h-5.425z" transform="matrix(.707 -.707 .707 .707 -9.887 29.88)"/><path d="m34.232 20.464h1.536v5.071h-1.536z" transform="matrix(.707 -.707 .707 .707 -6.012 31.485)"/><path d="m41.732 12.964h1.536v5.071h-1.536z" transform="matrix(.707 -.707 .707 .707 1.488 34.592)"/><path d="m42.75 26.836 8.836-8.836-2.586-2.586-8.836 8.836zm5-8.586c.552 0 1 .448 1 1s-.448 1-1 1-1-.448-1-1 .448-1 1-1zm-2 2c.552 0 1 .448 1 1s-.448 1-1 1-1-.448-1-1 .448-1 1-1zm-2 2c.552 0 1 .448 1 1s-.448 1-1 1-1-.448-1-1 .448-1 1-1z"/><path d="m44.18 10.339h1.889v5.071h-1.889z" transform="matrix(.707 -.707 .707 .707 4.113 35.679)"/><path d="m53.004 28.998h2.243v8.253h-2.243z" transform="matrix(.707 -.707 .707 .707 -7.57 47.974)"/><path d="m47.878 7.05h2.243v7.9h-2.243z" transform="matrix(.707 -.707 .707 .707 6.574 37.87)"/><path d="m44 7.586 1.586-1.586-1.121-1.121c-.559-.559-1.332-.879-2.122-.879h-.343v.343c0 .802.312 1.556.878 2.122z"/><path d="m28 53h10v2h-10z"/><path d="m50.586 28-3.086-3.086-6.086 6.086.464.465c.724.723 1.122 1.683 1.122 2.707 0 .729-.216 1.405-.572 1.986z"/><path d="m32.395 28.296h8.96v3.657h-8.96z" transform="matrix(.707 -.707 .707 .707 -10.501 34.898)"/><path d="m41 34.172c0-.481-.195-.952-.535-1.293l-.465-.465-2 2v1.586h1.171c1.009 0 1.829-.82 1.829-1.828z"/><path d="m50.004 31.998h2.243v8.253h-2.243z" transform="matrix(.707 -.707 .707 .707 -10.57 46.732)"/><path d="m38 38v2.586l3.158-3.158c-.581.356-1.257.572-1.987.572z"/><path d="m60.585 36.5-.585-.586-6.086 6.086.586.586c.534.535 1.466.535 2 0l4.086-4.086c.267-.268.414-.622.414-1s-.147-.732-.415-1z"/><path d="m29.586 40-8.586-8.586-8.586 8.586 6.586 6.586 5.586-5.586h4z"/><path d="m30 51h6v-14.586l-6 6z"/><path d="m3.414 49 11.586 11.586 1.066-1.066.006-.034-11.572-11.572z"/><path d="m24.414 28-2 2 8.586 8.586 2.586-2.586-8-8z"/><path d="m5.914 46.5 10.562 10.562 1.453-8.719-6.929-6.929z"/><path d="m52.464 7.879h5.071v2.243h-5.071z" transform="matrix(.707 -.707 .707 .707 9.745 41.527)"/><path d="m57.879 3.879h2.243v2.243h-2.243z" transform="matrix(.707 -.707 .707 .707 13.745 43.184)"/></g></svg>