<svg id="Capa_1" enable-background="new 0 0 512.06 512.06" height="512" viewBox="0 0 512.06 512.06" width="512" xmlns="http://www.w3.org/2000/svg"><g><path d="m491.865 132.587-215.011-88.493c-7.42-3.052-15.42-3.692-20.823-3.692-5.404 0-13.404.641-20.828 3.694l-215.009 88.491c-15.692 6.46-23.862 24.156-18.601 40.289l37.346 114.496v46.662c0 35.057 0 71.308 30.362 97.978 31.213 27.419 88.803 39.647 186.73 39.647 97.926 0 155.515-12.228 186.728-39.647 30.361-26.671 30.361-62.921 30.361-97.978v-46.662l37.347-114.498c5.261-16.133-2.911-33.829-18.602-40.287zm-48.744 186.447h-374.182v-19.047h374.182zm-20.161 90.44c-24.653 21.657-79.257 32.185-166.929 32.185-87.673 0-142.276-10.528-166.931-32.185-16.926-14.869-19.642-35.209-20.078-60.44h374.016c-.437 25.231-3.153 45.571-20.078 60.44zm58.986-245.901-34.71 106.414h-382.412l-34.709-106.414c-.354-1.083.445-2.811 1.498-3.244l215.004-88.49c1.69-.695 5.05-1.438 9.414-1.438 4.363 0 7.723.743 9.409 1.436l215.007 88.491c1.054.434 1.852 2.163 1.499 3.245z"/><path d="m256.031 90.139c-41.46 0-71.152 50.917-74.402 56.723-2.066 3.693-2.478 8.088-1.13 12.101.297.885 7.411 21.919 18.995 43.256 17.797 32.782 36.291 48.717 56.537 48.717s38.738-15.936 56.535-48.717c11.584-21.338 18.697-42.371 18.994-43.256 1.348-4.012.936-8.407-1.13-12.1-3.249-5.806-32.941-56.724-74.399-56.724zm30 98.079c-13.166 24.149-24.389 32.718-30 32.718s-16.836-8.569-30.002-32.718c-6.756-12.393-11.924-24.991-14.73-32.343 8.753-13.196 27.309-35.736 44.732-35.736 17.428 0 35.988 22.553 44.73 35.734-2.807 7.355-7.974 19.953-14.73 32.345z"/></g></svg>