<svg id="Capa_1" enable-background="new 0 0 512 512" height="512" viewBox="0 0 512 512" width="512" xmlns="http://www.w3.org/2000/svg"><g><path d="m447.948 211.949-16.033-64.137c-6.057-24.23-23.429-43.158-45.648-51.757 3.022-6.043 4.733-12.851 4.733-20.055 0-24.813-20.187-45-45-45h-180c-24.813 0-45 20.187-45 45 0 7.206 1.712 14.016 4.736 20.061-22.646 8.683-40.668 27.828-46.649 51.751l-16.039 64.152c-35.693 5.741-63.048 36.749-63.048 74.036v90c0 24.813 20.187 45 45 45h15v15c0 24.813 20.187 45 45 45h16c24.813 0 45-20.187 45-45v-15h180v15c0 24.813 20.187 45 45 45h15c24.813 0 45-20.187 45-45v-15h16c24.813 0 45-20.187 45-45v-90c0-37.886-28.646-68.467-64.052-74.051zm-146.948-150.949h45c8.271 0 15 6.729 15 15s-6.729 15-15 15h-45zm-60 0h30v30h-30zm-75 0h45v30h-45c-8.271 0-15-6.729-15-15s6.729-15 15-15zm-57.81 94.088c4.939-19.752 23.719-34.088 44.658-34.088h206.307c20.688 0 38.64 14.017 43.657 34.088l13.976 55.912h-322.576zm27.81 280.912c0 8.271-6.729 15-15 15h-16c-8.271 0-15-6.729-15-15v-15h46zm285 0c0 8.271-6.729 15-15 15h-15c-8.271 0-15-6.729-15-15v-15h45zm61-60c0 8.271-6.729 15-15 15h-422c-8.271 0-15-6.729-15-15v-90c0-24.813 20.187-45 45-45h361c24.935 0 46 20.607 46 45z"/><path d="m406 271h-30c-24.813 0-45 20.187-45 45s20.187 45 45 45h30c24.813 0 45-20.187 45-45s-20.187-45-45-45zm0 60h-30c-8.271 0-15-6.729-15-15s6.729-15 15-15h30c8.271 0 15 6.729 15 15s-6.729 15-15 15z"/><path d="m136 271h-31c-24.813 0-45 20.187-45 45s20.187 45 45 45h31c24.813 0 45-20.187 45-45s-20.187-45-45-45zm0 60h-31c-8.271 0-15-6.729-15-15s6.729-15 15-15h31c8.271 0 15 6.729 15 15s-6.729 15-15 15z"/><path d="m286 271h-60c-8.284 0-15 6.716-15 15s6.716 15 15 15h60c8.284 0 15-6.716 15-15s-6.716-15-15-15z"/><path d="m286 331h-60c-8.284 0-15 6.716-15 15s6.716 15 15 15h60c8.284 0 15-6.716 15-15s-6.716-15-15-15z"/></g></svg>