<svg height="512" viewBox="0 0 55 60" width="512" xmlns="http://www.w3.org/2000/svg"><g id="Page-1" fill="none" fill-rule="evenodd"><g id="019---Ammunition" fill-rule="nonzero"><path id="Shape" d="m18 52.12v.88h1c1.1032019.0032948 1.9967052.8967981 2 2v2c-.0032948 1.1032019-.8967981 1.9967052-2 2h-16c-1.10320187-.0032948-1.9967052-.8967981-2-2v-2c.0032948-1.1032019.89679813-1.9967052 2-2h1v-.88c.00023464-1.3579174-.53939391-2.660221-1.5-3.62s-1.50023464-2.2620826-1.5-3.62v-17.88c.0032948-1.1032019.89679813-1.9967052 2-2h16c1.1032019.0032948 1.9967052.8967981 2 2v17.88c.0002346 1.3579174-.5393939 2.660221-1.5 3.62s-1.5002346 2.2620826-1.5 3.62z" fill="#ffdc00"/><path id="Shape" d="m19.5 48.5c.9606061-.959779 1.5002346-2.2620826 1.5-3.62v-17.88c-.0032948-1.1032019-.8967981-1.9967052-2-2h-3c1.1032019.0032948 1.9967052.8967981 2 2v17.88c.0002346 1.3579174-.5393939 2.660221-1.5 3.62s-1.5002346 2.2620826-1.5 3.62v.88h1c1.1032019.0032948 1.9967052.8967981 2 2v2c-.0032948 1.1032019-.8967981 1.9967052-2 2h3c1.1032019-.0032948 1.9967052-.8967981 2-2v-2c-.0032948-1.1032019-.8967981-1.9967052-2-2h-1v-.88c-.0002346-1.3579174.5393939-2.660221 1.5-3.62z" fill="#fec108"/><path id="Shape" d="m19 20h-16c0-14 8-19 8-19s8 5 8 19z" fill="#ffdc00"/><path id="Shape" d="m11 1c-.5350854.36969876-1.03697914.78526678-1.5 1.242 2.314 2.218 6.5 7.619 6.5 17.758h3c0-14-8-19-8-19z" fill="#fec108"/><path id="Rectangle-path" d="m3 20h16v5h-16z" fill="#ff9801"/><path id="Rectangle-path" d="m16 20h3v5h-3z" fill="#f57c00"/><path id="Shape" d="m52 46v7h-24v-7c0-.5522847.4477153-1 1-1v-42c.0032948-1.10320187.8967981-1.9967052 2-2h18c1.1032019.0032948 1.9967052.89679813 2 2v42c.2652165 0 .5195704.1053568.7071068.2928932s.2928932.4418903.2928932.7071068z" fill="#f44335"/><path id="Shape" d="m51 45v-42c-.0032948-1.10320187-.8967981-1.9967052-2-2h-3c1.1032019.0032948 1.9967052.89679813 2 2v42c.5522847 0 1 .4477153 1 1v7h3v-7c0-.5522847-.4477153-1-1-1z" fill="#c81e1e"/><rect id="Rectangle-path" fill="#9e9e9e" height="6" rx="2" width="28" x="25.415" y="53"/><path id="Shape" d="m51.416 53h-3c1.1029749.0038403 1.9961597.8970251 2 2v2c-.0038403 1.1029749-.8970251 1.9961597-2 2h3c1.1029749-.0038403 1.9961597-.8970251 2-2v-2c-.0038403-1.1029749-.8970251-1.9961597-2-2z" fill="#707070"/><g fill="#f5f5f5"><path id="Shape" d="m7.243 17.163c-.04378223-.0002051-.08751816-.002876-.131-.008-.26296805-.0345978-.50141929-.172249-.66289065-.3826681-.16147136-.2104192-.23273412-.4763674-.19810935-.7393319.38691261-3.6714551 1.75397623-7.17131754 3.958-10.133.3450468-.41675814.958988-.48349197 1.3855197-.15060244.4265316.33288953.5109358.94465184.1904803 1.38060244-1.98406394 2.68065687-3.21088703 5.8454598-3.552 9.163-.06518888.4972021-.48854322.8692407-.99.87z"/><path id="Shape" d="m5 45.879c-.55228475 0-1-.4477153-1-1v-15.879c0-.5522847.44771525-1 1-1s1 .4477153 1 1v15.879c0 .5522847-.44771525 1-1 1z"/><path id="Shape" d="m33 21c-.5522847 0-1-.4477153-1-1v-15c0-.55228475.4477153-1 1-1h5c.5522847 0 1 .44771525 1 1s-.4477153 1-1 1h-4v14c0 .5522847-.4477153 1-1 1z"/></g><path id="Shape" d="m3 60h16c1.6568542 0 3-1.3431458 3-3v-2c.0000132-1.6521792-1.335834-2.9933913-2.988-3 .0253415-1.0510998.4551811-2.0519098 1.2-2.794 1.1494526-1.1455906 1.7932215-2.7031655 1.788-4.326v-17.88c-.0052514-1.2667854-.8056491-2.3937454-2-2.816v-4.184c0-14.389-8.124-19.632-8.47-19.848-.3242708-.20266981-.7357292-.20266981-1.06 0-.346.216-8.47 5.459-8.47 19.848v4.184c-1.19435086.4222546-1.99474861 1.5492146-2 2.816v17.88c-.0041656 1.6239029.64146639 3.1819897 1.793 4.327.74274791.7426416 1.17073578 1.7429513 1.195 2.793-1.65216603.0066087-2.98801322 1.3478208-2.988 3v2c0 1.6568542 1.34314575 3 3 3zm1-39h14v3h-14zm7-18.766c1.677 1.33 6.667 6.186 6.971 16.766h-13.942c.305-10.583 5.297-15.439 6.971-16.766zm-9 52.766c0-.5522847.44771525-1 1-1h4c.55228475 0 1-.4477153 1-1s-.44771525-1-1-1h-2.006c-.02486112-1.5815836-.66601894-3.0910133-1.787-4.207-.77512152-.770904-1.20972861-1.8197942-1.207-2.913v-17.88c0-.5522847.44771525-1 1-1h16c.5522847 0 1 .4477153 1 1v17.88c.0027286 1.0932058-.4318785 2.142096-1.207 2.913-1.1209811 1.1159867-1.7621389 2.6254164-1.787 4.207h-5.006c-.5522847 0-1 .4477153-1 1s.4477153 1 1 1h7c.5522847 0 1 .4477153 1 1v2c0 .5522847-.4477153 1-1 1h-16c-.55228475 0-1-.4477153-1-1z" fill="#000"/><path id="Shape" d="m52 3c0-1.65685425-1.3431458-3-3-3h-18c-1.6568542 0-3 1.34314575-3 3v41.278c-.6167513.3544126-.997855 1.0106732-1 1.722v6.184c-1.1943509.4222546-1.9947486 1.5492146-2 2.816v2c0 1.6568542 1.3431458 3 3 3h24c1.6568542 0 3-1.3431458 3-3v-2c-.0052514-1.2667854-.8056491-2.3937454-2-2.816v-6.184c-.002145-.7113268-.3832487-1.3675874-1-1.722zm-21-1h18c.5522847 0 1 .44771525 1 1v41h-11c-.5522847 0-1 .4477153-1 1s.4477153 1 1 1h12v6h-22v-6h5c.5522847 0 1-.4477153 1-1s-.4477153-1-1-1h-4v-41c0-.55228475.4477153-1 1-1zm22 55c0 .5522847-.4477153 1-1 1h-24c-.5522847 0-1-.4477153-1-1v-2c0-.5522847.4477153-1 1-1h24c.5522847 0 1 .4477153 1 1z" fill="#000"/></g></g></svg>