<svg height="496pt" viewBox="-40 0 496 496" width="496pt" xmlns="http://www.w3.org/2000/svg"><path d="m152 88v-48h160l96 192v176h-32v-168l-96-152h-32" fill="#857970"/><path d="m152 40h32v48h-32zm0 0" fill="#695b52"/><path d="m248 178.273438v-90.273438h-112v90.273438c-60.703125 22.726562-104 81.09375-104 149.726562 0 88.367188 71.632812 160 160 160s160-71.632812 160-160c0-68.632812-43.296875-127-104-149.726562zm0 0" fill="#2d4d83"/><path d="m296.695312 207.304688c-14.269531-12.351563-30.6875-22.289063-48.695312-29.03125v-90.273438h-112v90.273438c-60.703125 22.726562-104 81.09375-104 149.726562 0 36.015625 12.046875 69.144531 32.128906 95.878906 1.296875.023438 2.574219.121094 3.871094.121094 110.167969 0 202.695312-92.128906 228.695312-216.695312zm0 0" fill="#4472b2"/><path d="m376 352h-360v-48h360" fill="#695b52"/><path d="m342.296875 305.191406c-8.183594-54.3125-45.402344-100.070312-97.105469-119.429687-3.121094-1.167969-5.191406-4.152344-5.191406-7.488281v-82.273438h-96v82.273438c0 3.335937-2.070312 6.320312-5.191406 7.496093-51.703125 19.359375-88.914063 65.117188-97.105469 119.429688l-15.832031-2.390625c8.785156-58.207032 47.695312-107.535156 102.128906-129.976563v-84.832031c0-4.425781 3.574219-8 8-8h112c4.425781 0 8 3.574219 8 8v84.832031c54.433594 22.449219 93.34375 71.777344 102.128906 129.976563zm0 0"/><path d="m192 496c-82.464844 0-153.871094-61.398438-166.128906-142.816406l15.832031-2.375c11.082031 73.65625 75.6875 129.191406 150.296875 129.191406s139.214844-55.535156 150.296875-129.183594l15.832031 2.375c-12.257812 81.410156-83.664062 142.808594-166.128906 142.808594zm0 0"/><path d="m408 416h-32c-4.425781 0-8-3.574219-8-8v-165.6875l-92.40625-146.3125h-27.59375v-16h32c2.742188 0 5.296875 1.40625 6.769531 3.726562l96 152c.796875 1.28125 1.230469 2.761719 1.230469 4.273438v160h16v-166.113281l-92.945312-185.886719h-147.054688v40h-16v-48c0-4.425781 3.574219-8 8-8h160c3.03125 0 5.800781 1.710938 7.160156 4.425781l96 192c.550782 1.101563.839844 2.335938.839844 3.574219v176c0 4.425781-3.574219 8-8 8zm0 0"/><path d="m112 112h160v16h-160zm0 0"/><path d="m176 16h16v72h-16zm0 0"/><path d="m64 128c-35.289062 0-64-28.710938-64-64s28.710938-64 64-64 64 28.710938 64 64-28.710938 64-64 64zm0-112c-26.472656 0-48 21.527344-48 48s21.527344 48 48 48 48-21.527344 48-48-21.527344-48-48-48zm0 0"/><path d="m80 48h72v16h-72zm0 0"/><path d="m376 360h-360c-4.425781 0-8-3.574219-8-8v-48c0-4.425781 3.574219-8 8-8h360v16h-352v32h352zm0 0"/><path d="m192 464v-16c66.167969 0 120-53.832031 120-120h16c0 74.992188-61.007812 136-136 136zm0 0"/><path d="m72 328h-16c0-74.992188 61.007812-136 136-136v16c-66.167969 0-120 53.832031-120 120zm0 0"/></svg>