<svg height="480pt" viewBox="-104 0 480 480" width="480pt" xmlns="http://www.w3.org/2000/svg"><path d="m24 8h224c8.835938 0 16 7.164062 16 16v432c0 8.835938-7.164062 16-16 16h-224c-8.835938 0-16-7.164062-16-16v-432c0-8.835938 7.164062-16 16-16zm0 0" fill="#b9b9b9"/><path d="m72 56h128c8.835938 0 16 7.164062 16 16v64c0 8.835938-7.164062 16-16 16h-128c-8.835938 0-16-7.164062-16-16v-64c0-8.835938 7.164062-16 16-16zm0 0" fill="#9c9c9c"/><path d="m8 200h256v80h-256zm0 0" fill="#ebebeb"/><path d="m88 320h16v16h-16zm0 0" fill="#787d82"/><path d="m168 320h16v16h-16zm0 0" fill="#787d82"/><path d="m88 368h16v16h-16zm0 0" fill="#787d82"/><path d="m168 368h16v16h-16zm0 0" fill="#787d82"/><g fill="#5d9aa4"><path d="m48 256h-16v-24c0-4.417969 3.582031-8 8-8h16v16h-8zm0 0"/><path d="m72 224h16v32h-16zm0 0"/><path d="m136 256h-24c-4.417969 0-8-3.582031-8-8v-24h16v16h16zm0 0"/><path d="m152 232h16v24h-16zm0 0"/><path d="m208 256h-16c-4.417969 0-8-3.582031-8-8v-24h16v16h8zm0 0"/><path d="m224 224h16v32h-16zm0 0"/></g><path d="m64 448h-24c-4.417969 0-8-3.582031-8-8v-24h16v16h16zm0 0" fill="#d9d9d9"/><path d="m80 432h16v16h-16zm0 0" fill="#d9d9d9"/><path d="m88 88h96v32h-96zm0 0" fill="#8aced8"/><path d="m139.3125 88h-22.625l-28.6875 28.6875v3.3125h19.3125zm0 0" fill="#b3e4e8"/><path d="m132.6875 120h22.625l28.6875-28.6875v-3.3125h-19.3125zm0 0" fill="#b3e4e8"/><path d="m24 0c-13.253906 0-24 10.746094-24 24v432c0 13.253906 10.746094 24 24 24h224c13.253906 0 24-10.746094 24-24v-432c0-13.253906-10.746094-24-24-24zm232 456c0 4.417969-3.582031 8-8 8h-224c-4.417969 0-8-3.582031-8-8v-168h240zm0-184h-240v-64h240zm0-248v168h-240v-168c0-4.417969 3.582031-8 8-8h224c4.417969 0 8 3.582031 8 8zm0 0"/><path d="m200 48h-128c-13.253906 0-24 10.746094-24 24v64c0 13.253906 10.746094 24 24 24h128c13.253906 0 24-10.746094 24-24v-64c0-13.253906-10.746094-24-24-24zm8 88c0 4.417969-3.582031 8-8 8h-128c-4.417969 0-8-3.582031-8-8v-64c0-4.417969 3.582031-8 8-8h128c4.417969 0 8 3.582031 8 8zm0 0"/><path d="m88 320h16v16h-16zm0 0"/><path d="m168 320h16v16h-16zm0 0"/><path d="m88 368h16v16h-16zm0 0"/><path d="m168 368h16v16h-16zm0 0"/><path d="m48 240h8v-16h-16c-4.417969 0-8 3.582031-8 8v24h16zm0 0"/><path d="m72 224h16v32h-16zm0 0"/><path d="m112 256h24v-16h-16v-16h-16v24c0 4.417969 3.582031 8 8 8zm0 0"/><path d="m152 232h16v24h-16zm0 0"/><path d="m192 256h16v-16h-8v-16h-16v24c0 4.417969 3.582031 8 8 8zm0 0"/><path d="m224 224h16v32h-16zm0 0"/><path d="m40 448h24v-16h-16v-16h-16v24c0 4.417969 3.582031 8 8 8zm0 0"/><path d="m80 432h16v16h-16zm0 0"/><path d="m184 80h-96c-4.417969 0-8 3.582031-8 8v32c0 4.417969 3.582031 8 8 8h96c4.417969 0 8-3.582031 8-8v-32c0-4.417969-3.582031-8-8-8zm-88 28.6875v-12.6875h12.6875zm44.6875 3.3125h-25.375l16-16h25.375zm35.3125 0h-12.6875l12.6875-12.6875zm0 0"/></svg>