<svg id="_x33_0" enable-background="new 0 0 64 64" height="512" viewBox="0 0 64 64" width="512" xmlns="http://www.w3.org/2000/svg"><g><g><g><path d="m42.75 28.25-2.75 2.75-3 3-2 2-4-4 5.25-5.25 2.5-2.5z" fill="#969faa"/></g><g><path d="m31.25 21.75 5 5-5.25 5.25-5-5 4-4z" fill="#969faa"/></g><g><path d="m23 28 1-1h2l5 5 4 4-4 4-10-10z" fill="#aab2bd"/></g><g><path d="m21 30-10 10-6.5 6.5 12.64 12.64 1.86-11.14 6-6h4l2-2z" fill="#aab2bd"/></g><g><path d="m41.17 32.17c.53.53.83 1.25.83 2 0 .78-.32 1.49-.83 2s-1.22.83-2 .83h-2.17v-3l3-3z" fill="#838f9b"/></g><g><path d="m35 36 2-2v3 6 9h-8v-10l2-2z" fill="#aab2bd"/></g><g><path d="m52 28-3 3-3 3 7.25 7.25 3-3 3-3z" fill="#aab2bd"/></g><g><path d="m61.29 35.79c.46.46.71 1.07.71 1.71s-.25 1.25-.71 1.71l-4.08 4.08c-.46.46-1.07.71-1.71.71s-1.25-.25-1.71-.71l-1.29-1.29.75-.75 3-3 3-3 .75-.75z" fill="#fcd770"/></g><g><path d="m17.14 59.14-.14.86-2 2-13-13 2.5-2.5z" fill="#fcd770"/></g><g><path d="m39 52v4h-12v-4h2 8z" fill="#fcd770"/></g><g><path d="m24 27-1 1-2-2 1.5-1.5 3-3 1.5-1.5 3 3-4 4z" fill="#ffeaa7"/></g><g><path d="m20.629 19.982h4.243v3.536h-4.243z" fill="#fcd770" transform="matrix(.707 -.707 .707 .707 -8.716 22.457)"/></g><g><path d="m44 9-2.75 2.75-2.5 2.5-2.5 2.5-2.5 2.5-2.5 2.5 5 5 2.5-2.5 2.5-2.5 2.5-2.5 2.5-2.5 2.75-2.75z" fill="#ffeaa7"/></g><g><path d="m46.25 16.75 2.75-2.75 2 2 2 2-5.5 5.5-4.75 4.75-4-4 2.5-2.5 2.5-2.5z" fill="#ccd1d9"/></g><g><path d="m51.464 6.879h7.071v4.243h-7.071z" fill="#e6e9ed" transform="matrix(.707 -.707 .707 .707 9.745 41.527)"/></g><g><path d="m56.879 2.879h4.243v4.243h-4.243z" fill="#fcd770" transform="matrix(.707 -.707 .707 .707 13.745 43.184)"/></g><g><path d="m54 13-3 3-2-2-5-5 3-3 4 4z" fill="#838f9b"/></g><g><path d="m47 6-3 3-1-1-.83-.83c-.75-.75-1.17-1.77-1.17-2.83v-1.34h1.34c1.06 0 2.08.42 2.83 1.17z" fill="#838f9b"/></g></g><g><circle cx="47.75" cy="19.25" r="1"/><circle cx="45.75" cy="21.25" r="1"/><circle cx="43.75" cy="23.25" r="1"/><path d="m60 33.086-.75.75-10.336-10.336 5.5-5.5-2-2 11-11-4.414-4.414-8 8-5.121-5.121c-.945-.944-2.201-1.465-3.536-1.465h-2.343v2.343c0 1.336.52 2.592 1.464 3.536l1.122 1.121-12.586 12.586-3-3-1.5 1.5-2.5-2.5-4.414 4.414 2.5 2.5-1.5 1.5 2 2-21 21 14.414 14.414 2.934-2.934 2-12 5.48-5.48h2.586v8h-2v6h14v-6h-2v-7.586l8-8 5.836 5.836-.75.75 2 2c.645.645 1.502 1 2.415 1s1.77-.355 2.414-1l4.085-4.086c.645-.646 1-1.503 1-2.414s-.355-1.769-1-2.414zm-3.75 3.75-5.836-5.836 1.586-1.586 5.836 5.836zm-5.664-8.836-8.157 8.157c.355-.58.571-1.256.571-1.985 0-1.023-.398-1.984-1.122-2.707l-.464-.465 6.086-6.086zm-10.121 4.879c.34.341.535.811.535 1.293 0 1.008-.82 1.828-1.829 1.828h-1.171v-1.586l2-2zm-9.465 5.707-8.586-8.586 2-2h1.172l8 8zm.25-15.422 3.586 3.586-3.836 3.836-3.586-3.586zm12.5-5.328-3.586-3.586 1.086-1.086 3.586 3.586zm-1.414 1.414-1.086 1.086-3.586-3.586 1.086-1.086zm-2.5 2.5-1.086 1.086-3.586-3.586 1.086-1.086zm-2.5 2.5-1.086 1.086-3.586-3.586 1.086-1.086zm-4.922 7.75 6.336-6.336 2.586 2.586-6.336 6.336zm10.336-5.164-2.586-2.586 8.836-8.836 2.586 2.586zm2.664-17.836 1.586-1.586 5.586 5.586-1.586 1.586zm15.172-4-1.586 1.586-1.586-1.586 1.586-1.586zm-4.586 1.414 1.586 1.586-3.586 3.586-1.586-1.586zm-13.122.051c-.566-.567-.878-1.32-.878-2.122v-.343h.343c.79 0 1.562.32 2.121.879l1.122 1.121-1.586 1.586zm4.708 7.535-1.336 1.336-3.586-3.586 1.336-1.336zm-26.172 8 1.586-1.586 1.086 1.086-1.586 1.586zm1 4 4.586-4.586 1.586 1.586-3 3h-2l-.586.586zm-11.414 15.414 6.929 6.929-1.453 8.718-10.562-10.561zm4 19.172-11.586-11.586 1.086-1.086 11.572 11.572-.006.034zm9.586-19.586-5.586 5.586-6.586-6.586 8.586-8.586 8.586 8.586-1 1zm13.414 14h-10v-2h10zm-8-4v-8.586l6-6v14.586zm8-13h1.171c.73 0 1.405-.216 1.986-.572l-3.157 3.158zm9.414-4 1.586-1.586 5.836 5.836-1.586 1.586zm13.172 4.5-4.086 4.086c-.533.535-1.465.535-2 0l-.586-.586 6.086-6.086.585.586c.268.268.415.622.415 1s-.147.732-.414 1z"/></g></g></svg>