<svg id="filled_outline" height="512" viewBox="0 0 512 512" width="512" xmlns="http://www.w3.org/2000/svg" data-name="filled outline"><path d="m32 384h80v72h-80z" fill="#d3aa4f"/><path d="m24 456h96v32h-96z" fill="#e6c06c"/><path d="m32 136h80v248h-80z" fill="#bc674a"/><path d="m152 336h80v96h-80z" fill="#e6c06c"/><path d="m152 336 8-40h64l8 40z" fill="#f5d389"/><path d="m160 296v-27.15562a95.26659 95.26659 0 0 1 16-52.84438h32a95.26659 95.26659 0 0 1 16 52.84436v27.15564z" fill="#e6c06c"/><path d="m160 432h64v24h-64z" fill="#d3aa4f"/><path d="m152 456h80v32h-80z" fill="#e6c06c"/><path d="m272 264h80v168h-80z" fill="#e6c06c"/><path d="m280 432h64v24h-64z" fill="#d3aa4f"/><path d="m264 456h96v32h-96z" fill="#e6c06c"/><path d="m408 432h64v24h-64z" fill="#d3aa4f"/><path d="m392 456h96v32h-96z" fill="#e6c06c"/><path d="m288 208v-20.22295a151.554 151.554 0 0 1 16-67.77705h16a151.554 151.554 0 0 1 16 67.777v20.223z" fill="#e6c06c"/><path d="m272 264h80l-16-56h-48z" fill="#f5d389"/><path d="m392 168h96v264h-96z" fill="#e6c06c"/><path d="m408 112v-10.74521a109.25471 109.25471 0 0 1 32-77.25479 109.25471 109.25471 0 0 1 32 77.25476v10.74524z" fill="#e6c06c"/><path d="m488 168-16-56h-64l-16 56z" fill="#f5d389"/><path d="m24 496h96a8.00008 8.00008 0 0 0 8-8v-32a8.00008 8.00008 0 0 0 -8-8v-312a8.00008 8.00008 0 0 0 -8-8h-80a8.00008 8.00008 0 0 0 -8 8v312a8.00008 8.00008 0 0 0 -8 8v32a8.00008 8.00008 0 0 0 8 8zm88-16h-80v-16h80zm-8-336v232h-64v-232zm-64 248h64v56h-64z"/><path d="m152 496h80a8.00008 8.00008 0 0 0 8-8v-32a8.00008 8.00008 0 0 0 -8-8v-8a8.00008 8.00008 0 0 0 8-8v-96a8.0405 8.0405 0 0 0 -.15576-1.56873l.00049-.00012-.00269-.0133-.011-.05518-7.83104-39.15515v-26.36328a102.94025 102.94025 0 0 0 -17.34375-57.28174 7.99943 7.99943 0 0 0 -6.65625-3.5625h-32a7.99943 7.99943 0 0 0 -6.65625 3.5625 102.94025 102.94025 0 0 0 -17.34375 57.28174v26.36328l-7.831 39.15515-.011.05518-.00269.0133.00049.00012a8.0405 8.0405 0 0 0 -.1558 1.56873v96a8.00008 8.00008 0 0 0 8 8v8a8.00008 8.00008 0 0 0 -8 8v32a8.00008 8.00008 0 0 0 8 8zm72-16h-64v-16h64zm-6.55859-176 4.8 24h-60.48287l4.8-24zm-57.44141 40h64v80h-64zm20.40234-120h23.19532a86.95865 86.95865 0 0 1 12.40234 44.84424v19.15576h-48v-19.15576a86.95865 86.95865 0 0 1 12.40234-44.84424zm-12.40234 216h48v8h-48z"/><path d="m264 496h96a8.00008 8.00008 0 0 0 8-8v-32a8.00008 8.00008 0 0 0 -8-8h-8v-8a8.00008 8.00008 0 0 0 8-8v-168a8.00533 8.00533 0 0 0 -.30762-2.19775l-15.69238-54.92334v-19.102a160.363 160.363 0 0 0 -16.84473-71.3545 7.99979 7.99979 0 0 0 -7.15527-4.42241h-16a7.99979 7.99979 0 0 0 -7.15527 4.42236 160.363 160.363 0 0 0 -16.84473 71.3545v19.102l-15.69238 54.92334a8.00533 8.00533 0 0 0 -.30762 2.1978v168a8.00008 8.00008 0 0 0 8 8v8h-8a8.00008 8.00008 0 0 0 -8 8v32a8.00008 8.00008 0 0 0 8 8zm16-224h64v152h-64zm49.96582-56 11.42818 40h-58.788l11.42822-40zm-20.92676-88h5.92188a144.37589 144.37589 0 0 1 13.03906 59.77686v12.22314h-32v-12.22314a144.37589 144.37589 0 0 1 13.03906-59.77686zm-21.03906 312h48v8h-48zm-16 24h80v16h-80z"/><path d="m480 110.87891v-9.624a116.487 116.487 0 0 0 -34.34277-82.91162 8.00122 8.00122 0 0 0 -11.31446 0 116.487 116.487 0 0 0 -34.34277 82.91159v9.624l-15.69238 54.92334a8.00533 8.00533 0 0 0 -.30762 2.19778v264a8.00008 8.00008 0 0 0 8 8h8v8h-8a8.00008 8.00008 0 0 0 -8 8v32a8.00008 8.00008 0 0 0 8 8h96a8.00008 8.00008 0 0 0 8-8v-32a8.00008 8.00008 0 0 0 -8-8h-8v-8h8a8.00008 8.00008 0 0 0 8-8v-264a8.00533 8.00533 0 0 0 -.30762-2.19775zm-14.03418 9.12109 11.42818 40h-74.788l11.42822-40zm-25.96582-84.21143a100.50317 100.50317 0 0 1 24 65.46631v2.74512h-48v-2.74512a100.50317 100.50317 0 0 1 24-65.46631zm40 444.21143h-80v-16h80zm-16-32h-48v-8h48zm-64-24v-248h80v248z"/></svg>