<svg height="512" viewBox="0 0 64 64" width="512" xmlns="http://www.w3.org/2000/svg"><g id="Filled_outline" data-name="Filled outline"><path d="m51 28v-25h-10v8a9 9 0 0 1 -18 0v-8h-10v25a4 4 0 0 1 -4 4h-1v27l5 2h38l5-2v-27h-1a4 4 0 0 1 -4-4z" fill="#7d8d9c"/><path d="m41 3h10v4h-10z" fill="#394d5c"/><path d="m13 3h10v4h-10z" fill="#394d5c"/><path d="m13 11h6v4h-6z" fill="#5a6470"/><path d="m13 15h6v4h-6z" fill="#aabece"/><path d="m45 11h6v4h-6z" fill="#5a6470"/><path d="m45 15h6v4h-6z" fill="#aabece"/><path d="m21 24h22v4h-22z" fill="#5a6470"/><path d="m21 28h22v10h-22z" fill="#394d5c"/><path d="m17 24h4v6h-4z" fill="#aabece"/><path d="m17 34h4v4h-4z" fill="#aabece"/><path d="m43 24h4v6h-4z" fill="#aabece"/><path d="m43 34h4v4h-4z" fill="#aabece"/><path d="m25 50-3-3v10h10v-10l-3 3z" fill="#2a3d49"/><path d="m29 50h-4l-3-3v-5h10v5z" fill="#454f59"/><path d="m35 50-3-3v10h10v-10l-3 3z" fill="#394d5c"/><path d="m39 50h-4l-3-3v-5h10v5z" fill="#5a6470"/><path d="m45 50-3-3v10h10v-10l-3 3z" fill="#2a3d49"/><path d="m49 50h-4l-3-3v-5h10v5z" fill="#454f59"/><path d="m15 50-3-3v10h10v-10l-3 3z" fill="#394d5c"/><path d="m19 50h-4l-3-3v-5h10v5z" fill="#5a6470"/><g fill="#f4f4e6"><path d="m11 37h2v2h-2z"/><path d="m11 33h2v2h-2z"/><path d="m51 37h2v2h-2z"/><path d="m51 33h2v2h-2z"/><path d="m25 28v2a2 2 0 0 0 2 2h1a2 2 0 0 0 2-2v-2"/><path d="m34 28v2a2 2 0 0 0 2 2h1a2 2 0 0 0 2-2v-2"/><path d="m22 19h2v2h-2z"/><path d="m40 19h2v2h-2z"/></g><path d="m24 2h-12v26a3 3 0 0 1 -3 3h-2v28.677l5.808 2.323h38.384l5.808-2.323v-28.677h-2a3 3 0 0 1 -3-3v-26h-12v9a8 8 0 0 1 -16 0zm-10 2h8v2h-8zm0 8h4v2h-4zm0 4h4v2h-4zm28-12h8v2h-8zm-10 17a10.011 10.011 0 0 0 10-10v-3h8v2h-6v10h6v8a5.006 5.006 0 0 0 5 5v25.323l-4.192 1.677h-37.616l-4.192-1.677v-25.323a5.006 5.006 0 0 0 5-5v-8h6v-10h-6v-2h8v3a10.011 10.011 0 0 0 10 10zm14-7v-2h4v2zm4 2v2h-4v-2z"/><path d="m16 23v8h4v2h-4v6h32v-6h-4v-2h4v-8zm4 14h-2v-2h2zm0-8h-2v-4h2zm24-4h2v4h-2zm0 10h2v2h-2zm-2 2h-20v-8h2v1a3 3 0 0 0 3 3h1a3 3 0 0 0 3-3v-1h2v1a3 3 0 0 0 3 3h1a3 3 0 0 0 3-3v-1h2zm-16-7v-1h3v1a1 1 0 0 1 -1 1h-1a1 1 0 0 1 -1-1zm9 0v-1h3v1a1 1 0 0 1 -1 1h-1a1 1 0 0 1 -1-1zm7-3h-20v-2h20z"/><path d="m11 41v17h42v-17zm10 15h-8v-6.586l1.586 1.586h1.414v2h2v-2h1.414l1.586-1.586zm0-11.414v2l-2.414 2.414h-3.172l-2.414-2.414v-3.586h8zm10 11.414h-8v-6.586l1.586 1.586h1.414v2h2v-2h1.414l1.586-1.586zm0-11.414v2l-2.414 2.414h-3.172l-2.414-2.414v-3.586h8zm10 11.414h-8v-6.586l1.586 1.586h1.414v2h2v-2h1.414l1.586-1.586zm0-11.414v2l-2.414 2.414h-3.172l-2.414-2.414v-3.586h8zm10 11.414h-8v-6.586l1.586 1.586h1.414v2h2v-2h1.414l1.586-1.586zm0-9.414-2.414 2.414h-3.172l-2.414-2.414v-3.586h8z"/><path d="m11 37h2v2h-2z"/><path d="m11 33h2v2h-2z"/><path d="m51 37h2v2h-2z"/><path d="m51 33h2v2h-2z"/><path d="m22 19h2v2h-2z"/><path d="m40 19h2v2h-2z"/></g></svg>