<svg height="512pt" viewBox="0 0 512 512" width="512pt" xmlns="http://www.w3.org/2000/svg"><path d="m315.734375 315.722656h162.132813v170.667969h-162.132813zm0 0" fill="#9e9e9e"/><path d="m315.734375 315.722656h128v170.667969h-128zm0 0" fill="#cfd8dc"/><path d="m170.667969 315.722656h162.132812v170.667969h-162.132812zm0 0" fill="#f44335"/><path d="m25.601562 315.722656h170.664063v179.199219h-170.664063zm0 0" fill="#9e9e9e"/><path d="m469.332031 494.921875v-187.730469c0-4.714844 3.820313-8.535156 8.535157-8.535156h17.066406c4.710937 0 8.53125 3.820312 8.53125 8.535156v187.730469c0 4.714844-3.820313 8.535156-8.53125 8.535156h-17.066406c-4.714844 0-8.535157-3.820312-8.535157-8.535156zm0 0" fill="#607d8b"/><path d="m332.800781 486.390625v-170.667969h34.132813v170.667969zm0 0" fill="#607d8b"/><path d="m196.265625 418.125v-34.132812h59.734375c4.710938 0 8.535156 3.820312 8.535156 8.53125v17.066406c0 4.714844-3.824218 8.535156-8.535156 8.535156zm0 0" fill="#9e9e9e"/><path d="m17.066406 469.324219h187.734375c4.710938 0 8.53125 3.820312 8.53125 8.53125v17.066406c0 4.714844-3.820312 8.535156-8.53125 8.535156h-187.734375c-4.710937 0-8.53125-3.820312-8.53125-8.535156v-17.066406c0-4.710938 3.820313-8.53125 8.53125-8.53125zm0 0" fill="#37474f"/><path d="m25.601562 332.789062h170.664063v34.132813h-170.664063zm0 0" fill="#37474f"/><path d="m170.667969 315.722656v179.199219h-162.132813v-17.066406c0-4.710938 3.820313-8.53125 8.53125-8.53125h8.535156v-153.601563zm0 0" fill="#cfd8dc"/><path d="m17.066406 469.324219h162.132813c4.714843 0 8.535156 3.820312 8.535156 8.53125v17.066406c0 4.714844-3.820313 8.535156-8.535156 8.535156h-162.132813c-4.710937 0-8.53125-3.820312-8.53125-8.535156v-17.066406c0-4.710938 3.820313-8.53125 8.53125-8.53125zm0 0" fill="#607d8b"/><path d="m25.601562 332.789062h145.066407v34.132813h-145.066407zm0 0" fill="#607d8b"/><path d="m25.601562 85.324219h170.664063v247.464843h-170.664063zm0 0" fill="#c52828"/><path d="m25.601562 85.324219h145.066407v247.464843h-145.066407zm0 0" fill="#f44335"/><path d="m196.265625 44.703125v49.152344h-25.597656v-49.152344c-.007813-1.332031-.332031-2.648437-.941407-3.839844l-7.847656-20.050781 8.957032-9.730469c1.941406-1.933593 4.691406-2.816406 7.394531-2.378906 2.703125.441406 5.03125 2.152344 6.261719 4.597656l10.835937 27.5625c.609375 1.191407.929687 2.507813.9375 3.839844zm0 0" fill="#c52828"/><path d="m170.667969 44.703125v49.152344h-145.066407v-49.152344c.007813-1.332031.328126-2.648437.9375-3.839844l7.851563-20.050781 2.984375-7.511719c1.230469-2.445312 3.558594-4.15625 6.261719-4.597656 2.703125-.4375 5.453125.445313 7.394531 2.378906l4.433594 4.78125 6.742187 7.335938c3.355469 3.328125 8.765625 3.328125 12.117188 0l1.367187-1.449219 9.8125-10.667969c1.695313-1.726562 4.050782-2.644531 6.46875-2.511719 2.417969.128907 4.664063 1.292969 6.160156 3.195313.4375.441406.785157.964844 1.023438 1.535156l4.097656 16.128907c1.457032 2.90625 4.429688 4.738281 7.679688 4.738281s6.222656-1.832031 7.679687-4.738281l1.960938-7.679688 2.136719-8.449219c1.226562-2.445312 3.554687-4.15625 6.257812-4.597656 2.703125-.4375 5.453125.445313 7.394531 2.378906l4.4375 4.78125 6.742188 7.335938c3.351562 3.328125 8.761719 3.328125 12.117187 0l2.21875-2.386719 7.847656 20.050781c.609376 1.191407.933594 2.507813.941407 3.839844zm0 0" fill="#f44335"/><path d="m102.398438 179.191406h17.066406c4.714844 0 8.535156 3.820313 8.535156 8.53125v68.269532c0 4.710937-3.820312 8.53125-8.535156 8.53125h-17.066406c-4.710938 0-8.53125-3.820313-8.53125-8.53125v-68.269532c0-4.710937 3.820312-8.53125 8.53125-8.53125zm0 0" fill="#9e9e9e"/><path d="m204.800781 511.992188h-187.734375c-9.425781 0-17.066406-7.644532-17.066406-17.070313v-17.066406c0-9.425781 7.640625-17.066407 17.066406-17.066407h187.734375c9.425781 0 17.066407 7.640626 17.066407 17.066407v17.066406c0 9.425781-7.640626 17.070313-17.066407 17.070313zm-187.734375-34.136719v17.066406h187.734375v-17.066406zm0 0"/><path d="m196.265625 477.855469h-170.664063c-4.714843 0-8.535156-3.820313-8.535156-8.53125v-102.402344c0-4.710937 3.820313-8.53125 8.535156-8.53125h170.664063c4.714844 0 8.535156 3.820313 8.535156 8.53125v102.402344c0 4.710937-3.820312 8.53125-8.535156 8.53125zm-162.132813-17.066407h153.601563v-85.332031h-153.601563zm0 0"/><path d="m196.265625 375.457031h-170.664063c-4.714843 0-8.535156-3.820312-8.535156-8.535156v-34.132813c0-4.710937 3.820313-8.53125 8.535156-8.53125h170.664063c4.714844 0 8.535156 3.820313 8.535156 8.53125v34.132813c0 4.714844-3.820312 8.535156-8.535156 8.535156zm-162.132813-17.066406h153.601563v-17.066406h-153.601563zm0 0"/><path d="m196.265625 341.324219h-170.664063c-4.714843 0-8.535156-3.820313-8.535156-8.535157v-238.933593c0-4.710938 3.820313-8.53125 8.535156-8.53125h170.664063c4.714844 0 8.535156 3.820312 8.535156 8.53125v238.933593c0 4.714844-3.820312 8.535157-8.535156 8.535157zm-162.132813-17.066407h153.601563v-221.867187h-153.601563zm0 0"/><path d="m196.265625 102.390625h-170.664063c-4.714843 0-8.535156-3.820313-8.535156-8.535156v-49.175781c-.003906-2.667969.613282-5.296876 1.808594-7.679688l10.539062-26.847656c2.390626-5.226563 7.207032-8.9375 12.867188-9.914063 5.421875-.875 10.929688.90625 14.816406 4.785157l11.398438 12.390624 10.691406-12.132812c3.84375-4.023438 9.402344-5.921875 14.898438-5.089844 5.5.832032 10.246093 4.292969 12.726562 9.269532.269531.546874.484375 1.117187.640625 1.707031l3.480469 13.757812 3.480468-13.738281c.15625-.589844.371094-1.164062.640626-1.707031 2.445312-4.925781 7.117187-8.371094 12.542968-9.253907 5.429688-.882812 10.949219.902344 14.832032 4.796876l11.171874 12.144531 10.921876-11.886719c3.839843-4.023438 9.398437-5.921875 14.898437-5.089844 5.496094.832032 10.246094 4.292969 12.722656 9.269532l11.164063 28.265624c1.011718 2.175782 1.523437 4.550782 1.492187 6.953126v49.175781c0 4.714843-3.820312 8.535156-8.535156 8.535156zm-162.082031-17.066406h153.550781v-40.644531l-11.164063-28.269532-10.632812 12.59375-.253906.253906c-3.203125 3.210938-7.550782 5.015626-12.082032 5.015626-4.535156 0-8.882812-1.804688-12.085937-5.015626l-11.023437-12.023437-3.636719 14.328125c-.144531.59375-.355469 1.164062-.628907 1.707031-2.882812 5.8125-8.808593 9.488281-15.292968 9.488281-6.488282 0-12.410156-3.675781-15.292969-9.488281-.273437-.542969-.484375-1.113281-.628906-1.707031l-3.628907-14.285156-10.777343 11.726562c-3.191407 3.292969-7.570313 5.171875-12.15625 5.222656-4.589844.046876-9.003907-1.742187-12.265625-4.96875l-11.402344-12.421874-10.332031 27.136718zm0 0"/><path d="m119.464844 273.058594h-17.066406c-9.425782 0-17.066407-7.644532-17.066407-17.066406v-68.269532c0-9.425781 7.640625-17.066406 17.066407-17.066406h17.066406c9.425781 0 17.070312 7.640625 17.070312 17.066406v68.269532c0 9.421874-7.644531 17.066406-17.070312 17.066406zm-17.066406-85.335938v68.269532h17.066406v-68.269532zm0 0"/><path d="m494.933594 511.992188h-17.066406c-9.425782 0-17.066407-7.644532-17.066407-17.070313v-187.730469c0-9.425781 7.640625-17.066406 17.066407-17.066406h17.066406c9.425781 0 17.066406 7.640625 17.066406 17.066406v187.730469c0 9.425781-7.640625 17.070313-17.066406 17.070313zm-17.066406-204.800782v187.730469h17.066406v-187.730469zm0 0"/><path d="m469.332031 494.921875h-102.398437c-4.714844 0-8.535156-3.820313-8.535156-8.53125v-170.667969c0-4.710937 3.820312-8.53125 8.535156-8.53125h102.398437c4.714844 0 8.535157 3.820313 8.535157 8.53125v170.667969c0 4.710937-3.820313 8.53125-8.535157 8.53125zm-93.867187-17.066406h85.335937v-153.597657h-85.335937zm0 0"/><path d="m366.933594 494.921875h-34.132813c-4.714843 0-8.535156-3.820313-8.535156-8.53125v-170.667969c0-4.710937 3.820313-8.53125 8.535156-8.53125h34.132813c4.710937 0 8.53125 3.820313 8.53125 8.53125v170.667969c0 4.710937-3.820313 8.53125-8.53125 8.53125zm-25.601563-17.066406h17.066407v-153.597657h-17.066407zm0 0"/><path d="m332.800781 494.921875h-119.46875c-4.710937 0-8.53125-3.820313-8.53125-8.53125 0-4.714844 3.820313-8.535156 8.53125-8.535156h110.933594v-153.597657h-128c-4.710937 0-8.53125-3.820312-8.53125-8.535156 0-4.710937 3.820313-8.53125 8.53125-8.53125h136.535156c4.710938 0 8.53125 3.820313 8.53125 8.53125v170.667969c0 4.710937-3.820312 8.53125-8.53125 8.53125zm0 0"/><path d="m256 426.65625h-59.734375c-4.710937 0-8.53125-3.820312-8.53125-8.53125v-34.132812c0-4.714844 3.820313-8.535157 8.53125-8.535157h59.734375c9.425781 0 17.066406 7.640625 17.066406 17.066407v17.066406c0 9.425781-7.640625 17.066406-17.066406 17.066406zm-51.199219-17.066406h51.199219v-17.066406h-51.199219zm0 0"/></svg>