<svg id="FilledOutline" height="512" viewBox="0 0 512 512" width="512" xmlns="http://www.w3.org/2000/svg"><path d="m56 160h32a0 0 0 0 1 0 0v80a0 0 0 0 1 0 0h-32a16 16 0 0 1 -16-16v-48a16 16 0 0 1 16-16z" fill="#6a6a33"/><path d="m440 160h32a0 0 0 0 1 0 0v80a0 0 0 0 1 0 0h-32a16 16 0 0 1 -16-16v-48a16 16 0 0 1 16-16z" fill="#6a6a33" transform="matrix(-1 0 0 -1 896 400)"/><path d="m256 32 59.919 12.483a160 160 0 0 1 127.266 162.348l-3.185 89.169-111.375 167.063a56 56 0 0 1 -46.595 24.937h-52.06a56 56 0 0 1 -46.595-24.937l-111.375-167.063-3.185-89.169a160 160 0 0 1 127.266-162.348z" fill="#8d8d54"/><path d="m224 24h64a16 16 0 0 1 16 16v16a0 0 0 0 1 0 0h-96a0 0 0 0 1 0 0v-16a16 16 0 0 1 16-16z" fill="#6a6a33"/><path d="m192 384v-48a64 64 0 0 1 128 0v48z" fill="#6a6a33"/><circle cx="256" cy="384" fill="#b9b973" r="64"/><path d="m240 175.38a35.062 35.062 0 0 1 -12.86 27.14l-37.58 30.75-.01.01-22.41 18.33-3.74 3.06a41.135 41.135 0 0 1 -16.17 8.1 40.437 40.437 0 0 1 -9.96 1.23 41.283 41.283 0 0 1 -41.27-41.27v-31.8a56.271 56.271 0 0 1 62.54-55.98l32.18 3.57 15.4 1.71 2.69.3a35.082 35.082 0 0 1 31.19 34.85z" fill="#ccdce5"/><path d="m416 190.93v31.8a41.274 41.274 0 0 1 -67.4 31.94l-5.08-4.16-12.73-10.41-31.04-25.4-14.89-12.18a35.07 35.07 0 0 1 18.33-61.99l23.67-2.63 26.6-2.95a56.317 56.317 0 0 1 62.54 55.98z" fill="#ccdce5"/><g fill="#e9f0f1"><path d="m367.82 135.18-37.03 104.92-31.04-25.4 27.11-76.8 26.6-2.95a55.947 55.947 0 0 1 14.36.23z"/><path d="m395.57 147.52-39.25 112.14a41.217 41.217 0 0 1 -7.72-4.99l-5.08-4.16 38.89-111.12a56.472 56.472 0 0 1 13.16 8.13z"/><path d="m220.77 144.09-31.21 89.18-.01.01-22.41 18.33 38.98-111.38 2.69.3a35.045 35.045 0 0 1 11.96 3.56z"/><path d="m190.72 138.52-43.49 124.25a40.437 40.437 0 0 1 -9.96 1.23 41.117 41.117 0 0 1 -26.96-10.03l41.78-119.37a56.247 56.247 0 0 1 6.45.35z"/></g><path d="m97.285 311.466 32.555-5.919c11.986-2.179 25.943 19.375 31.174 48.142s-.247 53.855-12.233 56.034l-32.555 5.919z" fill="#6a6a33"/><path d="m49.143 293.314 32.557-5.914c17.98-3.269 38.915 29.062 46.761 72.213s-.37 80.782-18.349 84.051l-32.555 5.919z" fill="#b9b973"/><ellipse cx="63.349" cy="371.446" fill="#8d8d54" rx="33.089" ry="79.413" transform="matrix(.984 -.179 .179 .984 -65.425 17.324)"/><ellipse cx="47.071" cy="374.406" fill="#ded9af" rx="16.544" ry="39.706" transform="matrix(.984 -.179 .179 .984 -66.217 14.46)"/><circle cx="256" cy="384" fill="#ded9af" r="24"/><path d="m414.715 311.466-32.555-5.919c-11.986-2.179-25.943 19.375-31.174 48.142s.247 53.855 12.233 56.034l32.555 5.919z" fill="#6a6a33"/><path d="m462.857 293.314-32.557-5.914c-17.98-3.269-38.915 29.062-46.761 72.213s.37 80.782 18.349 84.051l32.555 5.919z" fill="#b9b973"/><ellipse cx="448.651" cy="371.446" fill="#8d8d54" rx="79.413" ry="33.089" transform="matrix(.179 -.984 .984 .179 2.939 746.415)"/><ellipse cx="464.929" cy="374.406" fill="#ded9af" rx="39.706" ry="16.544" transform="matrix(.179 -.984 .984 .179 13.393 764.86)"/><path d="m256 264a72.081 72.081 0 0 0 -72 72v48a72 72 0 0 0 144 0v-48a72.081 72.081 0 0 0 -72-72zm0 104a16 16 0 1 1 -16 16 16.019 16.019 0 0 1 16-16zm-8-14.987a31.98 31.98 0 0 0 -22.828 39.547l-21.159 12.217a55.956 55.956 0 0 1 43.987-76.196zm8 86.987a55.912 55.912 0 0 1 -43.966-21.378l21.152-12.212a31.932 31.932 0 0 0 45.628 0l21.152 12.212a55.912 55.912 0 0 1 -43.966 21.378zm51.987-35.223-21.159-12.217a31.98 31.98 0 0 0 -22.828-39.547v-24.432a55.956 55.956 0 0 1 43.987 76.2zm4.013-65.962a71.882 71.882 0 0 0 -112 0v-2.815a56 56 0 0 1 112 0z"/><path d="m248 175.384a43.019 43.019 0 0 0 -38.308-42.8l-50.267-5.584a64.321 64.321 0 0 0 -71.425 63.926v31.805a49.269 49.269 0 0 0 80.468 38.132l63.737-52.15a42.9 42.9 0 0 0 15.795-33.329zm-25.927 20.946-63.737 52.15a33.269 33.269 0 0 1 -54.336-25.749v-31.805a48.325 48.325 0 0 1 53.657-48.026l50.268 5.585a27.064 27.064 0 0 1 14.148 47.845z"/><path d="m279.794 208.713 63.739 52.15a49.268 49.268 0 0 0 80.467-38.132v-31.805a64.321 64.321 0 0 0 -71.425-63.926l-50.266 5.585a43.064 43.064 0 0 0 -22.515 76.13zm24.281-60.228 50.268-5.585a48.323 48.323 0 0 1 53.657 48.026v31.805a33.268 33.268 0 0 1 -54.335 25.749l-63.739-52.15a27.064 27.064 0 0 1 14.149-47.845z"/><path d="m489.532 318.678c-4.2-19.236-13.164-31.038-25.244-33.235l-15.8-2.873 1.238-34.57h6.274a24.028 24.028 0 0 0 24-24v-48a24.028 24.028 0 0 0 -24-24h-12.051a167.952 167.952 0 0 0 -126.399-115.352l-6-1.247a24.037 24.037 0 0 0 -23.55-19.401h-64a24.038 24.038 0 0 0 -23.553 19.4l-6 1.248a167.952 167.952 0 0 0 -126.396 115.352h-12.051a24.028 24.028 0 0 0 -24 24v48a24.028 24.028 0 0 0 24 24h6.274l1.242 34.57-15.8 2.873c-12.08 2.2-21.045 14-25.244 33.235-3.686 16.884-3.524 38.234.455 60.118s11.344 41.927 20.736 56.432c9.524 14.713 20.512 22.583 31.337 22.582a22.26 22.26 0 0 0 3.99-.361l32.555-5.919c11.676-2.123 20.428-13.242 24.793-31.351l7.921-1.452 32.466 48.749a63.864 63.864 0 0 0 53.262 28.524h52.026a63.864 63.864 0 0 0 53.267-28.524l32.466-48.749 7.921 1.452c4.365 18.109 13.117 29.228 24.793 31.351l32.55 5.918a22.28 22.28 0 0 0 3.991.361c10.82 0 21.808-7.87 31.336-22.582 9.392-14.5 16.757-34.546 20.736-56.432s4.145-43.233.459-60.117zm-30.261 86.845c-2.267-1.891-6.178-13.783-2.749-32.646s11.276-28.615 14.064-29.589c2.2 1.833 5.932 13.041 3.053 30.875-.1.59-.2 1.179-.3 1.772-3.434 18.865-11.279 28.616-14.068 29.588zm-3.271-237.523a8.009 8.009 0 0 1 8 8v48a8.009 8.009 0 0 1 -8 8h-5.7l.895-24.913a167.433 167.433 0 0 0 -3.2-39.087zm-240-128a8.009 8.009 0 0 1 8-8h64a8.009 8.009 0 0 1 8 8v8h-80zm-160 192a8.009 8.009 0 0 1 -8-8v-48a8.009 8.009 0 0 1 8-8h8.007a167.433 167.433 0 0 0 -3.2 39.087l.893 24.913zm-14.586 111.288c2.788.974 10.635 10.729 14.064 29.589s-.478 30.755-2.749 32.646c-2.789-.972-10.629-10.723-14.064-29.588-.108-.593-.2-1.182-.3-1.772-2.883-17.834.852-29.042 3.049-30.875zm15.675 83.243q-1.543-2.383-3-5a15.283 15.283 0 0 0 1.52-.185c4.478-.814 12.488-4.455 15.816-19.7 1.952-8.946 1.882-20.178-.2-31.628s-5.97-21.989-10.947-29.675c-8.479-13.1-17.256-13.691-21.736-12.872-.507.092-1 .209-1.486.346q.445-2.954 1.049-5.724c2.613-11.972 7.392-19.982 12.473-20.905a5.985 5.985 0 0 1 1.08-.095c10.329 0 28.852 24.465 36.379 65.867 3.611 19.855 3.811 38.978.566 53.845-2.614 11.97-7.393 19.98-12.475 20.9s-12.379-4.889-19.039-15.174zm64.063-11.647c-2.613 11.97-7.392 19.98-12.473 20.9l-8.523 1.55a74.2 74.2 0 0 0 4.073-13.123c3.686-16.883 3.524-38.234-.455-60.118-4.784-26.311-15.4-52.633-29.182-67.278l8.538-1.552c5.074-.93 12.374 4.889 19.034 15.175 8.271 12.774 14.815 30.743 18.424 50.6s3.812 38.979.564 53.846zm1.7-99.977 8.409-1.513c4.014-.723 16.635 13.01 21.91 41.708 5.187 28.72-1.825 46.044-5.81 46.789l-8.415 1.543a176.091 176.091 0 0 0 -2.612-45.256 176.1 176.1 0 0 0 -13.486-43.271zm199.116 143.7a47.9 47.9 0 0 1 -39.955 21.393h-52.026a47.9 47.9 0 0 1 -39.951-21.394l-30.47-45.751c11.43-10.676 13.718-36.386 9.342-60.622-5.471-29.761-21.131-58.064-40.485-54.587l-13.891 2.5c-10.465-15.432-22.588-22.744-34.264-20.621l-.845.154-2.623-73.166a152 152 0 0 1 120.91-154.201l2.29-.476v4.164a8 8 0 0 0 8 8h96a8 8 0 0 0 8-8v-4.164l2.286.476a152 152 0 0 1 120.919 154.2l-2.628 73.165-.844-.154c-11.682-2.125-23.8 5.189-34.265 20.621l-13.891-2.5c-19.342-3.468-35.013 24.826-40.49 54.612-4.371 24.209-2.085 49.908 9.351 60.591zm53.702-100.429a176.091 176.091 0 0 0 -2.612 45.256l-8.39-1.538c-4.01-.75-11.022-18.074-5.84-46.77 5.281-28.724 17.946-42.459 21.915-41.732l8.409 1.513a176.1 176.1 0 0 0 -13.482 43.271zm15.178 56.706c-3.246-14.867-3.046-33.989.564-53.845s10.153-37.823 18.424-50.6c6.66-10.285 13.96-16.1 19.035-15.175l8.53 1.551c-13.78 14.645-24.392 40.969-29.175 67.279-3.979 21.884-4.141 43.235-.455 60.118a74.2 74.2 0 0 0 4.073 13.123l-8.523-1.55c-5.081-.921-9.86-8.931-12.473-20.901zm45.028 26.823c-5.081-.924-9.86-8.934-12.474-20.9-3.245-14.867-3.045-33.99.566-53.845 7.528-41.405 26.051-65.867 36.379-65.867a5.985 5.985 0 0 1 1.08.095c5.081.923 9.86 8.933 12.473 20.905q.6 2.766 1.049 5.724c-.484-.137-.979-.254-1.486-.346-4.479-.814-13.256-.226-21.736 12.872-4.977 7.686-8.865 18.224-10.947 29.675s-2.152 22.682-.2 31.628c3.328 15.244 11.338 18.885 15.815 19.7a15.3 15.3 0 0 0 1.521.185q-1.461 2.616-3 5c-6.665 10.283-13.954 16.105-19.04 15.174z"/><path d="m248 80h16v56h-16z"/><path d="m248 216h16v32h-16z"/></svg>