<svg height="480pt" viewBox="0 -152 480 480" width="480pt" xmlns="http://www.w3.org/2000/svg"><path d="m232.238281 41.945312-6.484375-25.945312h-59.507812l-6.484375 25.945312-15.523438-3.890624 8-32c.894531-3.558594 4.09375-6.054688 7.761719-6.054688h72c3.667969 0 6.867188 2.496094 7.761719 6.054688l8 32zm0 0" fill="#787d82"/><path d="m208 128c-3.136719 0-5.980469-1.832031-7.28125-4.6875-2.105469-4.589844-3.195312-9.578125-3.199219-14.625v-12.6875c0-4.417969 3.582031-8 8-8s8 3.582031 8 8v12.6875c-.003906 2.761719.589844 5.488281 1.738281 8 1.121094 2.472656.914063 5.347656-.550781 7.632812-1.464843 2.285157-3.992187 3.671876-6.707031 3.679688zm0 0" fill="#6f7478"/><path d="m128 88-48 8-32 24h-40v-80h136l-8 48zm0 0" fill="#6f7478"/><path d="m80 88 48-8h8l6.664062-40h-134.664062v72h40zm0 0" fill="#62666a"/><path d="m264 96h-120l-16-8v-48l16-8h104l16 8zm0 0" fill="#62666a"/><path d="m336 40h136v32h-136zm0 0" fill="#787d82"/><path d="m264 40h72v48h-72zm0 0" fill="#62666a"/><path d="m128 64v24l16 8-20.488281 61.472656c-.8125 2.4375-.402344 5.117188 1.097656 7.203125 1.503906 2.085938 3.917969 3.324219 6.488281 3.324219h28.902344l24-72h80v-32zm0 0" fill="#787d82"/><path d="m280 160h-32l-1.6875-3.375c-9.414062-18.824219-14.316406-39.578125-14.3125-60.625h32c-.003906 21.046875 4.898438 41.800781 14.3125 60.625zm0 0" fill="#b9b9b9"/><path d="m264 96h-24c0 21.046875 4.898438 41.800781 14.3125 60.625l1.6875 3.375h24l-1.6875-3.375c-9.414062-18.824219-14.3125-39.578125-14.3125-60.625zm0 0" fill="#8e9499"/><path d="m384 40v-32h-24l-16 32zm0 0" fill="#62666a"/><path d="m280 40h8v48h-8zm0 0" fill="#6f7478"/><path d="m312 40h8v48h-8zm0 0" fill="#6f7478"/><path d="m440 40h32v32h-32zm0 0" fill="#62666a"/><path d="m216 64h48v32h-48zm0 0" fill="#969ca2"/><path d="m400 40h16v32h-16zm0 0" fill="#62666a"/><path d="m145.753906 32h16.492188l2-8h-16.492188zm0 0" fill="#565a5d"/><path d="m244.246094 24h-16.492188l2 8h16.492188zm0 0" fill="#565a5d"/><path d="m138.664062 112h40l5.335938-16h-40zm0 0" fill="#6f7478"/><path d="m264.960938 112c-.636719-5.308594-.957032-10.652344-.960938-16h-24c.003906 5.347656.324219 10.691406.960938 16zm0 0" fill="#898e93"/><path d="m240.960938 112c-.636719-5.308594-.957032-10.652344-.960938-16h-8c.003906 5.347656.324219 10.691406.960938 16zm0 0" fill="#aeaeae"/><path d="m348 32-4 8h40v-8zm0 0" fill="#565a5d"/><path d="m336 40h8v32h-8zm0 0" fill="#6d7276"/><path d="m472 32h-80v-24c0-4.417969-3.582031-8-8-8h-24c-3.046875-.015625-5.839844 1.699219-7.199219 4.425781l-13.746093 27.574219h-73.167969l-14.3125-7.160156c-1.109375-.554688-2.332031-.839844-3.574219-.839844h-3.753906l-4.484375-17.945312c-.894531-3.558594-4.09375-6.054688-7.761719-6.054688h-72c-3.667969 0-6.867188 2.496094-7.761719 6.054688l-4.484375 17.945312h-3.753906c-1.242188 0-2.464844.285156-3.574219.839844l-14.3125 7.160156h-118.113281c-4.417969 0-8 3.582031-8 8v80c0 4.417969 3.582031 8 8 8h40c1.730469 0 3.414062-.5625 4.800781-1.601562l30.4375-22.832032 43.503907-7.246094 7.472656 3.734376-18.292969 54.882812c-1.628906 4.878906-.8125 10.242188 2.195313 14.414062 3.003906 4.175782 7.835937 6.648438 12.980468 6.648438h28.902344c3.445312 0 6.503906-2.203125 7.59375-5.472656l22.175781-66.527344h7.773438v4.6875c.003906 5.046875 1.09375 10.035156 3.199219 14.625 1.890624 3.917969 6.5625 5.605469 10.519531 3.804688 3.957031-1.800782 5.753906-6.433594 4.042969-10.429688-1.148438-2.511719-1.738282-5.238281-1.738282-8v-4.6875h10.691406c1.113282 19.550781 6.199219 38.671875 14.941407 56.191406l1.679687 3.382813c1.351563 2.703125 4.101563 4.414062 7.121094 4.425781h32c2.78125.015625 5.367188-1.414062 6.835938-3.773438 1.46875-2.363281 1.605468-5.316406.363281-7.800781l-1.6875-3.386719c-8.851563-17.710937-13.480469-37.238281-13.511719-57.039062h64c4.417969 0 8-3.582031 8-8v-8h128c4.417969 0 8-3.582031 8-8v-32c0-4.417969-3.582031-8-8-8zm-352 32v17.222656l-41.320312 6.890625c-1.261719.210938-2.457032.71875-3.480469 1.488281l-29.863281 22.398438h-29.335938v-64h104zm46.246094-48h59.507812l2 8h-63.507812zm-12 144h-23.140625l18.664062-56h23.132813zm53.753906-72h-62.113281l-9.886719-4.945312v-11.054688h72zm-72-32v-11.054688l9.886719-4.945312h100.226562l9.886719 4.945312v11.054688zm96 32h-8v-16h32v16zm20.953125 64c-7.320313-15.019531-11.632813-31.324219-12.695313-48h16c.941407 16.519531 4.714844 32.753906 11.148438 48zm27.046875-72h-8v-32h8zm24 0h-8v-32h8zm24-8v8h-8v-32h8zm36.945312-56h11.054688v16h-19.054688zm35.054688 48h-56v-16h56zm32 0h-16v-16h16zm32 0h-16v-16h16zm0 0"/></svg>