<svg id="Capa_1" enable-background="new 0 0 512 512" height="512" viewBox="0 0 512 512" width="512" xmlns="http://www.w3.org/2000/svg"><g><path d="m346 421c0 8.401-6.599 15-15 15h-150c-8.401 0-15-6.599-15-15v-15h-30v15c0 24.901 20.099 45 45 45h150c24.901 0 45-20.099 45-45v-15h-30z"/><path d="m151 346c8.401 0 15 6.599 15 15v45h45c16.5 0 30-13.5 30-30v-60.601c36.301-27.599 60-70.499 60-119.399 0-82.8-67.2-150-150-150s-151 67.2-151 150c0 48.9 24.699 91.8 61 119.399v60.601c0 16.5 13.5 30 30 30h45v-45c0-8.401 6.599-15 15-15zm-91-150c0-49.799 41.201-90 91-90s90 40.201 90 90-40.201 90-90 90-91-40.201-91-90z"/><path d="m361 46c-30 0-57.9 9-81.301 24.3 13.801 14.399 25.501 30.901 34.2 49.501 13.501-8.702 29.7-13.801 47.101-13.801 49.799 0 90 40.201 90 90s-40.201 90-90 90c-17.401 0-33.6-5.099-47.1-13.801-10.199 21.601-24.6 41.1-42.9 57.301v46.5c0 16.5 13.5 30 30 30h45v-45c0-8.401 6.599-15 15-15s15 6.599 15 15v45h45c16.5 0 30-13.5 30-30v-60.601c36.301-27.599 61-70.499 61-119.399 0-82.8-68.2-150-151-150z"/></g></svg>