<svg id="Capa_1" enable-background="new 0 0 511.978 511.978" height="512" viewBox="0 0 511.978 511.978" width="512" xmlns="http://www.w3.org/2000/svg"><g><path d="m497.879 83.068c18.797-18.798 18.797-49.383.004-68.177l-.792-.792c-18.799-18.799-49.387-18.799-68.186 0l-316.685 316.695 68.97 68.971 22.101-22.106 65.421 65.42-2.743 2.743c-5.858 5.857-5.858 15.355 0 21.213 2.929 2.929 6.768 4.394 10.606 4.394s7.678-1.465 10.606-4.394l56.667-56.667 13.35-13.35c5.858-5.857 5.858-15.355 0-21.213-5.857-5.858-15.355-5.858-21.213 0l-2.743 2.743-65.422-65.422z"/><path d="m98.806 348.775h31.263v97.54h-31.263z" transform="matrix(.707 -.707 .707 .707 -247.566 197.317)"/><path d="m47.688 395.327-22.11 22.105c-5.859-5.831-15.336-5.823-21.184.026-5.858 5.858-5.858 15.355 0 21.213l68.913 68.913c2.929 2.929 6.768 4.394 10.606 4.394s7.678-1.464 10.606-4.394c5.848-5.848 5.857-15.321.029-21.181l22.11-22.105z"/></g></svg>