<svg height="512pt" viewBox="0 0 512 512.69486" width="512pt" xmlns="http://www.w3.org/2000/svg"><path d="m18.632812 348.125h164.570313v18.285156h-164.570313zm0 0"/><path d="m183.203125 92.125h-164.570313v237.710938h164.570313zm-54.855469 164.570312c0 10.097657-8.1875 18.285157-18.285156 18.285157h-18.285156c-10.101563 0-18.285156-8.1875-18.285156-18.285157v-73.144531c0-10.097656 8.183593-18.285156 18.285156-18.285156h18.285156c10.097656 0 18.285156 8.1875 18.285156 18.285156zm0 0"/><path d="m91.777344 183.550781h18.285156v73.144531h-18.285156zm0 0"/><path d="m183.203125 30.289062-11.957031-30.289062-11.390625 13.496094-.277344.273437c-3.429687 3.4375-8.085937 5.371094-12.945313 5.371094-4.855468 0-9.515624-1.933594-12.945312-5.371094l-11.8125-12.882812-3.894531 15.351562c-.15625.632813-.382813 1.246094-.675781 1.828125-3.085938 6.226563-9.4375 10.164063-16.386719 10.164063s-13.296875-3.9375-16.382813-10.164063c-.292968-.582031-.519531-1.195312-.675781-1.828125l-3.886719-15.304687-11.546875 12.5625c-3.421875 3.527344-8.113281 5.542968-13.027343 5.59375-4.914063.050781-9.644532-1.863282-13.140626-5.320313l-12.214843-13.3125-11.070313 29.074219-.285156 44.304688h164.515625zm0 0"/><path d="m201.492188 402.980469h54.855468v18.285156h-54.855468zm0 0"/><path d="m201.492188 494.410156h-201.144532v18.285156h201.144532zm0 0"/><path d="m384.347656 329.835938h91.429688v164.574218h-91.429688zm0 0"/><path d="m347.777344 329.835938h18.285156v164.574218h-18.285156zm0 0"/><path d="m183.203125 430.410156v-45.714844h-164.570313v91.429688h164.570313zm0 0"/><path d="m512.347656 311.550781h-18.285156v201.144531h18.285156zm0 0"/><path d="m219.777344 494.410156h109.714844v-164.574218h-128v54.859374h54.855468c10.097656 0 18.285156 8.1875 18.285156 18.285157v18.285156c0 10.097656-8.1875 18.285156-18.285156 18.285156h-54.855468v36.574219c10.097656 0 18.285156 8.183594 18.285156 18.285156zm0 0"/></svg>