<?xml version="1.0"?>
<svg xmlns="http://www.w3.org/2000/svg" xmlns:xlink="http://www.w3.org/1999/xlink" version="1.1" id="Capa_1" x="0px" y="0px" viewBox="0 0 512 512" style="enable-background:new 0 0 512 512;" xml:space="preserve" width="512" height="512"><g transform="matrix(-1 0 0 1 512 0)"><g>
	<g>
		<g>
			<path d="M274.286,128v-17.063c0-0.324-0.129-0.636-0.358-0.865c-0.229-0.229-0.541-0.358-0.865-0.358h-27.216     c5.384,5.283,9.795,11.473,13.032,18.286H274.286z" data-original="#000000" class="active-path" style="fill:#000000"/>
			<path d="M201.143,109.714c-14.324,0-27.802,6.782-36.338,18.286h72.675C228.945,116.497,215.467,109.714,201.143,109.714z" data-original="#000000" class="active-path" style="fill:#000000"/>
			<path d="M156.439,109.714h-27.216c-0.324,0-0.636,0.129-0.865,0.358c-0.229,0.229-0.358,0.541-0.358,0.865V128h15.407     C146.644,121.187,151.055,114.997,156.439,109.714z" data-original="#000000" class="active-path" style="fill:#000000"/>
			<path d="M173.192,191.605c13.796,10.659,32.453,12.544,48.102,4.859c15.649-7.685,25.564-23.602,25.563-41.035     c0-3.071-0.31-6.134-0.924-9.143h-89.58C152.865,163.367,159.397,180.945,173.192,191.605z" data-original="#000000" class="active-path" style="fill:#000000"/>
			<path d="M118.857,420.571c0,5.049-4.093,9.143-9.143,9.143c-5.049,0-9.143-4.093-9.143-9.143V384H82.286v120.04     c0.006,4.395,3.569,7.956,7.964,7.96h221.786c4.395-0.003,7.958-3.564,7.964-7.96V384H118.857V420.571z" data-original="#000000" class="active-path" style="fill:#000000"/>
			<path d="M316.214,0H137.143v36.571h153.598c4.818-0.015,9.445,1.889,12.857,5.29l84.116,83.076     c3.461,3.446,5.413,8.125,5.429,13.009v154.625h36.571V113.5L316.214,0z" data-original="#000000" class="active-path" style="fill:#000000"/>
			<rect x="155.429" y="54.857" width="91.429" height="36.571" data-original="#000000" class="active-path" style="fill:#000000"/>
			<path d="M312.036,146.286h-47.623c3.799,24.901-7.362,49.715-28.514,63.394c-21.152,13.679-48.36,13.679-69.512,0     c-21.152-13.679-32.313-38.493-28.514-63.394H90.25c-4.395,0.004-7.958,3.565-7.964,7.96v156.612h18.286V192     c0-5.049,4.093-9.143,9.143-9.143c5.049,0,9.143,4.093,9.143,9.143v118.857H320V154.246     C319.994,149.85,316.431,146.289,312.036,146.286z" data-original="#000000" class="active-path" style="fill:#000000"/>
			<rect x="82.286" y="329.143" width="237.714" height="36.571" data-original="#000000" class="active-path" style="fill:#000000"/>
		</g>
	</g>
</g></g> </svg>
