<?xml version="1.0"?>
<svg xmlns="http://www.w3.org/2000/svg" id="Solid" height="512" viewBox="0 0 512 512" width="512"><g transform="matrix(-1 0 0 1 512 0)"><path d="m414.2 336h-316.4c11.614 76.88 78.131 136 158.2 136s146.586-59.12 158.2-136zm-150.2 16h112v16h-112z" data-original="#000000" class="active-path"/><circle cx="320" cy="144" r="16" data-original="#000000" class="active-path"/><path d="m328 96.679v16.334a32 32 0 1 1 -16 0v-16.334a48 48 0 1 0 16 0z" data-original="#000000" class="active-path"/><path d="m448 392v-260.686l-91.313-91.314h-148.687v16h16a32.054 32.054 0 0 1 30.987 24h17.013v16h-24a8 8 0 0 1 -8-8 16.019 16.019 0 0 0 -16-16h-16v40h40v16h-32v23.049a8 8 0 0 1 -5.717 7.667 161.394 161.394 0 0 0 -81.925 56.855 158.106 158.106 0 0 0 -30.578 72.429h316.43a158.8 158.8 0 0 0 -43.922-87.9l11.424-11.2a175.892 175.892 0 0 1 34.288 49.655v-67.241l-29.657-29.657 11.314-11.314 32 32a8 8 0 0 1 2.343 5.657v224a8 8 0 0 0 16 0zm-200-120h-112v-16h112zm72-64a63.991 63.991 0 0 1 -8-127.482v-24.518h16v24.518a63.991 63.991 0 0 1 -8 127.482z" data-original="#000000" class="active-path"/><path d="m416 312q0-4.016-.2-8h-319.6c-.129 2.656-.2 5.322-.2 8s.069 5.349.2 8h319.6q.2-3.976.2-8z" data-original="#000000" class="active-path"/></g> </svg>
