<svg id="Solid" height="512" viewBox="0 0 512 512" width="512" xmlns="http://www.w3.org/2000/svg"><path d="m200 184a8 8 0 0 1 -8 8h-32a8 8 0 0 1 -8-8v-8h-88v2.883a8.021 8.021 0 0 0 6.431 7.845 32.112 32.112 0 0 1 24.033 42.04l-1.124 3.232h66.66v16h-72.226l-46.574 133.891 10.113 10.109h95.354l53.333-128a24.028 24.028 0 0 1 -24-24 24.112 24.112 0 0 1 24-24h20l4.615-11.077a8 8 0 0 1 7.385-4.923h104v-24h-136z"/><path d="m259.168 223.8a10.249 10.249 0 0 0 2.489 10.547l-11.314 11.314a26.161 26.161 0 0 1 -6.354-26.921l.911-2.74h-7.568l-12.091 29.019a54.223 54.223 0 0 0 32.839 10.981h37.92v-40h-34.234z"/><path d="m168 160h16v16h-16z"/><path d="m194.453 234.3-.154.154a7.657 7.657 0 0 0 -2.299 5.546 8.009 8.009 0 0 0 8 8h6.667l6.666-16h-13.333a7.657 7.657 0 0 0 -5.547 2.3z"/><path d="m56 408h88v16h-88z"/><path d="m432 160v-48h-368v48h88v-8a8 8 0 0 1 8-8h32a8 8 0 0 1 8 8v8zm-176-32h24v16h-24z"/><path d="m352 200h88a8.009 8.009 0 0 0 8-8v-16h-96z"/><path d="m448 112h16v48h-16z"/></svg>