<svg id="Capa_1" enable-background="new 0 0 512 512" height="512" viewBox="0 0 512 512" width="512" xmlns="http://www.w3.org/2000/svg"><g><path d="m436 226c4.113 0 8.018.753 12.008 1.216l-16.095-64.396c-8.351-33.456-38.276-56.82-72.759-56.82h-206.31c-34.481 0-64.407 23.364-72.759 56.819l-16.095 64.397c3.99-.463 7.896-1.216 12.01-1.216z"/><path d="m106 496h15c19.53 0 36.024-12.579 42.237-30h-99.474c6.213 17.421 22.707 30 42.237 30z"/><path d="m406 496c19.53 0 36.024-12.579 42.237-30h-99.474c6.213 17.421 22.707 30 42.237 30z"/><path d="m136 331h-30c-8.278 0-15 6.724-15 15s6.722 15 15 15h30c8.276 0 15-6.724 15-15s-6.724-15-15-15z"/><path d="m406 331h-30c-8.278 0-15 6.724-15 15s6.722 15 15 15h30c8.276 0 15-6.724 15-15s-6.724-15-15-15z"/><path d="m436 256h-360c-41.353 0-76 33.647-76 75v60c0 24.813 21.186 45 46 45h420c24.813 0 46-20.187 46-45v-60c0-41.353-34.649-75-76-75zm-300 135h-30c-24.814 0-45-20.187-45-45s20.186-45 45-45h30c24.813 0 45 20.187 45 45s-20.187 45-45 45zm150 0h-60c-8.293 0-15-6.707-15-15s6.707-15 15-15h60c8.291 0 15 6.707 15 15s-6.709 15-15 15zm0-60h-60c-8.293 0-15-6.707-15-15s6.707-15 15-15h60c8.291 0 15 6.707 15 15s-6.709 15-15 15zm120 60h-30c-24.814 0-45-20.187-45-45s20.186-45 45-45h30c24.813 0 45 20.187 45 45s-20.187 45-45 45z"/><path d="m241 16h30v60h-30z"/><path d="m151 76h60v-60h-60c-16.569 0-30 13.431-30 30s13.431 30 30 30z"/><path d="m391 46c0-16.569-13.431-30-30-30h-60v60h60c16.569 0 30-13.431 30-30z"/></g></svg>