<svg height="448pt" viewBox="-104 0 448 448" width="448pt" xmlns="http://www.w3.org/2000/svg"><path d="m99.3125 96h25.375l16-16h-25.375zm0 0"/><path d="m160 96v-12.6875l-12.6875 12.6875zm0 0"/><path d="m80 92.6875 12.6875-12.6875h-12.6875zm0 0"/><path d="m0 256h240v-64h-240zm208-48h16v32h-16zm-40 0h16v16h8v16h-16c-4.417969 0-8-3.582031-8-8zm-32 8h16v24h-16zm-48-8h16v16h16v16h-24c-4.417969 0-8-3.582031-8-8zm-32 0h16v32h-16zm-40 8c0-4.417969 3.582031-8 8-8h16v16h-8v16h-16zm0 0"/><path d="m0 440c0 4.417969 3.582031 8 8 8h224c4.417969 0 8-3.582031 8-8v-168h-240zm152-136h16v16h-16zm0 48h16v16h-16zm-80-48h16v16h-16zm0 48h16v16h-16zm-8 64h16v16h-16zm-48-16h16v16h16v16h-24c-4.417969 0-8-3.582031-8-8zm0 0"/><path d="m184 48h-128c-4.417969 0-8 3.582031-8 8v64c0 4.417969 3.582031 8 8 8h128c4.417969 0 8-3.582031 8-8v-64c0-4.417969-3.582031-8-8-8zm-8 56c0 4.417969-3.582031 8-8 8h-96c-4.417969 0-8-3.582031-8-8v-32c0-4.417969 3.582031-8 8-8h96c4.417969 0 8 3.582031 8 8zm0 0"/><path d="m232 0h-224c-4.417969 0-8 3.582031-8 8v168h240v-168c0-4.417969-3.582031-8-8-8zm-24 120c0 13.253906-10.746094 24-24 24h-128c-13.253906 0-24-10.746094-24-24v-64c0-13.253906 10.746094-24 24-24h128c13.253906 0 24 10.746094 24 24zm0 0"/></svg>