<?xml version="1.0"?>
<svg xmlns="http://www.w3.org/2000/svg" id="Solid" height="512" viewBox="0 0 512 512" width="512"><g transform="matrix(-1 0 0 1 512 0)"><path d="m272 136a48 48 0 1 0 56-47.321v16.334a32 32 0 1 1 -16 0v-16.334a48.07 48.07 0 0 0 -40 47.321z" data-original="#000000" class="active-path" style="fill:#000000"/><path d="m160 472a8.009 8.009 0 0 0 8 8h176a8.009 8.009 0 0 0 8-8v-8h-192z" data-original="#000000" class="active-path" style="fill:#000000"/><path d="m352 232h-192v216h192zm-16 32h-96v-16h96z" data-original="#000000" class="active-path" style="fill:#000000"/><path d="m424 392a8.009 8.009 0 0 0 8-8v-260.687l-91.313-91.313h-132.687v16h16a32.056 32.056 0 0 1 30.987 24h17.013v16h-24a8 8 0 0 1 -8-8 16.019 16.019 0 0 0 -16-16h-16v80h32v16h-72a8.009 8.009 0 0 0 -8 8v8h96v16h-96v24h192v-24.61a63.98 63.98 0 1 1 -40-118.872v-24.518h16v24.518a64.137 64.137 0 0 1 54.755 50.923l30.9 30.9a8 8 0 0 1 2.345 5.659v224a8.009 8.009 0 0 0 8 8z" data-original="#000000" class="active-path" style="fill:#000000"/><circle cx="320" cy="136" r="16" data-original="#000000" class="active-path" style="fill:#000000"/></g> </svg>
