<svg id="Capa_1" enable-background="new 0 0 512 512" height="512" viewBox="0 0 512 512" width="512" xmlns="http://www.w3.org/2000/svg"><g><path d="m346 46c-91.128 0-165 73.872-165 165 0 51.238 23.355 97.018 60 127.282v22.718c0 24.853 20.147 45 45 45h60 61c24.853 0 45-20.147 45-45v-22.718c36.645-30.264 60-76.044 60-127.282 0-91.128-74.872-165-166-165zm0 270c-57.891 0-105-47.109-105-105s47.109-105 105-105 106 47.109 106 105-48.109 105-106 105z" fill="#f0f7ff"/><path d="m452 361v-22.718c36.645-30.264 60-76.044 60-127.282 0-91.128-74.872-165-166-165v60c57.891 0 106 47.109 106 105s-48.109 105-106 105v90h61c24.853 0 45-20.147 45-45z" fill="#c7cfe1"/><path d="m166 46c-91.128 0-166 73.872-166 165 0 51.238 24.355 97.018 61 127.282v22.718c0 24.853 20.147 45 45 45h60 60c24.853 0 45-20.147 45-45v-22.718c36.645-30.264 60-76.044 60-127.282 0-91.128-73.872-165-165-165zm0 270c-57.891 0-106-47.109-106-105s48.109-105 106-105 105 47.109 105 105-47.109 105-105 105z" fill="#f0f7ff"/><path d="m271 361v-22.718c36.645-30.264 60-76.044 60-127.282 0-91.128-73.872-165-165-165v60c57.891 0 105 47.109 105 105s-47.109 105-105 105v90h60c24.853 0 45-20.147 45-45z" fill="#c7cfe1"/><path d="m346 346c-8.291 0-15 6.709-15 15v60c0 8.276-6.724 15-15 15h-120c-8.276 0-15-6.724-15-15v-60c0-8.291-6.709-15-15-15s-15 6.709-15 15v60c0 13.248 5.861 25.052 15 33.296 7.98 7.196 18.433 11.704 30 11.704h120c24.814 0 45-20.186 45-45v-60c0-8.291-6.709-15-15-15z" fill="#575f64"/><path d="m316 466c24.814 0 45-20.186 45-45v-60c0-8.291-6.709-15-15-15s-15 6.709-15 15v60c0 8.276-6.724 15-15 15h-120c-8.276 0-15-6.724-15-15v-60c0-8.291-6.709-15-15-15v108.296c7.98 7.196 18.433 11.704 30 11.704z" fill="#32393f"/></g></svg>