<?xml version="1.0"?>
<svg xmlns="http://www.w3.org/2000/svg" xmlns:xlink="http://www.w3.org/1999/xlink" version="1.1" id="Capa_1" x="0px" y="0px" viewBox="0 0 512 512" style="enable-background:new 0 0 512 512;" xml:space="preserve" width="512" height="512"><g transform="matrix(-1 0 0 1 512 0)"><g>
	<g>
		<path style="fill:#BDC3C7;" d="M128,157.867c-2.263,0.001-4.434-0.898-6.035-2.499c-1.6-1.6-2.499-3.771-2.499-6.035v-51.2    c0-4.713,3.82-8.533,8.533-8.533s8.533,3.821,8.533,8.533v51.2c0.001,2.263-0.898,4.434-2.499,6.035    C132.434,156.968,130.263,157.867,128,157.867z" data-original="#BDC3C7"/>
		<path style="fill:#BDC3C7;" d="M247.467,157.867c-2.263,0.001-4.434-0.898-6.035-2.499c-1.6-1.6-2.499-3.771-2.499-6.035v-51.2    c0-4.713,3.821-8.533,8.533-8.533c4.713,0,8.533,3.821,8.533,8.533v51.2c0.001,2.263-0.898,4.434-2.499,6.035    C251.901,156.968,249.73,157.867,247.467,157.867z" data-original="#BDC3C7"/>
		<polygon style="fill:#BDC3C7;" points="238.933,98.133 187.733,98.133 136.533,98.133 136.533,64 238.933,64   " data-original="#BDC3C7"/>
	</g>
	<path style="fill:#7F8C8D;" d="M315.733,456.533c-42.396-0.048-76.752-34.404-76.8-76.8c0-4.713,3.821-8.533,8.533-8.533   c4.713,0,8.533,3.821,8.533,8.533c0,32.99,26.744,59.733,59.733,59.733s59.733-26.743,59.733-59.733V320   c0.02-18.843,15.29-34.113,34.133-34.133c9.415-0.002,17.051-7.627,17.067-17.042v-59.758c0-4.713,3.82-8.533,8.533-8.533   s8.533,3.821,8.533,8.533v59.758c-0.028,18.836-15.298,34.094-34.133,34.108c-9.421,0.011-17.056,7.645-17.067,17.067v59.733   C392.486,422.129,358.129,456.486,315.733,456.533z" data-original="#7F8C8D"/>
	<path style="fill:#95A5A5;" d="M230.4,328.533h-34.133c-14.132-0.015-25.585-11.468-25.6-25.6v-17.067   c0-4.713,3.821-8.533,8.533-8.533s8.533,3.821,8.533,8.533v17.067c0.005,4.711,3.822,8.529,8.533,8.533H230.4   c4.713,0,8.533,3.821,8.533,8.533C238.933,324.713,235.113,328.533,230.4,328.533z" data-original="#95A5A5"/>
	<g>
		<rect x="247.467" y="149.333" style="fill:#BDC3C7;" width="256" height="68.267" data-original="#BDC3C7"/>
		<path style="fill:#BDC3C7;" d="M256,217.6l16.014,152.658c0.268,2.412-0.504,4.825-2.123,6.633    c-1.619,1.809-3.931,2.842-6.358,2.842H230.4c-4.713,0-8.533-3.821-8.533-8.533v-85.333h-51.2V217.6H256z" data-original="#BDC3C7"/>
		<path style="fill:#BDC3C7;" d="M128,209.067V268.8c-0.014,4.707-3.826,8.519-8.533,8.533V371.2c0,4.713-3.821,8.533-8.533,8.533    H93.867c-4.713,0-8.533-3.821-8.533-8.533V209.067H128z" data-original="#BDC3C7"/>
	</g>
	<path style="fill:#7F8C8D;" d="M503.467,251.733c-2.263,0.001-4.434-0.898-6.035-2.499c-1.6-1.6-2.499-3.771-2.499-6.035V123.733   c0-4.713,3.821-8.533,8.533-8.533c4.713,0,8.533,3.821,8.533,8.533V243.2c0.001,2.263-0.898,4.434-2.499,6.035   C507.901,250.835,505.73,251.734,503.467,251.733z" data-original="#7F8C8D"/>
	<rect x="8.533" y="140.8" style="fill:#95A5A5;" width="136.533" height="85.333" data-original="#95A5A5"/>
	<g>
		<path style="fill:#527F72;" d="M298.667,149.333V217.6c0,4.713-3.821,8.533-8.533,8.533H102.4V140.8h187.733    C294.846,140.8,298.667,144.621,298.667,149.333z" data-original="#527F72" class="active-path"/>
		<path style="fill:#527F72;" d="M230.4,55.467h34.133c4.713,0,8.533,3.821,8.533,8.533v34.133c0,4.713-3.82,8.533-8.533,8.533    H230.4c-4.713,0-8.533-3.821-8.533-8.533V64C221.867,59.287,225.687,55.467,230.4,55.467z" data-original="#527F72" class="active-path"/>
		<path style="fill:#527F72;" d="M110.933,55.467h34.133c4.713,0,8.533,3.821,8.533,8.533v34.133c0,4.713-3.821,8.533-8.533,8.533    h-34.133c-4.713,0-8.533-3.821-8.533-8.533V64C102.4,59.287,106.221,55.467,110.933,55.467z" data-original="#527F72" class="active-path"/>
	</g>
	<path style="fill:#7F8C8D;" d="M8.533,260.267c-2.263,0.001-4.434-0.898-6.035-2.499s-2.499-3.771-2.499-6.035V115.2   c0-4.713,3.821-8.533,8.533-8.533s8.533,3.821,8.533,8.533v136.533c0.001,2.263-0.898,4.434-2.499,6.035   S10.797,260.267,8.533,260.267z" data-original="#7F8C8D"/>
</g></g> </svg>
