<svg xmlns="http://www.w3.org/2000/svg" height="511.99974pt" version="1.1" viewBox="0 0 511.99974 511.99974" width="511.99974pt">
<g id="surface1">
<path d="M 58.828125 339.402344 L 131.3125 266.917969 L 245.078125 380.683594 L 172.59375 453.167969 Z M 58.828125 339.402344 " style=" stroke:none;fill-rule:nonzero;fill:rgb(53.333333%,40.392157%,27.45098%);fill-opacity:1;" />
<path d="M 188.273438 323.875 L 245.082031 380.683594 L 172.597656 453.171875 L 115.808594 396.382812 Z M 188.273438 323.875 " style=" stroke:none;fill-rule:nonzero;fill:rgb(44.313725%,33.333333%,22.352941%);fill-opacity:1;" />
<path d="M 438.417969 209.6875 L 235.027344 413.082031 L 167.054688 345.105469 L 98.917969 276.972656 L 302.3125 73.582031 Z M 438.417969 209.6875 " style=" stroke:none;fill-rule:nonzero;fill:rgb(100%,65.490196%,12.54902%);fill-opacity:1;" />
<path d="M 204.992188 443.117188 L 136.109375 512 L 0 375.890625 L 68.882812 307.007812 Z M 204.992188 443.117188 " style=" stroke:none;fill-rule:nonzero;fill:rgb(100%,65.490196%,12.54902%);fill-opacity:1;" />
<path d="M 137.027344 375.152344 L 204.992188 443.117188 L 136.109375 512 L 68.164062 444.054688 Z M 137.027344 375.152344 " style=" stroke:none;fill-rule:nonzero;fill:rgb(100%,52.941176%,0%);fill-opacity:1;" />
<path d="M 438.417969 209.6875 L 235.027344 413.082031 L 167.054688 345.105469 L 370.394531 141.664062 Z M 438.417969 209.6875 " style=" stroke:none;fill-rule:nonzero;fill:rgb(100%,52.941176%,0%);fill-opacity:1;" />
<path d="M 508.5625 81.734375 C 500.25 127.859375 477.867188 170.238281 443.820312 204.277344 L 417.1875 230.917969 L 349.175781 162.90625 L 281.089844 94.8125 L 307.722656 68.179688 C 341.761719 34.128906 384.140625 11.75 430.265625 3.433594 C 453.296875 -0.707031 475.828125 -1.105469 497.25 2.253906 L 508.054688 3.945312 L 509.746094 14.75 C 513.105469 36.171875 512.707031 58.703125 508.5625 81.734375 Z M 508.5625 81.734375 " style=" stroke:none;fill-rule:nonzero;fill:rgb(100%,89.411765%,43.921569%);fill-opacity:1;" />
<path d="M 508.5625 81.734375 C 500.25 127.859375 477.867188 170.238281 443.820312 204.277344 L 417.1875 230.917969 L 349.175781 162.90625 L 508.054688 3.945312 L 509.746094 14.75 C 513.105469 36.171875 512.707031 58.703125 508.5625 81.734375 Z M 508.5625 81.734375 " style=" stroke:none;fill-rule:nonzero;fill:rgb(100%,80.392157%,0%);fill-opacity:1;" />
</g>
</svg>