<svg height="512" viewBox="0 0 53 58" width="512" xmlns="http://www.w3.org/2000/svg"><g id="Page-1" fill="none" fill-rule="evenodd"><g id="019---Ammunition" fill-rule="nonzero"><path id="Shape" d="m51 52v-7c0-.5522847-.4477153-1-1-1v-42c-.0032948-1.10320187-.8967981-1.9967052-2-2h-18c-1.1032019.0032948-1.9967052.89679813-2 2v42c-.5522847 0-1 .4477153-1 1v7c-1.1032019.0032948-1.9967052.8967981-2 2v2c.0032948 1.1032019.8967981 1.9967052 2 2h24c1.1032019-.0032948 1.9967052-.8967981 2-2v-2c-.0032948-1.1032019-.8967981-1.9967052-2-2z" fill="#e64c3c"/><path id="Shape" d="m18.5 47.5c.9606061-.959779 1.5002346-2.2620826 1.5-3.62v-17.88c-.0032948-1.1032019-.8967981-1.9967052-2-2v-5c0-14-8-19-8-19s-8 5-8 19v5c-1.10320187.0032948-1.9967052.8967981-2 2v17.88c-.00023464 1.3579174.53939391 2.660221 1.5 3.62s1.50023464 2.2620826 1.5 3.62v.88h-1c-1.10320187.0032948-1.9967052.8967981-2 2v2c.0032948 1.1032019.89679813 1.9967052 2 2h16c1.1032019-.0032948 1.9967052-.8967981 2-2v-2c-.0032948-1.1032019-.8967981-1.9967052-2-2h-1v-.88c-.0002346-1.3579174.5393939-2.660221 1.5-3.62z" fill="#f3d55b"/><rect id="Rectangle-path" fill="#e4c05c" height="6" rx="2" width="20" y="52"/><path id="Shape" d="m18 19h-16c0-14 8-19 8-19s8 5 8 19z" fill="#e4c05c"/><path id="Rectangle-path" d="m2 19h16v5h-16z" fill="#b19046"/><path id="Shape" d="m6.243 16.163c-.04378223-.0002051-.08751816-.002876-.131-.008-.26296805-.0345978-.50141929-.172249-.66289065-.3826681-.16147136-.2104192-.23273412-.4763674-.19810935-.7393319.38691261-3.6714551 1.75397623-7.17131754 3.958-10.133.34504684-.41675814.958988-.48349197 1.3855197-.15060244.4265316.33288953.5109358.94465184.1904803 1.38060244-1.98406394 2.68065687-3.21088703 5.8454598-3.552 9.163-.06518888.4972021-.48854322.8692407-.99.87z" fill="#f5efca"/><path id="Shape" d="m4 44.879c-.55228475 0-1-.4477153-1-1v-15.879c0-.5522847.44771525-1 1-1s1 .4477153 1 1v15.879c0 .5522847-.44771525 1-1 1z" fill="#f9eab0"/><path id="Shape" d="m51 45v7h-24v-7c0-.5522847.4477153-1 1-1h22c.5522847 0 1 .4477153 1 1z" fill="#bdc3c7"/><rect id="Rectangle-path" fill="#95a5a5" height="6" rx="2" width="28" x="25" y="52"/><path id="Shape" d="m32 20c-.5522847 0-1-.4477153-1-1v-15c0-.55228475.4477153-1 1-1h5c.5522847 0 1 .44771525 1 1s-.4477153 1-1 1h-4v14c0 .5522847-.4477153 1-1 1z" fill="#fff"/></g></g></svg>