<svg height="480pt" viewBox="-36 0 480 480" width="480pt" xmlns="http://www.w3.org/2000/svg"><path d="m152 80v-48h160l96 192v176h-32v-168l-96-152h-32" fill="#857970"/><path d="m152 32h32v48h-32zm0 0" fill="#695b52"/><path d="m248 170.273438v-90.273438h-112v90.273438c-60.703125 22.726562-104 81.09375-104 149.726562 0 88.367188 71.632812 160 160 160s160-71.632812 160-160c0-68.632812-43.296875-127-104-149.726562zm0 0" fill="#2d4d83"/><path d="m296.695312 199.304688c-14.269531-12.351563-30.6875-22.289063-48.695312-29.03125v-90.273438h-112v90.273438c-60.703125 22.726562-104 81.09375-104 149.726562 0 36.015625 12.046875 69.144531 32.128906 95.878906 1.296875.023438 2.574219.121094 3.871094.121094 110.167969 0 202.695312-92.128906 228.695312-216.695312zm0 0" fill="#4472b2"/><path d="m376 344h-360v-48h360" fill="#695b52"/><path d="m112 112h160v16h-160zm0 0" fill="#758190"/><path d="m176 16h16v64h-16zm0 0" fill="#758190"/><path d="m64 128c-35.289062 0-64-28.710938-64-64s28.710938-64 64-64 64 28.710938 64 64-28.710938 64-64 64zm0-112c-26.472656 0-48 21.527344-48 48s21.527344 48 48 48 48-21.527344 48-48-21.527344-48-48-48zm0 0" fill="#2d4d83"/><path d="m80 48h72v16h-72zm0 0" fill="#758190"/></svg>