<?xml version="1.0" encoding="iso-8859-1"?>
<!-- Generator: Adobe Illustrator 19.0.0, SVG Export Plug-In . SVG Version: 6.00 Build 0)  -->
<svg version="1.1" id="Capa_1" xmlns="http://www.w3.org/2000/svg" xmlns:xlink="http://www.w3.org/1999/xlink" x="0px" y="0px"
	 viewBox="0 0 512 512" style="enable-background:new 0 0 512 512;" xml:space="preserve">
<g>
	<rect x="145.655" y="8.828" style="fill:#95A5A5;" width="105.931" height="123.586"/>
	<g>
		<path style="fill:#BDC3C7;" d="M129.182,105.931h138.878c5.528,0,10.01,4.481,10.01,10.01v60.611H119.172v-60.611
			C119.172,110.412,123.654,105.931,129.182,105.931z"/>
		<path style="fill:#BDC3C7;" d="M436.966,118.415V291.31c0,4.875-3.952,8.828-8.828,8.828h-35.31c-4.875,0-8.828-3.952-8.828-8.828
			V142.017c0-2.36-0.945-4.622-2.624-6.28l-81.219-80.223c-1.652-1.632-3.881-2.547-6.203-2.547H136.828
			c-4.875,0-8.828-3.952-8.828-8.828V8.828C128,3.952,131.952,0,136.828,0H318.55c2.341,0,4.587,0.93,6.242,2.586L434.38,112.173
			C436.035,113.829,436.966,116.074,436.966,118.415z"/>
	</g>
	<path style="fill:#4C8056;" d="M91.551,141.241h214.14c9.122,0,16.516,7.395,16.516,16.516v337.726
		c0,9.122-7.395,16.516-16.516,16.516H91.551c-9.122,0-16.516-7.395-16.516-16.516V157.758
		C75.034,148.636,82.429,141.241,91.551,141.241z"/>
	<g>
		<path style="fill:#71C285;" d="M110.345,185.379c-2.341-0.001-4.587,0.929-6.243,2.585c-1.656,1.656-2.585,3.901-2.585,6.243
			v123.586c0,4.875,3.952,8.828,8.828,8.828c4.875,0,8.828-3.952,8.828-8.828V194.207c0.001-2.341-0.929-4.587-2.585-6.243
			C114.932,186.309,112.686,185.379,110.345,185.379z"/>
		<path style="fill:#71C285;" d="M110.345,361.931c-2.341-0.001-4.587,0.929-6.243,2.585c-1.656,1.656-2.585,3.901-2.585,6.243
			v44.138c0,4.875,3.952,8.828,8.828,8.828c4.875,0,8.828-3.952,8.828-8.828v-44.138c0.001-2.341-0.929-4.587-2.585-6.243
			C114.932,362.86,112.686,361.93,110.345,361.931z"/>
		<path style="fill:#71C285;" d="M110.345,441.379c-2.341-0.001-4.587,0.929-6.243,2.585c-1.656,1.656-2.585,3.901-2.585,6.243
			v8.828c0,4.875,3.952,8.828,8.828,8.828c4.875,0,8.828-3.952,8.828-8.828v-8.828c0.001-2.341-0.929-4.587-2.585-6.243
			C114.932,442.309,112.686,441.379,110.345,441.379z"/>
	</g>
	<path style="fill:#B19046;" d="M198.621,220.69c-34.127,0-61.793-27.666-61.793-61.793s27.666-61.793,61.793-61.793
		s61.793,27.666,61.793,61.793C260.374,193.007,232.732,220.65,198.621,220.69z M198.621,114.759
		c-24.377,0-44.138,19.761-44.138,44.138s19.761,44.138,44.138,44.138s44.138-19.761,44.138-44.138
		C242.73,134.532,222.986,114.787,198.621,114.759z"/>
	<rect x="75.034" y="317.793" style="fill:#BBD1B5;" width="247.172" height="52.966"/>
</g>
<g>
</g>
<g>
</g>
<g>
</g>
<g>
</g>
<g>
</g>
<g>
</g>
<g>
</g>
<g>
</g>
<g>
</g>
<g>
</g>
<g>
</g>
<g>
</g>
<g>
</g>
<g>
</g>
<g>
</g>
</svg>
