<?xml version="1.0"?>
<svg xmlns="http://www.w3.org/2000/svg" id="Flat" height="512" viewBox="0 0 512 512" width="512"><g transform="matrix(-1 0 0 1 512 0)"><path d="m424 312q0 8.1-.76 16a168 168 0 0 1 -334.48 0q-.76-7.9-.76-16t.76-16a168.065 168.065 0 0 1 119.24-144.95v-39.05h96v39.05a168.1 168.1 0 0 1 119.24 144.95q.765 7.9.76 16z" fill="#8d8d54" data-original="#8D8D54"/><path d="m200 56h112v64h-112z" fill="#6a6a33" data-original="#6A6A33"/><path d="m200 32h160l96 96v264a16 16 0 0 1 -16 16 16 16 0 0 1 -16-16v-224l-55.172-55.172a84.769 84.769 0 0 0 -59.941-24.828h-60.887a24 24 0 0 0 -24-24h-24z" fill="#8d8d54" data-original="#8D8D54"/><path d="m424 312q0 8.1-.76 16h-334.48q-.76-7.9-.76-16t.76-16h334.48q.765 7.9.76 16z" fill="#6a6a33" data-original="#6A6A33"/><path d="m91.964 212.165-13.664-8.332c3.475-5.7 7.273-11.3 11.286-16.639l12.793 9.611c-3.701 4.931-7.207 10.095-10.415 15.36z" fill="#ccdce5" data-original="#CCDCE5"/><path d="m114.558 464.507a208.152 208.152 0 0 1 -45.388-244.033l14.363 7.049a191.853 191.853 0 0 0 41.907 225.255z" fill="#ccdce5" data-original="#CCDCE5"/><path d="m264 352h112v16h-112z" fill="#ded9af" data-original="#DED9AF"/><path d="m136 256h112v16h-112z" fill="#ded9af" data-original="#DED9AF"/><path d="m312 56h16v40h-16z" fill="#ccdce5" data-original="#CCDCE5"/><path d="m320 88a56 56 0 1 0 56 56 56 56 0 0 0 -56-56zm0 80a24 24 0 1 1 24-24 24 24 0 0 1 -24 24z" fill="#4f4f26" data-original="#4F4F26" class="active-path" style="fill:#4F4F26"/></g> </svg>
