<svg id="Flat" height="512" viewBox="0 0 512 512" width="512" xmlns="http://www.w3.org/2000/svg"><g fill="#354f5c"><path d="m464 112h-16v-24a8 8 0 0 1 8-8 8 8 0 0 1 8 8z"/><path d="m88 112h-16v-24a8 8 0 0 1 8-8 8 8 0 0 1 8 8z"/><path d="m304 272h-45.948a70.43 70.43 0 0 1 -50.13-20.764l-9.579-9.579 11.314-11.314 9.579 9.579a54.535 54.535 0 0 0 38.816 16.078h37.948v-64h16v72a8 8 0 0 1 -8 8z"/><path d="m250.343 245.657a26.161 26.161 0 0 1 -6.354-26.921l7.753-23.261 15.18 5.058-7.754 23.267a10.249 10.249 0 0 0 2.489 10.547z"/><path d="m48 360h104v72h-104z"/></g><path d="m456 152v40a16 16 0 0 1 -16 16h-208l-6.67 16-13.33 32-60 144h-104l-16-16 47.31-136 5.56-16 2.04-5.86a24.08 24.08 0 0 0 -18.05-31.57 15.99 15.99 0 0 1 -12.86-15.69v-26.88z" fill="#57646f"/><path d="m225.33 224-13.33 32h-12a16 16 0 1 1 0-32z" fill="#798b9b"/><path d="m56 104h416v64h-416z" fill="#354f5c"/><path d="m440 104h32v64h-32z" fill="#57646f"/><path d="m160 152h32v32h-32z" fill="#798b9b"/><path d="m256 128h24v16h-24z" fill="#57646f"/><path d="m336 168h16v40h-16z" fill="#798b9b"/><path d="m160 240a8 8 0 0 1 -8 8h-72.69l5.56-16h67.13a8 8 0 0 1 8 8z" fill="#798b9b"/><path d="m192 64h176v16h-176z" fill="#ccdce5"/><path d="m160 64h16v16h-16z" fill="#ccdce5"/></svg>