<?xml version="1.0"?>
<svg xmlns="http://www.w3.org/2000/svg" id="Capa_1" enable-background="new 0 0 497 497" height="512px" viewBox="0 0 497 497" width="512px" class=""><g><g><path d="m331 120c-33.084 0-60-26.916-60-60s26.916-60 60-60 60 26.916 60 60-26.916 60-60 60zm0-105c-24.813 0-45 20.187-45 45s20.187 45 45 45 45-20.187 45-45-20.187-45-45-45z" fill="#c5c6c0" data-original="#C5C6C0" class=""/><path d="m331 150v60h-60v-90z" fill="#9b9ea7" data-original="#9B9EA7" class=""/><path d="m211 120h90v90h-90z" fill="#c5c6c0" data-original="#C5C6C0" class=""/><path d="m376 332v-144.5c0-4.142-3.358-7.5-7.5-7.5h-22.5l-45 30v257l45 30h22.5c4.142 0 7.5-3.358 7.5-7.5v-52.5c0-8.28-6.72-15-15-15v-75c8.28 0 15-6.72 15-15z" fill="#665912" data-original="#665912" class="" data-old_color="#665912" style="fill:#4D4C4B"/><path d="m346 332v-152h-172.5c-4.142 0-7.5 3.358-7.5 7.5v144.5c0 8.28 6.72 15 15 15v75c-8.28 0-15 6.72-15 15v52.5c0 4.142 3.358 7.5 7.5 7.5h172.5v-60c0-8.28-6.72-15-15-15v-75c8.28 0 15-6.72 15-15z" fill="#716d16" data-original="#716D16" class="" data-old_color="#716d16" style="fill:#787875"/><path d="m361 347h-30v75h30c8.28 0 15-6.72 15-15v-45c0-8.28-6.72-15-15-15z" fill="#716d16" data-original="#716D16" class="" data-old_color="#716d16" style="fill:#787875"/><path d="m331 347h-150c-8.28 0-15 6.72-15 15v45c0 8.28 6.72 15 15 15h150c8.28 0 15-6.72 15-15v-45c0-8.28-6.72-15-15-15z" fill="#7b801a" data-original="#7B801A" class="" data-old_color="#7b801a" style="fill:#BCBCBC"/><path d="m331 60v90h-30l-45-90z" fill="#71758e" data-original="#71758E" class="active-path" data-old_color="#71758e" style="fill:#747788"/><path d="m121 180v-26.36l92.856-93.623 87.144-.017v90h-135c-16.57 0-30 13.43-30 30z" fill="#9b9ea7" data-original="#9B9EA7" class=""/><path d="m331 45h-30v30h30c8.28 0 15-6.72 15-15s-6.72-15-15-15z" fill="#2e3261" data-original="#2E3261" class="" data-old_color="#2e3261" style="fill:#ACACAC"/><path d="m301 45c8.524 0 15.394 7.121 14.982 15.735-.385 8.065-7.335 14.265-15.409 14.265h-77.143l-78.64 78.64c-5.628 5.628-8.79 13.262-8.79 21.221v171.712c0 8.074-6.201 15.024-14.265 15.41-8.614.411-15.735-6.459-15.735-14.983v-172.152c0-15.91 6.32-31.168 17.57-42.418l85.233-85.233c1.407-1.407 3.314-2.197 5.304-2.197z" fill="#474c75" data-original="#474C75" class="" data-old_color="#474c75" style="fill:#000000"/><circle cx="301" cy="105" fill="#c5c6c0" r="7.5" data-original="#C5C6C0" class=""/></g></g> </svg>
